<?xml version="1.0" encoding="UTF-8"?>
<svg id="Layer_2" data-name="Layer 2" xmlns="http://www.w3.org/2000/svg" xmlns:xlink="http://www.w3.org/1999/xlink" viewBox="0 0 1290.55 719.17">
  <defs>
    <style>
      .cls-1 {
        fill: #ff7bac;
      }

      .cls-2, .cls-3 {
        fill: #fff;
      }

      .cls-2, .cls-4 {
        stroke: #231f20;
        stroke-linecap: round;
        stroke-miterlimit: 10;
        stroke-width: 1px;
      }

      .cls-5 {
        fill: #e6e6e6;
      }

      .cls-6 {
        fill: url(#linear-gradient-3);
      }

      .cls-7 {
        fill: url(#linear-gradient-2);
      }

      .cls-8 {
        fill: url(#linear-gradient);
      }

      .cls-9 {
        fill: url(#linear-gradient-5);
      }

      .cls-9, .cls-10, .cls-11, .cls-12, .cls-13 {
        stroke: #000;
        stroke-miterlimit: 10;
      }

      .cls-10 {
        fill: url(#linear-gradient-8);
      }

      .cls-11 {
        fill: url(#linear-gradient-7);
      }

      .cls-12 {
        fill: url(#linear-gradient-4);
      }

      .cls-13 {
        fill: url(#linear-gradient-6);
      }

      .cls-14 {
        isolation: isolate;
      }

      .cls-15 {
        opacity: .47;
      }

      .cls-4 {
        fill: #e6e7e8;
      }
    </style>
    <linearGradient id="linear-gradient" x1="302.11" y1="623.1" x2="550.44" y2="623.1" gradientTransform="translate(0 754.87) scale(1 -1)" gradientUnits="userSpaceOnUse">
      <stop offset="0" stop-color="#000"/>
      <stop offset="1" stop-color="#231f20"/>
    </linearGradient>
    <linearGradient id="linear-gradient-2" x1="381.04" y1="722.03" x2="463.48" y2="722.03" gradientTransform="translate(0 754.87) scale(1 -1)" gradientUnits="userSpaceOnUse">
      <stop offset="0" stop-color="#fff"/>
      <stop offset="1" stop-color="#231f20"/>
    </linearGradient>
    <linearGradient id="linear-gradient-3" x1="312.41" y1="668.59" x2="370.42" y2="668.59" gradientTransform="translate(0 754.87) scale(1 -1)" gradientUnits="userSpaceOnUse">
      <stop offset="0" stop-color="#fff"/>
      <stop offset="1" stop-color="#231f20"/>
    </linearGradient>
    <linearGradient id="linear-gradient-4" x1="405.01" y1="639.04" x2="509.85" y2="639.04" gradientTransform="translate(0 754.87) scale(1 -1)" gradientUnits="userSpaceOnUse">
      <stop offset="0" stop-color="#fff"/>
      <stop offset="1" stop-color="#231f20"/>
    </linearGradient>
    <linearGradient id="linear-gradient-5" x1="413.16" y1="639.04" x2="501.69" y2="639.04" gradientTransform="translate(0 754.87) scale(1 -1)" gradientUnits="userSpaceOnUse">
      <stop offset="0" stop-color="#fff"/>
      <stop offset="1" stop-color="#231f20"/>
    </linearGradient>
    <linearGradient id="linear-gradient-6" x1="425.17" y1="647.75" x2="427.11" y2="647.75" gradientTransform="translate(0 754.87) scale(1 -1)" gradientUnits="userSpaceOnUse">
      <stop offset="0" stop-color="#fff"/>
      <stop offset="1" stop-color="#231f20"/>
    </linearGradient>
    <linearGradient id="linear-gradient-7" x1="437.92" y1="656.3" x2="439.26" y2="656.3" gradientTransform="translate(0 754.87) scale(1 -1)" gradientUnits="userSpaceOnUse">
      <stop offset="0" stop-color="#fff"/>
      <stop offset="1" stop-color="#231f20"/>
    </linearGradient>
    <linearGradient id="linear-gradient-8" x1="430.21" y1="636.59" x2="432.24" y2="636.59" gradientTransform="translate(0 754.87) scale(1 -1)" gradientUnits="userSpaceOnUse">
      <stop offset="0" stop-color="#fff"/>
      <stop offset="1" stop-color="#231f20"/>
    </linearGradient>
  </defs>
  <g>
    <g>
      <rect class="cls-3" x=".58" y="96.55" width="460.12" height="621.98"/>
      <path d="M460.12,97.19v620.7H1.16V97.19h458.95M461.28,95.91H0v623.26h461.28V95.91h0Z"/>
    </g>
    <g class="cls-15">
      <rect class="cls-1" x="28.54" y="140.06" width="396.05" height="463.29"/>
      <path d="M424.01,140.7v462.01H29.12V140.7h394.89M425.17,139.42H27.96v464.57h397.22V139.42h0Z"/>
    </g>
    <g>
      <polygon class="cls-4" points="170.94 318.4 213.39 326.62 177.99 547.18 135.54 538.96 170.94 318.4"/>
      <polygon class="cls-4" points="213.38 326.62 252.39 334.18 216.99 554.74 177.98 547.19 213.38 326.62"/>
      <polygon class="cls-4" points="252.38 334.18 291.38 341.74 255.98 562.3 216.98 554.74 252.38 334.18"/>
      <polygon class="cls-4" points="291.38 341.74 329.23 349.07 293.84 569.64 255.98 562.3 291.38 341.74"/>
    </g>
    <g>
      <g>
        <polygon class="cls-8" points="302.11 116.3 495.31 17.32 550.44 147.23 357.25 246.21 302.11 116.3"/>
        <path d="M495.03,18.19l54.64,128.75-192.14,98.44-54.64-128.75L495.03,18.19M495.6,16.48l-194.25,99.52,55.63,131.06,194.25-99.52-55.63-131.06h0Z"/>
      </g>
      <g>
        <path class="cls-7" d="M395.94,65.01c-5.49,0-8.52-4.91-12.5-14.62-3.38-8.7-4.04-15.38,3.74-19.72,5.86-2.93,11.94-6.22,18.37-9.71,14.19-7.69,28.85-15.65,42.52-20.28.17-.01.34-.03.5-.03,2.2,0,4.4,1.23,6.53,3.63,5.32,6.02,8.52,17.51,8.38,22.78-.89,5.34-4.31,7.15-9.98,10.17-1.09.58-2.26,1.2-3.49,1.89l-3.89,2c-12.46,6.39-27.7,14.21-38.55,19.73-5.2,2.87-8.78,4.15-11.64,4.15h.01Z"/>
        <path d="M448.56,1.29c2.04,0,4.1,1.15,6.12,3.44,5.18,5.86,8.31,17.02,8.21,22.22-.86,5.04-4,6.71-9.66,9.71-1.11.59-2.26,1.2-3.46,1.88l-3.06,1.57c-12.6,6.46-28.29,14.51-39.42,20.18-5.09,2.82-8.6,4.07-11.36,4.07-4.62,0-7.54-3.46-11.95-14.21-3.35-8.61-3.94-14.79,3.41-18.89,5.89-2.94,11.97-6.25,18.42-9.74,14.14-7.68,28.76-15.6,42.37-20.22.13,0,.27-.01.4-.01M448.56.01c-.21,0-.41,0-.62.03-19.88,6.72-42.05,20.57-61.04,30.06-8.43,4.7-7.32,12.03-4.01,20.55,4.16,10.12,7.37,14.99,13.02,14.99,3.06,0,6.84-1.42,11.88-4.21,12-6.13,29.4-15.05,42.45-21.74,7.69-4.31,12.67-5.76,13.79-12.61.21-8.02-6.43-27.08-15.49-27.08h.01Z"/>
      </g>
      <g>
        <path class="cls-6" d="M319.1,105.8c-3.16,0-5.95-4.15-6.57-8.02-.24-1.56-.47-5.31,2.87-6.64,5.01-2.57,19.3-9.89,30.97-15.87l14.41-7.38c1-.78,1.93-1.14,2.88-1.14,1.81,0,3.62,1.33,5.01,3.67,1.74,2.94,2.25,6.57,1.26,9-.83,1.33-2.97,2.35-5.04,3.34-.99.47-2.02.96-2.92,1.5-11,5.64-31,15.88-40.46,20.72-.82.58-1.6.84-2.39.84h-.01Z"/>
        <path d="M363.67,67.39c1.61,0,3.25,1.23,4.52,3.38,1.58,2.69,2.1,6.07,1.25,8.28-.82,1.23-2.83,2.19-4.79,3.11-.99.47-2.03.96-2.94,1.5-11.04,5.66-31.01,15.9-40.46,20.72l-.07.04-.07.05c-.65.46-1.33.69-2,.69-2.83,0-5.43-3.94-5.99-7.49-.28-1.74-.33-4.81,2.49-5.93l.05-.03.05-.03c4.92-2.53,19.02-9.75,30.65-15.7,6.19-3.17,11.67-5.98,14.69-7.53l.1-.05.09-.08c.8-.64,1.62-.96,2.45-.96M363.67,66.11c-1.01,0-2.07.37-3.12,1.2-8.67,4.44-37.8,19.35-45.34,23.23-6.88,2.74-2.07,15.9,3.9,15.9.86,0,1.76-.28,2.63-.9,9.46-4.84,29.46-15.09,40.49-20.73,2.81-1.68,6.83-2.82,8.22-5.13,2.04-5-1.89-13.57-6.79-13.57h0Z"/>
      </g>
      <ellipse class="cls-12" cx="457.43" cy="115.82" rx="52.42" ry="57.59"/>
      <ellipse class="cls-9" cx="457.43" cy="115.82" rx="44.26" ry="48.63"/>
      <path class="cls-13" d="M427.11,99.16c-.64,5.31-1.28,10.61-1.93,15.92,0-9.91.56-6.13,1.93-15.92Z"/>
      <path class="cls-11" d="M439.03,84.94c.5,9.1.13,18.25-1.12,27.26.29-6.58.84-20.68,1.12-27.26Z"/>
      <path class="cls-10" d="M430.23,128.94c-.17-7.17.51-14.35,2-21.32"/>
    </g>
    <g>
      <g>
        <polygon class="cls-5" points="100.74 254.53 314.11 213.19 320.38 252.27 107.01 293.6 100.74 254.53"/>
        <path d="M313.64,213.94l6.07,37.81-212.23,41.11-6.07-37.81,212.23-41.11M314.58,212.46l-214.52,41.56,6.48,40.33,214.52-41.56-6.48-40.33h0Z"/>
      </g>
      <polygon class="cls-4" points="149.13 194.02 247.78 174.91 255.67 224.07 157.02 243.18 149.13 194.02"/>
      <polygon class="cls-2" points="176.99 205.51 225.17 196.18 230.43 228.95 182.25 238.28 176.99 205.51"/>
    </g>
  </g>
  <g class="cls-14">
    <g class="cls-14">
      <path d="M521.78,218.76l9.32-.42c1.24-.09,1.86.97,1.86,3.19v6.72c-.13,1.49-.2,4.99-.2,10.49,0,1.68.07,3.59.2,5.74v6.86c0,2.05-.31,3.08-.93,3.08-.67,0-1-1.02-1-3.05l.07-.28.27-8.05c.18-2.68.27-6.06.27-10.13,0-5.46-.22-8.72-.67-9.78-.45-1.06-1.79-1.6-4.02-1.6h-8.58c-1.16,0-1.88.3-2.15.9-.27.6-.4,2.24-.4,4.93l.13,71.58c0,3.33.18,5.64.53,6.94.49,1.66,1.42,2.5,2.79,2.5.71,0,1.4-.09,2.06-.28.35-.09.89-.14,1.6-.14.93,0,1.4.6,1.4,1.8s-.44,1.8-1.33,1.8h-.2l-1.53-.28c-.4-.09-1.04-.19-1.93-.28-2.08-.37-3.26-.55-3.52-.55h-1.86c-.4,0-1.02.09-1.86.28l-1.66.28c-1.02.18-1.64.28-1.86.28l-1.46.28h-.27c-.93,0-1.4-.55-1.4-1.66,0-1.29.49-1.94,1.46-1.94.75,0,1.31.05,1.66.14.71.19,1.4.28,2.06.28,1.33,0,2.24-.92,2.73-2.77.27-1.2.42-3.42.47-6.66l.13-10.13v-61.32c0-2.87-.13-4.58-.4-5.13-.27-.55-1.04-.83-2.33-.83h-7.91c-1.86,0-3.01.28-3.46.83-.8.93-1.22,3.19-1.26,6.8-.04,2.68-.07,6.06-.07,10.13,0,1.02.02,2.36.07,4.02l.2,7.91c0,2.22-.29,3.33-.86,3.33-.62,0-.93-1.24-.93-3.72v-.41l.2-7.7v-15.68l-.2-5.5c.04-2.4.78-3.61,2.2-3.61.44,0,1.58.09,3.4.28,3.64.37,8.72.55,15.25.55h3.93Z"/>
      <path d="M547.46,254.97c2.44-8.88,5.92-13.32,10.44-13.32,2.66,0,4.84,1.55,6.55,4.65,1.71,3.1,2.56,7.1,2.56,12,0,3.24-.39,5.94-1.16,8.12-.78,2.17-1.76,3.26-2.96,3.26-1.6,0-2.39-1.53-2.39-4.58,0-2.77.66-4.16,1.99-4.16.35,0,.71.28,1.06.83.35.55.6.83.73.83.58,0,.86-1.66.86-4.99,0-3.88-.69-7.05-2.06-9.5-1.37-2.45-3.17-3.68-5.38-3.68-3.81,0-6.58,2.96-8.31,8.88-1.29,4.44-1.93,11.29-1.93,20.53v11.79c0,10.82.18,17.34.53,19.56.35,2.22,1.37,3.33,3.06,3.33h3.12c.97,0,1.46.51,1.46,1.53,0,1.11-.42,1.66-1.26,1.66h-.2l-2.33-.42-2.73-.42h-5.12l-2.73.42-2.33.42h-.2c-.84,0-1.26-.51-1.26-1.53,0-1.11.49-1.66,1.46-1.66h3.12c1.73,0,2.77-1.11,3.12-3.33.35-2.22.53-8.74.53-19.56v-21.78c0-6.66,0-9.57,0-8.74-.09-4.81-.42-7.58-1-8.32-.35-.46-.93-.69-1.73-.69-.27,0-1,.09-2.19.28l-1.99.28c-.89,0-1.33-.6-1.33-1.8s.38-1.8,1.13-1.8c.4,0,1.11.09,2.13.28.49.09,1,.14,1.53.14h1c.49,0,1.2-.1,2.13-.31.09,0,.2-.03.33-.1h.33c.93,0,1.4,1.01,1.4,3.02v8.91Z"/>
      <path d="M594.39,298.39l-.07-1.11-.26.97c-.58,2.04-1.39,4.16-2.45,6.38-2.74,5.64-6.14,8.46-10.21,8.46-3.18,0-5.77-1.76-7.76-5.27-1.99-3.51-2.98-8.09-2.98-13.73,0-4.72.71-8.79,2.14-12.21,1.43-3.42,3.32-5.64,5.68-6.66,1.6-.65,3.5-1.11,5.68-1.39,3.61-.46,6.22-1.78,7.82-3.95,1.6-2.17,2.41-5.52,2.41-10.06s-.87-8.35-2.61-11.17c-1.74-2.82-4.04-4.23-6.89-4.23s-5.46,1.34-7.4,4.02c-1.94,2.68-2.91,6.06-2.91,10.13,0,1.48.2,2.22.6,2.22.09,0,.22-.18.4-.56,0-.09.04-.37.13-.83.31-1.57.91-2.36,1.79-2.36,1.33,0,1.99,1.48,1.99,4.44,0,1.57-.3,2.94-.9,4.09-.6,1.16-1.32,1.73-2.16,1.73-1.02,0-1.89-.81-2.63-2.43-.73-1.62-1.1-3.54-1.1-5.76,0-4.99,1.14-9.16,3.42-12.49,2.28-3.33,5.13-4.99,8.54-4.99s6.18,1.71,8.18,5.13c2.17,3.79,3.26,9.71,3.26,17.76v34.54c.14,7.49,1.31,11.24,3.52,11.24,2.44,0,3.66-3.42,3.66-10.27v-6.8c-.04-2.68.24-4.02.86-4.02.53,0,.8.93.8,2.77v5.55c-.14,10.36-1.93,15.54-5.39,15.54-3.23,0-4.96-4.07-5.18-12.21v-2.5ZM581.69,310.32c3.55,0,6.55-2.59,9.01-7.77,2.46-5.18,3.69-11.42,3.69-18.73v-13.46c0-.92-.09-1.39-.27-1.39-.04,0-.29.55-.73,1.66-1.42,3.61-4.56,5.74-9.44,6.38-2.84.37-4.95,1.06-6.35,2.08-1.4,1.02-2.56,2.73-3.49,5.13-1.06,2.68-1.6,6.01-1.6,9.99,0,4.63.86,8.46,2.59,11.51,1.73,3.05,3.92,4.58,6.58,4.58Z"/>
      <path d="M621.48,313.09c-5.22,0-9.06-3.88-11.53-11.65.07,1.71.12,2.89.16,3.55.07,3.79.11,5.45.11,4.97,0,2.08-.29,3.13-.86,3.13-.66,0-1-.93-1-2.77,0-1.11.07-2.84.2-5.2.13-2.36.2-5.53.2-9.5,0-4.35-.07-7.72-.2-10.13-.13-2.4-.2-3.65-.2-3.75,0-1.57.3-2.36.9-2.36.64,0,.96,1.15.96,3.44,0,.09-.03.53-.09,1.31s-.09,1.63-.09,2.54c-.06,1.28-.09,2.57-.09,3.85,0,5.87,1.06,10.63,3.19,14.3,2.13,3.67,4.9,5.5,8.31,5.5,3.19,0,5.76-1.57,7.71-4.72,1.95-3.14,2.93-7.26,2.93-12.35,0-4.62-.73-8-2.19-10.13-1.46-2.13-4.03-3.65-7.71-4.58-4.3-1.02-7.18-2.17-8.64-3.47-1.24-1.11-2.24-2.94-2.99-5.48-.75-2.54-1.13-5.29-1.13-8.25,0-5.55,1.07-10.22,3.22-14.01,2.15-3.79,4.84-5.69,8.08-5.69,4.39,0,7.75,3.79,10.1,11.38v-6.66c0-2.68.27-4.02.8-4.02s.8.74.8,2.22c0,.46-.07,1.62-.2,3.47,0,.19-.02.79-.07,1.8-.04,1.02-.07,1.94-.07,2.77l-.07,5.13c0,3.79.02,6.08.07,6.87.04.79.09,1.55.13,2.29v1.25c0,1.57-.29,2.36-.87,2.36-.53,0-.8-.74-.8-2.22v-.28l.18-3.19c.06-1.11.09-1.43.09-.97,0-5.73-.92-10.4-2.77-14.01-1.85-3.61-4.26-5.41-7.24-5.41-2.76,0-5.04,1.5-6.84,4.51-1.8,3.01-2.7,6.87-2.7,11.58s.7,7.79,2.09,9.78c1.4,1.99,3.96,3.4,7.68,4.23,3.94.83,6.87,2.13,8.78,3.88,2.75,2.5,4.12,7.03,4.12,13.6,0,6.2-1.16,11.26-3.48,15.19-2.32,3.93-5.31,5.9-8.98,5.9Z"/>
      <path d="M647.96,255.52c1.15-3.61,2.3-6.33,3.46-8.19,2.44-3.79,5.34-5.69,8.71-5.69,2.48,0,4.65,1.06,6.51,3.19,2.08,2.5,3.43,6.06,4.05,10.68.35,2.68.53,7.35.53,14.01v16.09c0,10.82.18,17.34.53,19.56.35,2.22,1.37,3.33,3.06,3.33h3.12c.97,0,1.46.51,1.46,1.53,0,1.11-.42,1.66-1.26,1.66h-.2l-2.33-.42-2.73-.42h-4.99l-2.66.42-2.19.42h-.27c-.84,0-1.26-.51-1.26-1.53,0-1.11.49-1.66,1.46-1.66h2.92c1.68,0,2.7-1.11,3.06-3.33.35-2.22.53-8.74.53-19.56v-15.4c0-5.09-.07-8.51-.2-10.27-.27-3.79-.91-6.89-1.93-9.29-1.73-4.16-4.28-6.24-7.64-6.24-3.1,0-5.76,2.08-7.98,6.24-2.53,4.72-3.79,11.42-3.79,20.12v14.84c0,10.73.18,17.23.53,19.49.35,2.27,1.35,3.4,2.99,3.4h2.92c.97,0,1.46.51,1.46,1.53,0,1.11-.42,1.66-1.26,1.66h-.2l-2.26-.42-2.66-.42h-4.92l-2.79.42-2.33.42h-.2c-.84,0-1.26-.51-1.26-1.53,0-1.11.49-1.66,1.46-1.66h3.19c1.68,0,2.7-1.11,3.06-3.34.35-2.23.53-8.77.53-19.62v-48.57c0-9.18-.17-14.42-.5-15.72-.33-1.3-1.08-1.95-2.23-1.95-.62,0-1.35.13-2.19.39-1.24.39-1.91.58-1.99.58-.89,0-1.33-.6-1.33-1.8s.4-1.8,1.2-1.8h7.18c1.06,0,1.59,1.11,1.59,3.33v35.51Z"/>
      <path d="M718.36,215.84c5.76,0,10.44,4.51,14.03,13.53,3.59,9.02,5.38,20.83,5.38,35.45s-1.73,26.29-5.18,35.31c-3.46,9.02-7.98,13.53-13.56,13.53-5.89,0-10.62-4.46-14.19-13.39-3.57-8.92-5.35-20.69-5.35-35.31s1.75-26.33,5.25-35.45c3.5-9.11,8.04-13.66,13.63-13.66ZM718.63,310.6c5.14,0,9.27-4.18,12.4-12.56,3.12-8.37,4.69-19.4,4.69-33.09s-1.63-24.53-4.89-33.09c-3.26-8.55-7.46-12.83-12.6-12.83s-9,4.23-12.1,12.69-4.65,19.4-4.65,32.81,1.56,25.13,4.69,33.5c3.12,8.37,7.28,12.56,12.46,12.56Z"/>
      <path d="M759.31,311.71l-2.33-.42-2.73-.42h-5.05l-2.79.42-2.33.42h-.2c-.84,0-1.26-.51-1.26-1.53,0-1.11.49-1.66,1.46-1.66h3.19c1.68,0,2.7-1.11,3.06-3.34.35-2.22.53-8.76.53-19.6v-35.87c0-2.5-.4-3.75-1.2-3.75-.4,0-1.11.12-2.13.35-1.02.23-1.66.35-1.93.35-1.02,0-1.53-.65-1.53-1.94,0-1.11.38-1.66,1.13-1.66h.2l1.93.28c.22.19.89.28,1.99.28h.13c.67,0,1.07-.23,1.23-.7s.23-1.72.23-3.77c.09-15.71,3.54-23.56,10.37-23.56,2.13,0,3.89,1.02,5.28,3.05,1.4,2.04,2.09,4.58,2.09,7.63,0,4.16-.91,6.24-2.73,6.24-1.46,0-2.19-1.53-2.19-4.58,0-2.77.6-4.16,1.79-4.16.35,0,.53-.23.53-.69,0-1.02-.42-1.99-1.26-2.91-1.06-1.2-2.33-1.8-3.79-1.8-5.63,0-8.44,7.31-8.44,21.92,0,1.48.09,2.41.27,2.77.18.37.62.55,1.33.55h.33c.18-.09.31-.14.4-.14l6.12-.42c1.11,0,1.66.55,1.66,1.66,0,1.3-.6,1.94-1.79,1.94.31,0-.58-.09-2.66-.28h-3.12c-.09,0-.22-.14-.4-.42h-.47c-.71,0-1.16.23-1.36.69-.2.46-.3,1.53-.3,3.19v35.79c0,10.82.18,17.34.53,19.56.35,2.22,1.37,3.33,3.06,3.33h3.12c.97,0,1.46.51,1.46,1.53,0,1.11-.4,1.66-1.2,1.66-.22,0-.31,0-.27,0Z"/>
      <path d="M807.95,218.76l9.32-.42c1.24-.09,1.86.97,1.86,3.19v6.72c-.13,1.49-.2,4.99-.2,10.49,0,1.68.07,3.59.2,5.74v6.86c0,2.05-.31,3.08-.93,3.08-.67,0-1-1.02-1-3.05l.07-.28.27-8.05c.18-2.68.27-6.06.27-10.13,0-5.46-.22-8.72-.67-9.78-.45-1.06-1.79-1.6-4.02-1.6h-8.58c-1.16,0-1.88.3-2.15.9-.27.6-.4,2.24-.4,4.93l.13,71.58c0,3.33.18,5.64.53,6.94.49,1.66,1.42,2.5,2.79,2.5.71,0,1.4-.09,2.06-.28.35-.09.89-.14,1.59-.14.93,0,1.4.6,1.4,1.8s-.44,1.8-1.33,1.8h-.2l-1.53-.28c-.4-.09-1.04-.19-1.93-.28-2.08-.37-3.26-.55-3.52-.55h-1.86c-.4,0-1.02.09-1.86.28l-1.66.28c-1.02.18-1.64.28-1.86.28l-1.46.28h-.27c-.93,0-1.4-.55-1.4-1.66,0-1.29.49-1.94,1.46-1.94.75,0,1.31.05,1.66.14.71.19,1.4.28,2.06.28,1.33,0,2.24-.92,2.73-2.77.27-1.2.42-3.42.47-6.66l.13-10.13v-61.32c0-2.87-.13-4.58-.4-5.13-.27-.55-1.04-.83-2.33-.83h-7.91c-1.86,0-3.01.28-3.46.83-.8.93-1.22,3.19-1.26,6.8-.04,2.68-.07,6.06-.07,10.13,0,1.02.02,2.36.07,4.02l.2,7.91c0,2.22-.29,3.33-.86,3.33-.62,0-.93-1.24-.93-3.72v-.41l.2-7.7v-15.68l-.2-5.5c.04-2.4.78-3.61,2.2-3.61.44,0,1.58.09,3.4.28,3.64.37,8.73.55,15.25.55h3.93Z"/>
      <path d="M832.43,255.52c1.15-3.61,2.3-6.33,3.46-8.19,2.44-3.79,5.34-5.69,8.71-5.69,2.48,0,4.65,1.06,6.51,3.19,2.08,2.5,3.43,6.06,4.05,10.68.35,2.68.53,7.35.53,14.01v16.09c0,10.82.18,17.34.53,19.56.35,2.22,1.37,3.33,3.06,3.33h3.12c.97,0,1.46.51,1.46,1.53,0,1.11-.42,1.66-1.26,1.66h-.2l-2.33-.42-2.73-.42h-4.99l-2.66.42-2.19.42h-.27c-.84,0-1.26-.51-1.26-1.53,0-1.11.49-1.66,1.46-1.66h2.92c1.68,0,2.7-1.11,3.06-3.33.35-2.22.53-8.74.53-19.56v-15.4c0-5.09-.07-8.51-.2-10.27-.27-3.79-.91-6.89-1.93-9.29-1.73-4.16-4.28-6.24-7.64-6.24-3.1,0-5.76,2.08-7.98,6.24-2.53,4.72-3.79,11.42-3.79,20.12v14.84c0,10.73.18,17.23.53,19.49.35,2.27,1.35,3.4,2.99,3.4h2.92c.97,0,1.46.51,1.46,1.53,0,1.11-.42,1.66-1.26,1.66h-.2l-2.26-.42-2.66-.42h-4.92l-2.79.42-2.33.42h-.2c-.84,0-1.26-.51-1.26-1.53,0-1.11.49-1.66,1.46-1.66h3.19c1.68,0,2.7-1.11,3.06-3.34.35-2.23.53-8.77.53-19.62v-48.57c0-9.18-.17-14.42-.5-15.72-.33-1.3-1.08-1.95-2.23-1.95-.62,0-1.35.13-2.19.39-1.24.39-1.91.58-1.99.58-.89,0-1.33-.6-1.33-1.8s.4-1.8,1.2-1.8h7.18c1.06,0,1.59,1.11,1.59,3.33v35.51Z"/>
      <path d="M896.11,272.03c0,1.94-.21,3.1-.63,3.47-.42.37-1.08.56-1.96.56h-23.53c-.62,0-1.01.19-1.16.55-.16.37-.23,1.3-.23,2.77,0,9.25,1.21,16.72,3.62,22.4,2.41,5.69,5.57,8.53,9.47,8.53,4.21,0,7.51-3.1,9.9-9.29.93-2.4,1.6-5.04,1.99-7.91,0-.28.11-1.43.33-3.47.18-1.57.51-2.36,1-2.36.53,0,.8.65.8,1.94,0,1.57-.24,3.65-.73,6.24-1.06,5.55-2.76,9.87-5.09,12.97-2.33,3.1-5.04,4.65-8.14,4.65-4.52,0-8.16-3.19-10.9-9.57-2.75-6.38-4.12-14.8-4.12-25.25s1.43-19.63,4.29-26.43,6.55-10.2,11.07-10.2c3.94,0,7.27,2.94,9.97,8.81,2.7,5.87,4.05,13.06,4.05,21.57ZM868.86,270.78c0,1.39.49,2.08,1.46,2.08h22.87c.75,0,1.13-.74,1.13-2.22,0-5.92-.98-11.56-2.92-16.92-2.26-6.2-5.41-9.29-9.44-9.29-3.06,0-5.68,1.78-7.88,5.34-2.19,3.56-3.76,8.58-4.69,15.05-.36,2.41-.53,4.39-.53,5.97Z"/>
      <path d="M943.24,224.31l-.13,1.11-8.91,80.74c-.53,4.63-1.17,6.94-1.93,6.94-.8,0-1.37-1.71-1.73-5.12l-8.44-80.06c-.22-2.12-.44-3.51-.67-4.16-.4-1.2-1.02-1.8-1.86-1.8h-2.39c-1.24,0-1.86-.67-1.86-2.01s.46-2.01,1.4-2.01c.49,0,1.22.21,2.19.62,1.2.52,2.57.77,4.12.77,2.17,0,3.94-.18,5.32-.56l2.06-.83h.33c1.02,0,1.53.7,1.53,2.08,0,1.29-.49,1.94-1.46,1.94h-.27c-.84,0-1.62-.07-2.33-.21s-1.13-.21-1.26-.21c-1.86,0-2.79,1.3-2.79,3.88,0,.65.07,1.76.2,3.33l.27,3.19,7.18,71.45c.13,1.48.27,2.31.4,2.5.31,0,.47-.83.47-2.5l8.84-80.46c.35-3.33,1.02-4.99,1.99-4.99s1.68,2.13,2.13,6.38l8.38,79.21c0,.19.04.51.13.97l.2,1.25c.04.19.09.32.13.42.13,0,.29-.78.46-2.36l7.71-70.89c.4-3.7.6-5.92.6-6.66,0-3.14-1-4.72-2.99-4.72-.75,0-1.37.05-1.86.14-.98.19-1.6.28-1.86.28-1.06,0-1.6-.69-1.6-2.09,0-1.29.49-1.94,1.46-1.94.4,0,1.26.23,2.59.69,1.33.46,2.83.69,4.52.69s3.39-.21,5.25-.65c.93-.21,1.51-.32,1.73-.32.97,0,1.46.65,1.46,1.94,0,1.2-.49,1.76-1.46,1.66h-1.66c-1.42,0-2.36.53-2.83,1.6-.46,1.06-.88,3.31-1.23,6.73l-8.44,77.69c-.4,3.7-1.04,5.55-1.93,5.55-.75,0-1.31-1.71-1.66-5.13l-8.91-83.52c-.09-1.02-.2-1.53-.33-1.53-.09,0-.18.33-.27.97Z"/>
      <path d="M1000.08,272.03c0,1.94-.21,3.1-.63,3.47-.42.37-1.08.56-1.96.56h-23.53c-.62,0-1.01.19-1.16.55-.16.37-.23,1.3-.23,2.77,0,9.25,1.21,16.72,3.62,22.4,2.41,5.69,5.57,8.53,9.47,8.53,4.21,0,7.51-3.1,9.9-9.29.93-2.4,1.6-5.04,1.99-7.91,0-.28.11-1.43.33-3.47.18-1.57.51-2.36,1-2.36.53,0,.8.65.8,1.94,0,1.57-.24,3.65-.73,6.24-1.06,5.55-2.76,9.87-5.09,12.97-2.33,3.1-5.04,4.65-8.14,4.65-4.52,0-8.16-3.19-10.9-9.57-2.75-6.38-4.12-14.8-4.12-25.25s1.43-19.63,4.29-26.43,6.55-10.2,11.07-10.2c3.94,0,7.27,2.94,9.97,8.81,2.7,5.87,4.05,13.06,4.05,21.57ZM972.82,270.78c0,1.39.49,2.08,1.46,2.08h22.87c.75,0,1.13-.74,1.13-2.22,0-5.92-.98-11.56-2.92-16.92-2.26-6.2-5.41-9.29-9.44-9.29-3.06,0-5.68,1.78-7.88,5.34-2.19,3.56-3.76,8.58-4.69,15.05-.36,2.41-.53,4.39-.53,5.97Z"/>
      <path d="M1035.18,272.03c0,1.94-.21,3.1-.63,3.47-.42.37-1.08.56-1.96.56h-23.53c-.62,0-1.01.19-1.16.55-.16.37-.23,1.3-.23,2.77,0,9.25,1.21,16.72,3.62,22.4,2.41,5.69,5.57,8.53,9.47,8.53,4.21,0,7.51-3.1,9.9-9.29.93-2.4,1.6-5.04,1.99-7.91,0-.28.11-1.43.33-3.47.18-1.57.51-2.36,1-2.36.53,0,.8.65.8,1.94,0,1.57-.24,3.65-.73,6.24-1.06,5.55-2.76,9.87-5.09,12.97-2.33,3.1-5.04,4.65-8.14,4.65-4.52,0-8.16-3.19-10.9-9.57-2.75-6.38-4.12-14.8-4.12-25.25s1.43-19.63,4.29-26.43,6.55-10.2,11.07-10.2c3.94,0,7.27,2.94,9.97,8.81,2.7,5.87,4.05,13.06,4.05,21.57ZM1007.92,270.78c0,1.39.49,2.08,1.46,2.08h22.87c.75,0,1.13-.74,1.13-2.22,0-5.92-.98-11.56-2.92-16.92-2.26-6.2-5.41-9.29-9.44-9.29-3.06,0-5.68,1.78-7.88,5.34-2.19,3.56-3.76,8.58-4.69,15.05-.36,2.41-.53,4.39-.53,5.97Z"/>
      <path d="M1048.94,281.19l16.75-31.08c.4-.74.6-1.48.6-2.22,0-1.11-.42-1.67-1.26-1.67h-.93c-.53,0-1.02.05-1.46.14-.89.19-1.46.28-1.73.28-.93,0-1.4-.6-1.4-1.8s.44-1.8,1.33-1.8c.13,0,.82.14,2.06.42,1.64.37,3.5.56,5.58.56,1.68,0,3.5-.23,5.45-.69.8-.18,1.46-.28,1.99-.28.89,0,1.33.55,1.33,1.66,0,1.2-.46,1.8-1.4,1.8h-.2l-1.4-.28h-1.33c-1.91,0-3.95,2.04-6.12,6.1l-7.51,14.15c-.53,1.02-.8,1.8-.8,2.36,0,.28.18.93.53,1.94l11.04,32.6c1.06,3.33,2.5,4.99,4.32,4.99.04,0,.62-.09,1.73-.28l1.6-.28c.93,0,1.4.6,1.4,1.8s-.55,1.8-1.66,1.8c-.44,0-1.24-.14-2.39-.42-.49-.18-1.4-.37-2.73-.55l-2.13-.14c-.13,0-1.04.14-2.73.42l-2.53.42-2.13.28h-.27c-.93,0-1.4-.51-1.4-1.53s.47-1.53,1.4-1.53h1.66c1.06,0,1.53,0,1.4,0,1.91,0,2.86-.78,2.86-2.36,0-.65-.22-1.67-.67-3.05l-2.13-6.66-7.78-22.75c-.4-1.2-.78-1.8-1.13-1.8-.22,0-.55.42-1,1.25l-6.85,12.9v7.21c0,5.36.09,8.74.27,10.13.49,3.42,1.66,5.13,3.52,5.13h3.12c.97,0,1.46.49,1.46,1.47,0,1.06-.42,1.59-1.26,1.59h-.2l-2.33-.36-2.73-.24-2.06-.24h-1.33l-1.86.24-2.79.24-2.33.36h-.2c-.84,0-1.26-.49-1.26-1.47,0-1.06.49-1.59,1.46-1.59h3.12c1.73,0,2.77-1.09,3.12-3.26.35-2.17.53-8.67.53-19.49v-48.42c0-9.34-.17-14.64-.5-15.88-.33-1.25-1.08-1.87-2.23-1.87-.67,0-1.4.09-2.19.28-1.59.37-2.26.56-1.99.56-.89,0-1.33-.65-1.33-1.94,0-1.11.37-1.66,1.12-1.66h7.39c.75,0,1.21.69,1.39,2.08.04.46.07,1.9.07,4.3v58.13Z"/>
      <path d="M1085.37,241.65c.89,0,1.65.62,2.29,1.87.64,1.25.96,2.75.96,4.51s-.31,3.28-.93,4.58c-.62,1.3-1.37,1.94-2.26,1.94s-1.64-.65-2.26-1.94c-.62-1.29-.93-2.82-.93-4.58s.3-3.26.9-4.51c.6-1.25,1.34-1.87,2.23-1.87ZM1085.37,299.64c.89,0,1.65.62,2.29,1.87.64,1.25.96,2.75.96,4.51,0,1.85-.31,3.4-.93,4.65-.62,1.25-1.37,1.87-2.26,1.87s-1.64-.65-2.26-1.94c-.62-1.29-.93-2.82-.93-4.58s.3-3.26.9-4.51c.6-1.25,1.34-1.87,2.23-1.87Z"/>
    </g>
    <g class="cls-14">
      <path d="M526.9,464.02c-1.45,5.09-3.56,9.39-6.35,12.9v5.13c.19,8.23.56,13.48,1.09,15.75.54,2.26,1.72,3.4,3.56,3.4,1.65,0,2.84-1.11,3.56-3.33s1.09-5.88,1.09-10.96v-.55c0,.18,0-.05,0-.69,0-2.13.23-3.19.69-3.19.62,0,.93,1.53.93,4.58,0,11.47-2.06,17.2-6.19,17.2-1.97,0-3.41-1.04-4.34-3.12-.93-2.08-1.49-5.43-1.68-10.06-.08-1.85-.17-6.1-.29-12.76-1.81,1.2-3.51,1.8-5.09,1.8-4.94,0-8.95-4.48-12.03-13.46-3.09-8.97-4.63-20.67-4.63-35.1s1.54-26.47,4.63-35.58c3.08-9.11,7.13-13.67,12.15-13.67s8.89,4.58,11.97,13.73c3.08,9.16,4.63,20.95,4.63,35.38,0,13.13-1.24,24-3.72,32.6ZM520.26,464.99c.12,2.22.17,4.99.17,8.32,1.43-1.94,2.5-3.75,3.21-5.41.71-1.67,1.44-4.11,2.17-7.35,2-8.69,3.01-18.5,3.01-29.41,0-11.47-1.14-21.64-3.41-30.52-2.58-10.08-6.34-15.12-11.28-15.12-4.47,0-8.12,4.21-10.93,12.62-2.82,8.42-4.22,19.38-4.22,32.88,0,12.21,1.25,22.98,3.76,32.32,1.16,4.35,2.99,8.05,5.5,11.1-1.16-3.14-1.74-6.61-1.74-10.41,0-4.35.65-7.86,1.94-10.54,1.29-2.68,3-4.02,5.12-4.02,3.93,0,6.17,5.18,6.71,15.54ZM514.13,477.06c1.5,0,3.1-.69,4.8-2.08l.06-1.94c.38-13.6-1.47-20.39-5.55-20.39-1.7,0-3.05,1.09-4.05,3.26-1,2.17-1.5,5.06-1.5,8.67,0,8.32,2.08,12.49,6.25,12.49Z"/>
      <path d="M561.21,470.32v-5.33c-.69,3.24-1.48,5.83-2.37,7.77-2.08,4.53-4.71,6.8-7.87,6.8-3.78,0-6.56-2.54-8.33-7.63-.96-2.78-1.6-6.15-1.91-10.13-.15-2.31-.23-6.1-.23-11.38v-20.25c0-8.32-.12-13.36-.35-15.12-.23-1.76-.91-2.64-2.04-2.64-.54,0-1.17.09-1.87.28-1.01.28-1.57.42-1.69.42-.74,0-1.11-.65-1.11-1.94,0-1.11.29-1.67.87-1.67h.17l1.62.42h3.36l.58-.14.93-.28c.69,0,1.04,1.71,1.04,5.13v36.21c0,4.9.1,8.46.29,10.68.27,3.7.91,6.8,1.91,9.29,1.58,3.98,3.86,5.97,6.83,5.97,3.93,0,6.73-3.28,8.39-9.85,1.19-4.72,1.79-11.75,1.79-21.09v-15.68c0-9.34-.15-14.64-.44-15.88-.29-1.25-.93-1.87-1.91-1.87-.59,0-1.24.09-1.94.28l-1.71.42c-.74,0-1.12-.6-1.12-1.8s.31-1.8.93-1.8h.17l1.56.42h2.89c.58,0,.98-.07,1.21-.21.23-.14.48-.21.75-.21.73,0,1.1,1.85,1.1,5.55v42.31c0,9.34.13,14.64.4,15.88.27,1.25.91,1.87,1.91,1.87.12,0,.73-.05,1.85-.14.77-.37,1.37-.55,1.79-.55.73,0,1.1.6,1.1,1.8s-.35,1.8-1.04,1.8h-.12l-1.68-.28-1.33-.14h-.69c-.12,0-.31.14-.58.42h-1.68c-.58,0-.96-.4-1.16-1.19-.19-.79-.29-2.36-.29-4.7v-1.82Z"/>
      <path d="M598.06,438.5c0,1.94-.18,3.1-.55,3.47-.37.37-.94.55-1.71.55h-20.48c-.54,0-.88.19-1.01.56-.14.37-.2,1.3-.2,2.77,0,9.25,1.05,16.72,3.15,22.4,2.1,5.69,4.85,8.53,8.24,8.53,3.66,0,6.54-3.1,8.62-9.29.81-2.4,1.39-5.04,1.74-7.91,0-.28.1-1.43.29-3.47.15-1.57.44-2.36.87-2.36.46,0,.69.65.69,1.94,0,1.57-.21,3.65-.64,6.24-.93,5.55-2.4,9.87-4.43,12.97-2.02,3.1-4.39,4.65-7.09,4.65-3.93,0-7.1-3.19-9.49-9.57-2.39-6.38-3.59-14.8-3.59-25.25s1.24-19.63,3.73-26.43,5.7-10.2,9.63-10.2c3.43,0,6.32,2.94,8.68,8.81,2.35,5.87,3.53,13.06,3.53,21.57ZM574.34,437.25c0,1.39.42,2.08,1.27,2.08h19.9c.66,0,.98-.74.98-2.22,0-5.92-.85-11.56-2.55-16.92-1.97-6.2-4.71-9.29-8.21-9.29-2.66,0-4.95,1.78-6.85,5.34-1.91,3.56-3.27,8.58-4.08,15.05-.31,2.41-.46,4.39-.46,5.96Z"/>
      <path d="M615.44,479.56c-4.54,0-7.88-3.88-10.04-11.65.06,1.71.11,2.89.14,3.55.06,3.79.09,5.45.09,4.97,0,2.08-.25,3.13-.75,3.13-.58,0-.87-.93-.87-2.77,0-1.11.06-2.84.17-5.2s.17-5.53.17-9.5c0-4.35-.06-7.72-.17-10.13-.12-2.4-.17-3.65-.17-3.75,0-1.57.26-2.36.78-2.36.56,0,.84,1.15.84,3.44,0,.09-.03.53-.08,1.31-.05.78-.08,1.63-.08,2.54-.05,1.28-.08,2.57-.08,3.85,0,5.87.93,10.63,2.78,14.3,1.85,3.67,4.26,5.5,7.23,5.5,2.78,0,5.01-1.57,6.71-4.72,1.7-3.14,2.55-7.26,2.55-12.35,0-4.62-.64-8-1.91-10.13-1.27-2.13-3.51-3.65-6.71-4.58-3.74-1.02-6.25-2.17-7.52-3.47-1.08-1.11-1.95-2.94-2.6-5.48-.66-2.54-.98-5.29-.98-8.25,0-5.55.93-10.22,2.81-14.01,1.87-3.79,4.21-5.69,7.03-5.69,3.82,0,6.75,3.79,8.79,11.38v-6.66c0-2.68.23-4.02.69-4.02s.69.74.69,2.22c0,.46-.06,1.62-.17,3.47,0,.19-.02.79-.06,1.8-.04,1.02-.06,1.94-.06,2.77l-.06,5.13c0,3.79.02,6.08.06,6.87.04.79.08,1.55.12,2.29v1.25c0,1.57-.25,2.36-.75,2.36-.46,0-.69-.74-.69-2.22v-.28l.15-3.19c.05-1.11.08-1.43.08-.97,0-5.73-.8-10.4-2.41-14.01-1.61-3.61-3.71-5.41-6.3-5.41-2.4,0-4.38,1.5-5.95,4.51-1.57,3.01-2.35,6.87-2.35,11.58s.61,7.79,1.82,9.78c1.21,1.99,3.44,3.4,6.68,4.23,3.43.83,5.98,2.13,7.64,3.88,2.39,2.5,3.59,7.03,3.59,13.6,0,6.2-1.01,11.26-3.03,15.19-2.02,3.93-4.62,5.9-7.82,5.9Z"/>
      <path d="M636.99,414.49c-.04.56-.06,2.08-.06,4.58v29.13c0,9.16.23,15.72.69,19.7.69,5.92,2.28,8.88,4.74,8.88,1.97,0,3.36-1.6,4.17-4.79.81-3.19,1.21-8.62,1.21-16.3v-5.55c0-1.94.26-2.91.78-2.91s.78.97.78,2.91v3.47c0,6.47-.19,11.56-.58,15.26-.73,7.12-2.85,10.68-6.36,10.68-4.63,0-6.94-7.95-6.94-23.86v-36.62c0-2.96-.09-4.79-.26-5.48-.17-.69-.65-1.04-1.42-1.04-.23,0-.81.09-1.74.28l-1.33.28c-.73,0-1.1-.65-1.1-1.94,0-1.11.35-1.67,1.04-1.67.31,0,.77.07,1.39.21.62.14,1.08.21,1.39.21,1.2,0,1.93-.88,2.2-2.64.15-1.02.23-2.82.23-5.41v-.69c0-3.88.05-6.31.14-7.28.1-.97.32-1.46.67-1.46.42,0,.64.74.64,2.22v.28l-.17,6.66c-.12,1.48-.17,3.24-.17,5.27s.57,3.05,1.7,3.05h1.93c.43,0,1.08-.07,1.96-.21.88-.14,1.53-.21,1.96-.21.78,0,1.17.6,1.17,1.8s-.42,1.8-1.27,1.8h-.12l-1.79-.14c-.31,0-.95-.09-1.91-.28-.81-.09-1.45-.14-1.91-.14-1.04,0-1.6.65-1.68,1.94Z"/>
      <path d="M660.59,452.09c0,10.82.15,17.34.46,19.56.31,2.22,1.19,3.33,2.66,3.33h2.72c.85,0,1.27.51,1.27,1.53,0,1.11-.35,1.66-1.04,1.66-.19,0-.27,0-.23,0l-2.02-.42-2.37-.42h-4.4l-2.43.42-2.02.42h-.17c-.73,0-1.1-.51-1.1-1.53,0-1.11.42-1.66,1.27-1.66h2.78c1.46,0,2.35-1.11,2.66-3.33.31-2.22.46-8.74.46-19.56v-21.78c0-6.75,0-9.66,0-8.74-.08-4.81-.37-7.58-.87-8.32-.31-.46-.81-.69-1.5-.69-.23,0-.87.09-1.91.28l-1.56.28h-.17c-.77,0-1.16-.6-1.16-1.8s.33-1.8.98-1.8h.17l1.74.42h2.78c.23,0,.58-.07,1.04-.21.46-.14.81-.21,1.04-.21.62,0,.93,1.06.93,3.19v39.4ZM659.26,388.83c.58,0,1.07.51,1.48,1.53.41,1.02.61,2.22.61,3.61s-.2,2.57-.61,3.54c-.41.97-.88,1.46-1.42,1.46-.62,0-1.13-.49-1.53-1.46-.41-.97-.61-2.15-.61-3.54,0-1.48.2-2.71.61-3.68.41-.97.9-1.46,1.47-1.46Z"/>
      <path d="M683.79,408.11c4.05,0,7.34,3.33,9.86,9.99,2.53,6.66,3.79,15.35,3.79,26.08s-1.26,18.96-3.79,25.53c-2.53,6.57-5.81,9.85-9.86,9.85s-7.15-3.42-9.66-10.27c-2.51-6.84-3.76-15.63-3.76-26.36s1.25-18.63,3.76-25.11c2.51-6.47,5.73-9.71,9.66-9.71ZM683.79,476.78c3.55,0,6.44-2.98,8.68-8.95,2.24-5.97,3.36-13.71,3.36-23.24s-1.11-18.1-3.33-24.35c-2.22-6.24-5.1-9.36-8.65-9.36s-6.41,2.98-8.59,8.95c-2.18,5.96-3.27,13.76-3.27,23.38s1.08,18.2,3.24,24.35c2.16,6.15,5.01,9.23,8.56,9.23Z"/>
      <path d="M710.05,415.19v7.49c1.35-5.83,3.07-9.8,5.15-11.93,1.77-1.76,3.61-2.64,5.5-2.64,2.78,0,5.05,1.46,6.83,4.37,1.77,2.91,2.89,7.01,3.35,12.28.31,3.61.46,9.29.46,17.06v10.27c0,10.82.15,17.34.46,19.56.31,2.22,1.19,3.33,2.66,3.33h2.78c.85,0,1.27.51,1.27,1.53,0,1.11-.37,1.66-1.1,1.66h-.17l-2.02-.42-2.43-.42h-4.4l-2.37.42-2.02.42h-.23c-.69,0-1.04-.51-1.04-1.53,0-1.11.42-1.66,1.27-1.66h2.72c1.5,0,2.4-1.09,2.69-3.26.29-2.17.43-8.72.43-19.63v-10.4c0-11.74-.54-19.42-1.62-23.03-1.54-5.18-4.13-7.77-7.75-7.77-4.44,0-7.54,4.21-9.31,12.62-.73,3.42-1.1,8.93-1.1,16.51v12.07c0,10.82.15,17.34.46,19.56.31,2.22,1.19,3.33,2.66,3.33h2.72c.85,0,1.27.51,1.27,1.53,0,1.11-.35,1.66-1.04,1.66-.19,0-.27,0-.23,0l-2.02-.42-2.37-.42h-4.4l-2.43.42-2.02.42h-.17c-.73,0-1.1-.51-1.1-1.53,0-1.11.42-1.66,1.27-1.66h2.72c1.5,0,2.41-1.11,2.72-3.33.31-2.22.46-8.74.46-19.56v-21.78c0-6.66,0-9.57,0-8.74-.08-4.81-.37-7.58-.87-8.32-.31-.46-.81-.69-1.5-.69-.23,0-.87.09-1.91.28l-1.74.28c-.77,0-1.16-.6-1.16-1.8s.35-1.8,1.04-1.8c.27,0,.87.09,1.79.28.46.09.91.14,1.33.14h1.1c.23,0,.6-.07,1.1-.21.5-.14.87-.21,1.1-.21.54,0,.88.33,1.01.97.13.65.2,2.22.2,4.72Z"/>
      <path d="M753.4,479.56c-4.54,0-7.88-3.88-10.04-11.65.06,1.71.11,2.89.14,3.55.06,3.79.09,5.45.09,4.97,0,2.08-.25,3.13-.75,3.13-.58,0-.87-.93-.87-2.77,0-1.11.06-2.84.17-5.2.12-2.36.17-5.53.17-9.5,0-4.35-.06-7.72-.17-10.13-.12-2.4-.17-3.65-.17-3.75,0-1.57.26-2.36.78-2.36.56,0,.84,1.15.84,3.44,0,.09-.03.53-.08,1.31-.05.78-.08,1.63-.08,2.54-.05,1.28-.08,2.57-.08,3.85,0,5.87.93,10.63,2.78,14.3,1.85,3.67,4.26,5.5,7.23,5.5,2.78,0,5.01-1.57,6.71-4.72,1.7-3.14,2.54-7.26,2.54-12.35,0-4.62-.64-8-1.91-10.13-1.27-2.13-3.51-3.65-6.71-4.58-3.74-1.02-6.25-2.17-7.52-3.47-1.08-1.11-1.95-2.94-2.6-5.48-.66-2.54-.98-5.29-.98-8.25,0-5.55.93-10.22,2.81-14.01,1.87-3.79,4.21-5.69,7.03-5.69,3.82,0,6.75,3.79,8.79,11.38v-6.66c0-2.68.23-4.02.69-4.02s.69.74.69,2.22c0,.46-.06,1.62-.17,3.47,0,.19-.02.79-.06,1.8-.04,1.02-.06,1.94-.06,2.77l-.06,5.13c0,3.79.02,6.08.06,6.87.04.79.08,1.55.12,2.29v1.25c0,1.57-.25,2.36-.75,2.36-.46,0-.69-.74-.69-2.22v-.28l.16-3.19c.05-1.11.08-1.43.08-.97,0-5.73-.8-10.4-2.41-14.01-1.61-3.61-3.71-5.41-6.3-5.41-2.4,0-4.38,1.5-5.95,4.51-1.57,3.01-2.35,6.87-2.35,11.58s.61,7.79,1.82,9.78c1.21,1.99,3.44,3.4,6.68,4.23,3.43.83,5.98,2.13,7.64,3.88,2.39,2.5,3.59,7.03,3.59,13.6,0,6.2-1.01,11.26-3.03,15.19-2.02,3.93-4.62,5.9-7.82,5.9Z"/>
      <path d="M772.35,506.06c-.54,0-.81-.55-.81-1.67,0-.19.1-.65.29-1.39.08-.19.48-1.48,1.21-3.88,1.58-5.18,2.37-10.5,2.37-15.95,0-2.96-.33-4.44-.98-4.44-.31,0-.56.09-.75.28-.46.18-.71.28-.75.28-.62,0-1.16-.6-1.62-1.8s-.69-2.59-.69-4.16c0-1.94.28-3.56.84-4.86.56-1.29,1.24-1.94,2.05-1.94,2.35,0,3.53,4.16,3.53,12.49,0,7.86-1.12,15.72-3.36,23.58-.66,2.31-1.1,3.47-1.33,3.47Z"/>
      <path d="M805.03,390.91v74.5c.04,3.24.2,5.46.47,6.66.39,1.85,1.2,2.77,2.41,2.77.78,0,1.4-.07,1.85-.21s.93-.21,1.44-.21c.82,0,1.23.65,1.23,1.94,0,1.11-.41,1.66-1.21,1.66h-.17l-1.27-.28c-.31,0-.87-.09-1.68-.28l-1.56-.42c-.54-.09-1.04-.14-1.5-.14h-1.62c-.42,0-.89.05-1.39.14l-1.68.42c-.85.18-1.39.28-1.62.28l-1.27.28h-.23c-.81,0-1.21-.55-1.21-1.66,0-1.29.42-1.94,1.25-1.94.49,0,.96.07,1.39.21s1.01.21,1.74.21c1.06,0,1.79-.67,2.19-2.01.4-1.34.62-3.81.66-7.41v-70.09c-.04-2.58-.17-4.38-.4-5.4-.34-1.48-.99-2.22-1.94-2.22-.38,0-.96.09-1.74.28-.78.19-1.36.28-1.74.28h-.11c-.87,0-1.31-.62-1.31-1.87,0-1.34.39-2.01,1.16-2.01.5,0,1.26.09,2.29.28,1.02.19,1.78.28,2.28.28h1.85c.54,0,1.16-.18,1.85-.55.89,0,1.56,1.48,2.03,4.45l12.55,82.67c.15.93.31,1.39.46,1.39s.31-.51.46-1.53l12.78-81.85c.46-3.05,1.1-4.58,1.91-4.58h.23l2.2.28c.73.09,1.25.14,1.56.14.73,0,1.5-.07,2.31-.21s1.46-.21,1.97-.21c.77,0,1.16.58,1.16,1.73,0,1.07-.39,1.6-1.18,1.6-.51,0-1.1-.09-1.76-.28-.67-.18-1.27-.28-1.82-.28-1.76,0-2.64,2.45-2.64,7.35v70.34c.04,3.24.2,5.46.47,6.66.39,1.85,1.21,2.77,2.47,2.77.74,0,1.34-.07,1.79-.21s.93-.21,1.44-.21c.82,0,1.23.65,1.23,1.94,0,1.11-.39,1.66-1.16,1.66-.23,0-.73-.09-1.5-.28-1.93-.46-3.14-.69-3.64-.69-.12,0-.29-.05-.52-.14h-2.2c-.39,0-1.41.19-3.07.55-.81.18-1.35.28-1.62.28l-1.27.28h-.23c-.81,0-1.21-.55-1.21-1.66,0-1.29.42-1.94,1.25-1.94.61,0,1.06.05,1.37.14.57.19,1.16.28,1.77.28,1.18,0,1.95-.92,2.33-2.77.27-1.2.42-3.42.46-6.66v-74.91c0-1.11-.08-1.66-.23-1.66-.12,0-.21.23-.29.69l-.12.55-13.21,83.1c-.46,2.77-1.01,4.16-1.67,4.16-.69,0-1.24-1.39-1.66-4.16l-12.63-82.68c-.19-1.29-.38-1.94-.57-1.94-.27,0-.4.79-.4,2.36Z"/>
      <path d="M874.73,438.5c0,1.94-.18,3.1-.55,3.47-.37.37-.94.55-1.71.55h-20.48c-.54,0-.88.19-1.01.56-.14.37-.2,1.3-.2,2.77,0,9.25,1.05,16.72,3.15,22.4,2.1,5.69,4.85,8.53,8.24,8.53,3.66,0,6.54-3.1,8.62-9.29.81-2.4,1.39-5.04,1.74-7.91,0-.28.1-1.43.29-3.47.15-1.57.44-2.36.87-2.36.46,0,.69.65.69,1.94,0,1.57-.21,3.65-.64,6.24-.93,5.55-2.4,9.87-4.43,12.97-2.02,3.1-4.39,4.65-7.09,4.65-3.93,0-7.1-3.19-9.49-9.57-2.39-6.38-3.59-14.8-3.59-25.25s1.24-19.63,3.73-26.43,5.7-10.2,9.63-10.2c3.43,0,6.32,2.94,8.68,8.81,2.35,5.87,3.53,13.06,3.53,21.57ZM851.01,437.25c0,1.39.42,2.08,1.27,2.08h19.9c.66,0,.98-.74.98-2.22,0-5.92-.85-11.56-2.54-16.92-1.97-6.2-4.71-9.29-8.21-9.29-2.66,0-4.95,1.78-6.85,5.34-1.91,3.56-3.27,8.58-4.08,15.05-.31,2.41-.46,4.39-.46,5.96Z"/>
      <path d="M887.63,413.11v8.32c2-8.88,5.19-13.32,9.54-13.32,3.39,0,5.88,2.22,7.46,6.66.69,1.94,1.33,4.81,1.91,8.6.81-3.88,1.62-6.8,2.43-8.74,1.89-4.35,4.36-6.52,7.4-6.52,2.27,0,4.21,1.13,5.81,3.4,1.6,2.27,2.65,5.39,3.15,9.36.27,2.13.42,4.67.46,7.63.04,2.96.06,6.24.06,9.85v13.73c0,10.73.15,17.23.46,19.49.31,2.27,1.19,3.4,2.66,3.4h2.72c.85,0,1.27.51,1.27,1.53,0,1.11-.35,1.66-1.04,1.66h-.23l-2.03-.42-2.37-.42h-4.45l-2.37.42-2.02.42h-.17c-.73,0-1.1-.51-1.1-1.53,0-1.11.42-1.66,1.27-1.66h2.72c1.5,0,2.41-1.09,2.72-3.26.31-2.17.46-8.72.46-19.63v-14.98c0-7.03-.06-11.45-.17-13.25-.12-1.8-.5-3.77-1.16-5.9-1.43-4.72-3.72-7.08-6.88-7.08-3.51,0-6.07,3.24-7.69,9.71-1,4.07-1.5,10.45-1.5,19.14v12.35c0,10.91.14,17.46.43,19.63.29,2.17,1.21,3.26,2.75,3.26h2.66c.85,0,1.27.51,1.27,1.53,0,1.11-.35,1.66-1.04,1.66h-.23l-1.97-.42-2.37-.42h-4.45l-2.43.42-2.02.42h-.17c-.73,0-1.1-.51-1.1-1.53,0-1.11.42-1.66,1.27-1.66h2.78c1.46,0,2.35-1.11,2.66-3.33.31-2.22.46-8.74.46-19.56v-17.34c0-4.53-.04-7.49-.12-8.88-.19-3.05-.7-5.78-1.51-8.18-1.51-4.53-3.77-6.8-6.75-6.8-3.3,0-5.86,2.87-7.69,8.6-1.17,3.7-1.75,9.16-1.75,16.37v16.23c0,10.82.15,17.34.44,19.56.29,2.22,1.18,3.33,2.67,3.33h2.82c.86,0,1.29.51,1.29,1.53,0,1.11-.37,1.66-1.1,1.66h-.17l-2.02-.42-2.43-.42h-4.34l-2.43.42-2.02.42h-.17c-.73,0-1.1-.51-1.1-1.53,0-1.11.42-1.66,1.27-1.66h2.72c1.5,0,2.41-1.11,2.72-3.33.31-2.22.46-8.74.46-19.56v-21.78c0-6.84,0-9.76,0-8.74-.08-4.81-.39-7.58-.93-8.32-.27-.46-.75-.69-1.45-.69-.23,0-.87.09-1.91.28l-1.56.28h-.17c-.77,0-1.16-.6-1.16-1.8s.33-1.8.98-1.8h.17l1.68.42h2.6c.23,0,.6-.07,1.1-.21.5-.14.87-.21,1.1-.21.62,0,.92,1.2.92,3.61Z"/>
      <path d="M948.89,408.11c4.05,0,7.34,3.33,9.86,9.99,2.53,6.66,3.79,15.35,3.79,26.08s-1.26,18.96-3.79,25.53c-2.53,6.57-5.81,9.85-9.86,9.85s-7.15-3.42-9.66-10.27c-2.51-6.84-3.76-15.63-3.76-26.36s1.25-18.63,3.76-25.11c2.51-6.47,5.73-9.71,9.66-9.71ZM948.89,476.78c3.55,0,6.44-2.98,8.68-8.95,2.24-5.97,3.36-13.71,3.36-23.24s-1.11-18.1-3.33-24.35c-2.22-6.24-5.1-9.36-8.65-9.36s-6.41,2.98-8.59,8.95c-2.18,5.96-3.27,13.76-3.27,23.38s1.08,18.2,3.24,24.35c2.16,6.15,5.01,9.23,8.56,9.23Z"/>
      <path d="M975.15,421.43c2.12-8.88,5.15-13.32,9.08-13.32,2.31,0,4.21,1.55,5.7,4.65,1.48,3.1,2.23,7.1,2.23,12,0,3.24-.34,5.94-1.01,8.12-.67,2.17-1.53,3.26-2.57,3.26-1.39,0-2.08-1.53-2.08-4.58,0-2.77.58-4.16,1.74-4.16.31,0,.62.28.92.83.31.56.52.83.64.83.5,0,.75-1.67.75-4.99,0-3.88-.6-7.05-1.79-9.5-1.2-2.45-2.76-3.68-4.69-3.68-3.32,0-5.73,2.96-7.23,8.88-1.12,4.44-1.68,11.28-1.68,20.53v11.79c0,10.82.15,17.34.46,19.56.31,2.22,1.19,3.33,2.66,3.33h2.72c.85,0,1.27.51,1.27,1.53,0,1.11-.37,1.66-1.1,1.66h-.17l-2.02-.42-2.37-.42h-4.45l-2.37.42-2.02.42h-.17c-.73,0-1.1-.51-1.1-1.53,0-1.11.42-1.66,1.27-1.66h2.72c1.5,0,2.41-1.11,2.72-3.33.31-2.22.46-8.74.46-19.56v-21.78c0-6.66,0-9.57,0-8.74-.08-4.81-.37-7.58-.87-8.32-.31-.46-.81-.69-1.5-.69-.23,0-.87.09-1.91.28l-1.74.28c-.77,0-1.16-.6-1.16-1.8s.33-1.8.98-1.8c.35,0,.96.09,1.85.28.42.09.87.14,1.33.14h.87c.42,0,1.04-.1,1.85-.31.08,0,.17-.04.29-.1h.29c.81,0,1.21,1.01,1.21,3.02v8.91Z"/>
      <path d="M1003.61,452.09c0,10.82.15,17.34.46,19.56.31,2.22,1.19,3.33,2.66,3.33h2.72c.85,0,1.27.51,1.27,1.53,0,1.11-.35,1.66-1.04,1.66-.19,0-.27,0-.23,0l-2.02-.42-2.37-.42h-4.4l-2.43.42-2.02.42h-.17c-.73,0-1.1-.51-1.1-1.53,0-1.11.42-1.66,1.27-1.66h2.78c1.46,0,2.35-1.11,2.66-3.33.31-2.22.46-8.74.46-19.56v-21.78c0-6.75,0-9.66,0-8.74-.08-4.81-.37-7.58-.87-8.32-.31-.46-.81-.69-1.5-.69-.23,0-.87.09-1.91.28l-1.56.28h-.17c-.77,0-1.16-.6-1.16-1.8s.33-1.8.98-1.8h.17l1.74.42h2.78c.23,0,.58-.07,1.04-.21.46-.14.81-.21,1.04-.21.62,0,.93,1.06.93,3.19v39.4ZM1002.28,388.83c.58,0,1.07.51,1.48,1.53.41,1.02.61,2.22.61,3.61s-.2,2.57-.61,3.54c-.41.97-.88,1.46-1.42,1.46-.62,0-1.13-.49-1.53-1.46-.41-.97-.61-2.15-.61-3.54,0-1.48.2-2.71.61-3.68.41-.97.9-1.46,1.47-1.46Z"/>
      <path d="M1039.01,438.5c0,1.94-.18,3.1-.55,3.47-.37.37-.94.55-1.71.55h-20.48c-.54,0-.88.19-1.01.56-.14.37-.2,1.3-.2,2.77,0,9.25,1.05,16.72,3.15,22.4,2.1,5.69,4.85,8.53,8.24,8.53,3.66,0,6.54-3.1,8.62-9.29.81-2.4,1.39-5.04,1.74-7.91,0-.28.1-1.43.29-3.47.15-1.57.44-2.36.87-2.36.46,0,.69.65.69,1.94,0,1.57-.21,3.65-.64,6.24-.93,5.55-2.4,9.87-4.43,12.97-2.02,3.1-4.39,4.65-7.09,4.65-3.93,0-7.1-3.19-9.49-9.57-2.39-6.38-3.59-14.8-3.59-25.25s1.24-19.63,3.73-26.43,5.7-10.2,9.63-10.2c3.43,0,6.32,2.94,8.68,8.81,2.35,5.87,3.53,13.06,3.53,21.57ZM1015.29,437.25c0,1.39.42,2.08,1.27,2.08h19.9c.66,0,.98-.74.98-2.22,0-5.92-.85-11.56-2.54-16.92-1.97-6.2-4.71-9.29-8.21-9.29-2.66,0-4.95,1.78-6.85,5.34-1.91,3.56-3.27,8.58-4.08,15.05-.31,2.41-.46,4.39-.46,5.96Z"/>
      <path d="M1056.39,479.56c-4.54,0-7.88-3.88-10.04-11.65.06,1.71.11,2.89.14,3.55.06,3.79.09,5.45.09,4.97,0,2.08-.25,3.13-.75,3.13-.58,0-.87-.93-.87-2.77,0-1.11.06-2.84.17-5.2.12-2.36.17-5.53.17-9.5,0-4.35-.06-7.72-.17-10.13-.12-2.4-.17-3.65-.17-3.75,0-1.57.26-2.36.78-2.36.56,0,.84,1.15.84,3.44,0,.09-.03.53-.08,1.31-.05.78-.08,1.63-.08,2.54-.05,1.28-.08,2.57-.08,3.85,0,5.87.93,10.63,2.78,14.3,1.85,3.67,4.26,5.5,7.23,5.5,2.78,0,5.01-1.57,6.71-4.72,1.7-3.14,2.54-7.26,2.54-12.35,0-4.62-.64-8-1.91-10.13-1.27-2.13-3.51-3.65-6.71-4.58-3.74-1.02-6.25-2.17-7.52-3.47-1.08-1.11-1.95-2.94-2.6-5.48-.66-2.54-.98-5.29-.98-8.25,0-5.55.93-10.22,2.81-14.01,1.87-3.79,4.21-5.69,7.03-5.69,3.82,0,6.75,3.79,8.79,11.38v-6.66c0-2.68.23-4.02.69-4.02s.69.74.69,2.22c0,.46-.06,1.62-.17,3.47,0,.19-.02.79-.06,1.8-.04,1.02-.06,1.94-.06,2.77l-.06,5.13c0,3.79.02,6.08.06,6.87.04.79.08,1.55.12,2.29v1.25c0,1.57-.25,2.36-.75,2.36-.46,0-.69-.74-.69-2.22v-.28l.16-3.19c.05-1.11.08-1.43.08-.97,0-5.73-.8-10.4-2.41-14.01-1.61-3.61-3.71-5.41-6.3-5.41-2.4,0-4.38,1.5-5.95,4.51-1.57,3.01-2.35,6.87-2.35,11.58s.61,7.79,1.82,9.78c1.21,1.99,3.44,3.4,6.68,4.23,3.43.83,5.98,2.13,7.64,3.88,2.39,2.5,3.59,7.03,3.59,13.6,0,6.2-1.01,11.26-3.03,15.19-2.02,3.93-4.62,5.9-7.82,5.9Z"/>
      <path d="M1075.34,506.06c-.54,0-.81-.55-.81-1.67,0-.19.1-.65.29-1.39.08-.19.48-1.48,1.21-3.88,1.58-5.18,2.37-10.5,2.37-15.95,0-2.96-.33-4.44-.98-4.44-.31,0-.56.09-.75.28-.46.18-.71.28-.75.28-.62,0-1.16-.6-1.62-1.8s-.69-2.59-.69-4.16c0-1.94.28-3.56.84-4.86.56-1.29,1.24-1.94,2.05-1.94,2.35,0,3.53,4.16,3.53,12.49,0,7.86-1.12,15.72-3.36,23.58-.66,2.31-1.1,3.47-1.33,3.47Z"/>
      <path d="M1119.94,464.85l-.06-1.11-.23.97c-.5,2.04-1.21,4.16-2.13,6.38-2.38,5.64-5.35,8.46-8.88,8.46-2.77,0-5.02-1.76-6.75-5.27-1.73-3.51-2.6-8.09-2.6-13.73,0-4.72.62-8.79,1.86-12.21,1.24-3.42,2.89-5.64,4.95-6.66,1.4-.65,3.04-1.11,4.94-1.39,3.14-.46,5.41-1.78,6.81-3.95,1.4-2.17,2.09-5.53,2.09-10.06s-.76-8.34-2.27-11.17c-1.51-2.82-3.51-4.23-6-4.23s-4.75,1.34-6.44,4.02c-1.69,2.68-2.53,6.06-2.53,10.13,0,1.48.17,2.22.52,2.22.08,0,.19-.18.35-.55,0-.09.04-.37.12-.83.27-1.57.79-2.36,1.56-2.36,1.16,0,1.74,1.48,1.74,4.44,0,1.57-.26,2.94-.78,4.09-.52,1.16-1.15,1.73-1.88,1.73-.89,0-1.65-.81-2.29-2.43-.64-1.62-.95-3.54-.95-5.76,0-4.99.99-9.16,2.98-12.49s4.46-4.99,7.43-4.99,5.38,1.71,7.12,5.13c1.89,3.79,2.83,9.71,2.83,17.76v34.54c.12,7.49,1.14,11.24,3.06,11.24,2.12,0,3.18-3.42,3.18-10.27v-6.8c-.04-2.68.21-4.02.75-4.02.46,0,.7.93.7,2.77v5.55c-.12,10.36-1.68,15.54-4.69,15.54-2.81,0-4.32-4.07-4.51-12.21v-2.5ZM1108.89,476.78c3.08,0,5.7-2.59,7.84-7.77,2.14-5.18,3.21-11.42,3.21-18.73v-13.46c0-.92-.08-1.39-.23-1.39-.04,0-.25.56-.64,1.67-1.23,3.61-3.97,5.74-8.21,6.38-2.47.37-4.31,1.06-5.52,2.08-1.21,1.02-2.23,2.73-3.04,5.13-.93,2.68-1.39,6.01-1.39,9.99,0,4.63.75,8.46,2.26,11.51,1.5,3.05,3.41,4.58,5.73,4.58Z"/>
      <path d="M1139.14,415.19v7.49c1.35-5.83,3.07-9.8,5.15-11.93,1.77-1.76,3.61-2.64,5.5-2.64,2.78,0,5.05,1.46,6.83,4.37,1.77,2.91,2.89,7.01,3.35,12.28.31,3.61.46,9.29.46,17.06v10.27c0,10.82.15,17.34.46,19.56.31,2.22,1.19,3.33,2.66,3.33h2.78c.85,0,1.27.51,1.27,1.53,0,1.11-.37,1.66-1.1,1.66h-.17l-2.02-.42-2.43-.42h-4.4l-2.37.42-2.02.42h-.23c-.69,0-1.04-.51-1.04-1.53,0-1.11.42-1.66,1.27-1.66h2.72c1.5,0,2.4-1.09,2.69-3.26.29-2.17.43-8.72.43-19.63v-10.4c0-11.74-.54-19.42-1.62-23.03-1.54-5.18-4.13-7.77-7.75-7.77-4.44,0-7.54,4.21-9.31,12.62-.73,3.42-1.1,8.93-1.1,16.51v12.07c0,10.82.15,17.34.46,19.56.31,2.22,1.19,3.33,2.66,3.33h2.72c.85,0,1.27.51,1.27,1.53,0,1.11-.35,1.66-1.04,1.66-.19,0-.27,0-.23,0l-2.02-.42-2.37-.42h-4.4l-2.43.42-2.02.42h-.17c-.73,0-1.1-.51-1.1-1.53,0-1.11.42-1.66,1.27-1.66h2.72c1.5,0,2.41-1.11,2.72-3.33.31-2.22.46-8.74.46-19.56v-21.78c0-6.66,0-9.57,0-8.74-.08-4.81-.37-7.58-.87-8.32-.31-.46-.81-.69-1.5-.69-.23,0-.87.09-1.91.28l-1.74.28c-.77,0-1.16-.6-1.16-1.8s.35-1.8,1.04-1.8c.27,0,.87.09,1.79.28.46.09.91.14,1.33.14h1.1c.23,0,.6-.07,1.1-.21.5-.14.87-.21,1.1-.21.54,0,.88.33,1.01.97.13.65.2,2.22.2,4.72Z"/>
      <path d="M1192.53,471.1v-5.55c-2.33,9.34-5.62,14.01-9.88,14.01-3.72,0-6.76-3.24-9.1-9.71-2.34-6.47-3.52-14.84-3.52-25.11s1.25-19.28,3.75-26.22,5.65-10.4,9.45-10.4c4.42,0,7.52,4.58,9.3,13.73v-18.17c0-9.25-.14-14.52-.41-15.82-.27-1.29-.92-1.94-1.94-1.94-.43,0-1.1.09-2,.28-.9.19-1.49.28-1.76.28-.75,0-1.12-.56-1.12-1.67s.33-1.67.99-1.67h6.46c.43,0,.73.19.9.56.17.37.26,1.3.26,2.79v71.07c0,9.38.13,14.7.4,15.96.27,1.26.91,1.88,1.91,1.88.27,0,.91-.18,1.91-.55,1-.37,1.58-.55,1.74-.55.77,0,1.16.6,1.16,1.8s-.32,1.8-.97,1.8h-6.39c-.42,0-.71-.39-.88-1.18-.17-.79-.26-2.66-.26-5.62ZM1192.53,445.85v-1.8c0-10.73-.52-18.36-1.56-22.89-1.58-6.84-4.22-10.27-7.92-10.27-3.28,0-6,3.21-8.16,9.64-2.16,6.43-3.24,14.54-3.24,24.35s1.03,16.99,3.09,22.96c2.06,5.96,4.73,8.95,8.01,8.95,2.78,0,5.09-2.4,6.94-7.21,1.08-2.87,1.82-5.97,2.23-9.29.41-3.33.61-8.14.61-14.43Z"/>
    </g>
    <g class="cls-14">
      <path d="M501.55,631.46l.7-4.86,10.69-70.89c.47-3.14.99-4.72,1.56-4.72.61,0,1.11,1.34,1.5,4.02l7.95,56.6c1.93,13.78,3.26,22.34,3.98,25.67.5,2.41,1.25,3.61,2.26,3.61.25,0,.61-.05,1.08-.14.46-.09.82-.14,1.07-.14.82,0,1.24.55,1.24,1.66,0,.65-.12,1.16-.35,1.53-.23.37-.51.55-.83.55-.47,0-1.06-.14-1.77-.42-1.18-.46-2.51-.69-3.98-.69s-2.54.14-3.33.42l-2.36.69h-.27c-.97,0-1.45-.62-1.45-1.88,0-1.34.45-2.01,1.34-2.01.04,0,.54.09,1.5.28.97.19,1.5.28,1.61.28,1.4,0,2.1-1.39,2.1-4.16,0-1.29-.16-3.1-.48-5.41l-1.02-7.21-1.83-12.35c-.07-.56-.21-1.25-.43-2.08-.11-.18-.39-.28-.86-.28h-13.86c-.47,0-.76.09-.89.28-.13.19-.28.88-.46,2.08l-2.9,19.28c-.11.83-.25,1.8-.43,2.91-.14.74-.21,1.62-.21,2.64,0,2.77.91,4.16,2.74,4.16.32,0,.86-.05,1.61-.14.21-.09.57-.14,1.07-.14h.05c.82,0,1.24.6,1.24,1.8,0,1.3-.38,1.95-1.13,1.95-.14,0-.94-.19-2.39-.55-1.45-.37-3-.55-4.65-.55-1.4,0-2.6.19-3.6.55-1,.37-1.65.55-1.93.55-.72,0-1.07-.65-1.07-1.94s.38-1.94,1.13-1.94c.25,0,.61.07,1.07.21.47.14.82.21,1.08.21,1.72,0,3.03-3.14,3.92-9.43ZM521.22,603.02l-6.77-47.45-7.15,47.45c-.14.93-.21,1.62-.21,2.08,0,1.11.39,1.66,1.18,1.66h11.98c.79,0,1.18-.55,1.18-1.66,0-.37-.07-1.06-.21-2.08Z"/>
      <path d="M543.14,581.65v7.49c1.25-5.83,2.85-9.8,4.78-11.93,1.65-1.76,3.35-2.64,5.1-2.64,2.58,0,4.69,1.46,6.34,4.37,1.65,2.91,2.69,7.01,3.12,12.28.29,3.61.43,9.29.43,17.06v10.27c0,10.82.14,17.34.43,19.56.29,2.22,1.11,3.33,2.47,3.33h2.58c.79,0,1.18.51,1.18,1.53,0,1.11-.34,1.66-1.02,1.66h-.16l-1.88-.42-2.26-.42h-4.08l-2.2.42-1.88.42h-.21c-.65,0-.97-.51-.97-1.53,0-1.11.39-1.66,1.18-1.66h2.53c1.4,0,2.23-1.09,2.5-3.26.27-2.17.4-8.72.4-19.63v-10.4c0-11.74-.5-19.42-1.5-23.03-1.43-5.18-3.83-7.77-7.2-7.77-4.12,0-7,4.21-8.65,12.62-.68,3.42-1.02,8.93-1.02,16.51v12.07c0,10.82.14,17.34.43,19.56.29,2.22,1.11,3.33,2.47,3.33h2.53c.79,0,1.18.51,1.18,1.53,0,1.11-.32,1.66-.97,1.66-.18,0-.25,0-.21,0l-1.88-.42-2.2-.42h-4.08l-2.26.42-1.88.42h-.16c-.68,0-1.02-.51-1.02-1.53,0-1.11.39-1.66,1.18-1.66h2.53c1.4,0,2.24-1.11,2.53-3.33.29-2.22.43-8.74.43-19.56v-21.78c0-6.66,0-9.57,0-8.74-.07-4.81-.34-7.58-.81-8.32-.29-.46-.75-.69-1.4-.69-.22,0-.81.09-1.77.28l-1.61.28c-.72,0-1.07-.6-1.07-1.8s.32-1.8.97-1.8c.25,0,.81.09,1.67.28.43.09.84.14,1.24.14h1.02c.21,0,.56-.07,1.02-.21.47-.14.81-.21,1.02-.21.5,0,.81.33.94.97.13.65.19,2.22.19,4.72Z"/>
      <path d="M601.07,548.78c4.66,0,8.44,4.51,11.34,13.53,2.9,9.02,4.35,20.83,4.35,35.45s-1.4,26.29-4.19,35.31c-2.79,9.02-6.45,13.53-10.96,13.53-4.77,0-8.59-4.46-11.47-13.39-2.88-8.92-4.33-20.69-4.33-35.31s1.42-26.33,4.25-35.45c2.83-9.11,6.5-13.67,11.02-13.67ZM601.29,643.53c4.16,0,7.5-4.18,10.02-12.55,2.53-8.37,3.79-19.4,3.79-33.09s-1.32-24.53-3.95-33.09c-2.63-8.55-6.03-12.83-10.18-12.83s-7.27,4.23-9.78,12.69c-2.51,8.46-3.76,19.4-3.76,32.81s1.26,25.13,3.79,33.5c2.53,8.37,5.88,12.55,10.08,12.55Z"/>
      <path d="M642.35,637.56v-5.55c-2.16,9.34-5.22,14.01-9.18,14.01-3.46,0-6.28-3.24-8.45-9.71-2.18-6.47-3.27-14.84-3.27-25.11s1.16-19.28,3.48-26.22c2.32-6.94,5.25-10.4,8.78-10.4,4.11,0,6.99,4.58,8.64,13.73v-18.17c0-9.25-.13-14.52-.38-15.82-.26-1.29-.86-1.94-1.8-1.94-.4,0-1.02.09-1.86.28-.84.19-1.38.28-1.64.28-.69,0-1.04-.56-1.04-1.67s.31-1.67.92-1.67h6.01c.4,0,.68.19.84.56.16.37.24,1.3.24,2.79v71.07c0,9.38.12,14.7.38,15.96.25,1.26.84,1.88,1.77,1.88.25,0,.84-.18,1.77-.55.93-.37,1.47-.55,1.61-.55.72,0,1.07.6,1.07,1.8s-.3,1.8-.9,1.8h-5.94c-.39,0-.66-.39-.82-1.18-.16-.79-.24-2.66-.24-5.62ZM642.35,612.31v-1.8c0-10.73-.48-18.36-1.45-22.89-1.47-6.84-3.92-10.27-7.36-10.27-3.04,0-5.57,3.21-7.58,9.64-2.01,6.43-3.01,14.54-3.01,24.35s.96,16.99,2.88,22.96c1.92,5.96,4.4,8.95,7.44,8.95,2.58,0,4.73-2.4,6.45-7.21,1-2.87,1.69-5.97,2.07-9.29.38-3.33.56-8.14.56-14.43Z"/>
      <path d="M673.62,637.56v-5.55c-2.16,9.34-5.22,14.01-9.18,14.01-3.46,0-6.28-3.24-8.45-9.71-2.18-6.47-3.27-14.84-3.27-25.11s1.16-19.28,3.48-26.22c2.32-6.94,5.25-10.4,8.78-10.4,4.11,0,6.99,4.58,8.64,13.73v-18.17c0-9.25-.13-14.52-.38-15.82-.26-1.29-.86-1.94-1.8-1.94-.4,0-1.02.09-1.86.28-.84.19-1.38.28-1.64.28-.69,0-1.04-.56-1.04-1.67s.31-1.67.92-1.67h6.01c.4,0,.68.19.84.56.16.37.24,1.3.24,2.79v71.07c0,9.38.12,14.7.38,15.96.25,1.26.84,1.88,1.77,1.88.25,0,.84-.18,1.77-.55.93-.37,1.47-.55,1.61-.55.72,0,1.08.6,1.08,1.8s-.3,1.8-.9,1.8h-5.94c-.39,0-.66-.39-.82-1.18-.16-.79-.24-2.66-.24-5.62ZM673.62,612.31v-1.8c0-10.73-.48-18.36-1.45-22.89-1.47-6.84-3.92-10.27-7.36-10.27-3.05,0-5.57,3.21-7.58,9.64-2.01,6.43-3.01,14.54-3.01,24.35s.96,16.99,2.88,22.96c1.92,5.96,4.4,8.95,7.44,8.95,2.58,0,4.73-2.4,6.45-7.21,1-2.87,1.69-5.97,2.07-9.29.38-3.33.56-8.14.56-14.43Z"/>
      <path d="M726.09,639.24l-20.12-82.83c-.14-.55-.25-.83-.32-.83-.11,0-.16.46-.16,1.39v74.78c.04,3.61.24,6.08.62,7.42.38,1.34,1.05,2.01,2.02,2.01.29,0,.84-.09,1.67-.28.43-.09.88-.14,1.34-.14.75,0,1.13.6,1.13,1.8s-.38,1.8-1.14,1.8h-.7c-.25-.09-.47-.14-.65-.14-.43-.09-.96-.23-1.57-.42-1.12-.28-1.73-.42-1.84-.42h-3.52c-.07,0-.69.14-1.84.42-.25,0-.78.14-1.57.42-.18,0-.4.05-.65.14h-.76c-.76,0-1.14-.55-1.14-1.67,0-1.29.4-1.94,1.2-1.94.47,0,.93.05,1.37.14.84.19,1.4.28,1.69.28,1.09,0,1.84-.92,2.24-2.77.22-1.2.35-3.42.38-6.66v-66.59c-.04-4.44-.13-7.17-.27-8.19-.32-1.85-1.15-2.77-2.47-2.77-.54,0-1.02.03-1.45.09-.86.12-1.33.18-1.4.18h-.16c-.75,0-1.13-.53-1.13-1.6,0-1.34.38-2,1.13-2,.29,0,.75.14,1.4.42,1.62.28,2.57.42,2.86.42h1.35c.75-.55,1.26-.83,1.51-.83.68,0,1.24.98,1.67,2.92l.54,2.37,20.01,81.41c.11.65.25.97.43.97.14,0,.22-.51.22-1.53v-73.39c-.04-3.24-.18-5.46-.44-6.66-.36-1.85-1.11-2.77-2.24-2.77-.29,0-.86.05-1.69.14-.84.09-1.29.14-1.36.14-.76,0-1.15-.65-1.15-1.94,0-1.11.38-1.67,1.13-1.67h.16l1.24.18c.25.12.75.3,1.5.54,1.08.36,2.02.54,2.85.54h1.5c.86,0,1.81-.18,2.85-.54.43-.12.95-.3,1.56-.54l1.34-.18c.75,0,1.13.55,1.13,1.67,0,1.3-.38,1.94-1.13,1.94-.07,0-.52-.04-1.34-.14-.82-.09-1.38-.14-1.67-.14-1.11,0-1.85.92-2.2,2.77-.25,1.2-.39,3.42-.43,6.65l-.11,10.25v63.58c0,3.33-.14,5.4-.43,6.23-.18.46-.46.69-.86.69-.61,0-1.32-1.71-2.14-5.12Z"/>
      <path d="M761.54,636.79v-5.33c-.64,3.24-1.38,5.83-2.2,7.77-1.93,4.53-4.37,6.8-7.31,6.8-3.51,0-6.09-2.54-7.74-7.63-.9-2.78-1.49-6.15-1.77-10.13-.14-2.31-.21-6.1-.21-11.38v-20.25c0-8.32-.11-13.36-.33-15.12-.22-1.76-.85-2.64-1.9-2.64-.51,0-1.08.09-1.73.28-.94.28-1.46.42-1.57.42-.69,0-1.03-.65-1.03-1.94,0-1.11.27-1.67.81-1.67h.16l1.5.42h3.12l.54-.14.86-.28c.64,0,.97,1.71.97,5.13v36.21c0,4.9.09,8.46.27,10.68.25,3.7.84,6.8,1.77,9.29,1.47,3.98,3.58,5.97,6.34,5.97,3.65,0,6.25-3.28,7.79-9.85,1.11-4.72,1.67-11.75,1.67-21.09v-15.68c0-9.34-.14-14.64-.41-15.88-.27-1.25-.87-1.87-1.78-1.87-.55,0-1.15.09-1.8.28l-1.58.42c-.69,0-1.04-.6-1.04-1.8s.29-1.8.86-1.8h.16l1.45.42h2.69c.54,0,.91-.07,1.13-.21.21-.14.45-.21.7-.21.68,0,1.02,1.85,1.02,5.55v42.31c0,9.34.12,14.64.38,15.88.25,1.25.84,1.87,1.77,1.87.11,0,.68-.05,1.72-.14.72-.37,1.27-.55,1.67-.55.68,0,1.02.6,1.02,1.8s-.32,1.8-.97,1.8h-.11l-1.56-.28-1.24-.14h-.65c-.11,0-.29.14-.54.42h-1.56c-.54,0-.9-.4-1.08-1.19-.18-.79-.27-2.36-.27-4.7v-1.82Z"/>
      <path d="M779.38,579.57v8.32c1.86-8.88,4.82-13.32,8.87-13.32,3.15,0,5.46,2.22,6.93,6.66.64,1.94,1.24,4.81,1.77,8.6.75-3.88,1.5-6.8,2.26-8.74,1.75-4.35,4.05-6.52,6.88-6.52,2.11,0,3.91,1.13,5.4,3.4,1.49,2.27,2.46,5.39,2.93,9.36.25,2.13.39,4.67.43,7.63.04,2.96.05,6.24.05,9.85v13.73c0,10.73.14,17.23.43,19.49.29,2.27,1.11,3.4,2.47,3.4h2.53c.79,0,1.18.51,1.18,1.53,0,1.11-.32,1.66-.97,1.66h-.21l-1.88-.42-2.2-.42h-4.14l-2.2.42-1.88.42h-.16c-.68,0-1.02-.51-1.02-1.53,0-1.11.39-1.66,1.18-1.66h2.53c1.4,0,2.24-1.09,2.53-3.26.29-2.17.43-8.72.43-19.63v-14.98c0-7.03-.05-11.45-.16-13.25-.11-1.8-.47-3.77-1.08-5.9-1.33-4.72-3.46-7.08-6.39-7.08-3.26,0-5.64,3.24-7.15,9.71-.93,4.07-1.4,10.45-1.4,19.14v12.35c0,10.91.13,17.46.4,19.63.27,2.17,1.12,3.26,2.55,3.26h2.47c.79,0,1.18.51,1.18,1.53,0,1.11-.32,1.66-.97,1.66h-.21l-1.83-.42-2.2-.42h-4.14l-2.26.42-1.88.42h-.16c-.68,0-1.02-.51-1.02-1.53,0-1.11.39-1.66,1.18-1.66h2.58c1.36,0,2.18-1.11,2.47-3.33.29-2.22.43-8.74.43-19.56v-17.34c0-4.53-.04-7.49-.11-8.88-.18-3.05-.65-5.78-1.41-8.18-1.41-4.53-3.5-6.8-6.27-6.8-3.07,0-5.45,2.87-7.14,8.6-1.08,3.7-1.62,9.16-1.62,16.37v16.23c0,10.82.14,17.34.41,19.56.27,2.22,1.1,3.33,2.48,3.33h2.62c.8,0,1.2.51,1.2,1.53,0,1.11-.34,1.66-1.02,1.66h-.16l-1.88-.42-2.26-.42h-4.03l-2.26.42-1.88.42h-.16c-.68,0-1.02-.51-1.02-1.53,0-1.11.39-1.66,1.18-1.66h2.53c1.4,0,2.24-1.11,2.53-3.33.29-2.22.43-8.74.43-19.56v-21.78c0-6.84,0-9.76,0-8.74-.07-4.81-.36-7.58-.86-8.32-.25-.46-.7-.69-1.34-.69-.21,0-.81.09-1.77.28l-1.45.28h-.16c-.72,0-1.07-.6-1.07-1.8s.3-1.8.91-1.8h.16l1.56.42h2.42c.21,0,.55-.07,1.02-.21.47-.14.81-.21,1.02-.21.57,0,.86,1.2.86,3.61Z"/>
      <path d="M828.88,554.74v36.62c.82-4.44,1.77-7.86,2.85-10.27,1.93-4.35,4.25-6.52,6.93-6.52,3.4,0,6.14,3.26,8.22,9.78,2.08,6.52,3.12,15.15,3.12,25.87s-1.05,19.72-3.14,26.15c-2.1,6.43-4.97,9.64-8.62,9.64-4.23,0-7.34-5.13-9.35-15.4,0,3.42.02,5.64.05,6.66.07,1.94.11,3.47.11,4.58,0,2.04-.29,3.05-.86,3.05s-.86-.88-.86-2.64l.16-17.95v-54.41c0-10.2-.2-15.77-.59-16.7-.29-.65-.83-.97-1.61-.97-.54,0-1.13.09-1.77.28-.93.28-1.47.42-1.61.42-.68,0-1.02-.56-1.02-1.67s.29-1.67.86-1.67h5.91c.57,0,.95.51,1.13,1.53.07.55.11,1.76.11,3.61ZM838.2,643.25c3.22,0,5.73-2.89,7.56-8.67,1.82-5.78,2.73-13.71,2.73-23.79s-.88-18.52-2.63-24.49c-1.75-5.97-4.16-8.95-7.23-8.95-2.86,0-5.18,2.59-6.97,7.77-1.04,3.05-1.76,6.45-2.17,10.2-.41,3.75-.62,9-.62,15.75,0,10.36.73,18.08,2.2,23.17,1.75,6.01,4.13,9.02,7.13,9.02Z"/>
      <path d="M877.94,604.96c0,1.94-.17,3.1-.51,3.47-.34.37-.87.55-1.58.55h-19.02c-.5,0-.82.19-.94.56-.13.37-.19,1.3-.19,2.77,0,9.25.98,16.72,2.93,22.4,1.95,5.69,4.5,8.53,7.66,8.53,3.4,0,6.07-3.1,8.01-9.29.75-2.4,1.29-5.04,1.61-7.91,0-.28.09-1.43.27-3.47.14-1.57.41-2.36.81-2.36.43,0,.64.65.64,1.94,0,1.57-.2,3.65-.59,6.24-.86,5.55-2.23,9.87-4.11,12.97s-4.08,4.65-6.58,4.65c-3.65,0-6.59-3.19-8.81-9.57-2.22-6.38-3.33-14.8-3.33-25.25s1.16-19.63,3.47-26.43c2.31-6.8,5.29-10.2,8.95-10.2,3.19,0,5.88,2.94,8.06,8.81,2.19,5.87,3.28,13.06,3.28,21.57ZM855.91,603.71c0,1.39.39,2.08,1.18,2.08h18.49c.61,0,.91-.74.91-2.22,0-5.92-.79-11.56-2.36-16.92-1.83-6.2-4.37-9.29-7.63-9.29-2.47,0-4.59,1.78-6.37,5.34-1.77,3.56-3.04,8.58-3.79,15.05-.29,2.41-.43,4.39-.43,5.96Z"/>
      <path d="M890.03,587.9c1.97-8.88,4.78-13.32,8.44-13.32,2.15,0,3.91,1.55,5.29,4.65,1.38,3.1,2.07,7.1,2.07,12,0,3.24-.31,5.94-.94,8.12-.63,2.17-1.42,3.26-2.39,3.26-1.29,0-1.93-1.53-1.93-4.58,0-2.77.54-4.16,1.61-4.16.29,0,.57.28.86.83.29.56.48.83.59.83.46,0,.7-1.67.7-4.99,0-3.88-.56-7.05-1.67-9.5-1.11-2.45-2.56-3.68-4.35-3.68-3.08,0-5.32,2.96-6.72,8.88-1.04,4.44-1.56,11.28-1.56,20.53v11.79c0,10.82.14,17.34.43,19.56.29,2.22,1.11,3.33,2.47,3.33h2.53c.79,0,1.18.51,1.18,1.53,0,1.11-.34,1.66-1.02,1.66h-.16l-1.88-.42-2.2-.42h-4.14l-2.2.42-1.88.42h-.16c-.68,0-1.02-.51-1.02-1.53,0-1.11.39-1.66,1.18-1.66h2.53c1.4,0,2.24-1.11,2.53-3.33.29-2.22.43-8.74.43-19.56v-21.78c0-6.66,0-9.57,0-8.74-.07-4.81-.34-7.58-.81-8.32-.29-.46-.75-.69-1.4-.69-.21,0-.81.09-1.77.28l-1.61.28c-.72,0-1.07-.6-1.07-1.8s.3-1.8.91-1.8c.32,0,.9.09,1.72.28.39.09.81.14,1.24.14h.81c.39,0,.97-.1,1.72-.31.07,0,.16-.04.27-.1h.27c.75,0,1.13,1.01,1.13,3.02v8.91Z"/>
      <path d="M934.85,574.58c3.76,0,6.82,3.33,9.16,9.99,2.35,6.66,3.52,15.35,3.52,26.08s-1.17,18.96-3.52,25.53c-2.35,6.57-5.4,9.85-9.16,9.85s-6.65-3.42-8.97-10.27c-2.33-6.84-3.49-15.63-3.49-26.36s1.16-18.63,3.49-25.11c2.33-6.47,5.32-9.71,8.97-9.71ZM934.85,643.25c3.3,0,5.98-2.98,8.06-8.95,2.08-5.97,3.12-13.71,3.12-23.24s-1.03-18.1-3.09-24.35c-2.06-6.24-4.74-9.36-8.03-9.36s-5.96,2.98-7.98,8.95c-2.02,5.96-3.04,13.76-3.04,23.38s1,18.2,3.01,24.35c2.01,6.15,4.66,9.23,7.95,9.23Z"/>
      <path d="M964.46,644.64l-1.88-.42-2.2-.42h-4.08l-2.26.42-1.88.42h-.16c-.68,0-1.02-.51-1.02-1.53,0-1.11.39-1.66,1.18-1.66h2.58c1.36,0,2.18-1.11,2.47-3.34.29-2.22.43-8.76.43-19.6v-35.87c0-2.5-.32-3.75-.97-3.75-.32,0-.9.12-1.72.35-.82.23-1.34.35-1.56.35-.82,0-1.24-.65-1.24-1.94,0-1.11.3-1.67.91-1.67h.16l1.56.28c.18.19.72.28,1.61.28h.11c.54,0,.87-.23.99-.7.12-.46.19-1.72.19-3.76.07-15.71,2.87-23.56,8.38-23.56,1.72,0,3.14,1.02,4.27,3.05,1.13,2.04,1.69,4.58,1.69,7.63,0,4.16-.73,6.24-2.2,6.24-1.18,0-1.77-1.53-1.77-4.58,0-2.77.48-4.16,1.45-4.16.29,0,.43-.23.43-.69,0-1.02-.34-1.99-1.02-2.91-.86-1.2-1.88-1.8-3.06-1.8-4.55,0-6.83,7.31-6.83,21.92,0,1.48.07,2.41.21,2.77.14.37.5.56,1.08.56h.27c.14-.09.25-.14.32-.14l4.94-.42c.9,0,1.34.56,1.34,1.67,0,1.3-.48,1.94-1.45,1.94.25,0-.47-.09-2.15-.28h-2.53c-.07,0-.18-.14-.32-.42h-.38c-.57,0-.94.23-1.1.69-.16.46-.24,1.53-.24,3.19v35.79c0,10.82.14,17.34.43,19.56.29,2.22,1.11,3.33,2.47,3.33h2.53c.79,0,1.18.51,1.18,1.53,0,1.11-.32,1.66-.97,1.66-.18,0-.25,0-.21,0Z"/>
      <path d="M999.12,607.74v24.14c.04,3.24.18,5.46.44,6.66.36,1.85,1.11,2.77,2.24,2.77.58,0,1.15-.09,1.69-.28.29-.09.73-.14,1.31-.14.8,0,1.2.6,1.2,1.8s-.38,1.8-1.13,1.8h-.21l-1.18-.28c-.29,0-.79-.09-1.5-.28-.86-.18-1.5-.32-1.91-.42-.41-.09-.73-.14-.94-.14h-1.83c-.25,0-.55.02-.89.07-.34.05-.9.19-1.67.42-.77.23-1.37.35-1.8.35l-1.18.28h-.22c-.75,0-1.13-.55-1.13-1.66,0-1.29.4-1.94,1.2-1.94.51,0,.96.07,1.36.21.4.14.95.21,1.64.21,1.09,0,1.85-.67,2.26-2.01.42-1.34.64-3.81.68-7.41v-24.52c0-1.2-.11-2.26-.32-3.19l-10.45-43.77c-.54-2.22-.91-3.6-1.12-4.16-.46-1.2-1.04-1.8-1.71-1.8h-2.52c-.89,0-1.34-.6-1.34-1.8s.45-1.8,1.34-1.8c.25,0,.82.16,1.72.47,1.18.42,2.44.63,3.76.63s2.76-.23,4.41-.69c1-.28,1.59-.42,1.77-.42.72,0,1.08.58,1.08,1.74,0,1.25-.39,1.87-1.18,1.87-.21,0-.93-.07-2.15-.21l-1.99-.21c-.82,0-1.24.6-1.24,1.8,0,.19.07.65.21,1.39l.38,1.53,9.4,40.09c.29,1.3.57,1.94.86,1.94.25,0,.54-.65.86-1.94l8.71-36.35c.79-3.33,1.18-5.36,1.18-6.1,0-1.11-.36-1.71-1.07-1.8l-.81-.14h-3.17c-1.15,0-1.72-.6-1.72-1.8s.39-1.8,1.18-1.8c.21,0,.93.19,2.15.55,1.22.37,2.6.55,4.14.55.21,0,1-.05,2.36-.16.29,0,.79-.06,1.5-.2.72-.13,1.25-.2,1.61-.2.68,0,1.02.6,1.02,1.8s-.45,1.8-1.34,1.8c-.07,0-.21-.18-.43-.56h-1.61c-.57,0-1,.33-1.29.97-.29.65-.77,2.31-1.45,4.99l-10.8,44.12c-.25,1.02-.38,2.08-.38,3.19Z"/>
      <path d="M1024.59,574.58c3.76,0,6.82,3.33,9.16,9.99,2.35,6.66,3.52,15.35,3.52,26.08s-1.17,18.96-3.52,25.53c-2.35,6.57-5.4,9.85-9.16,9.85s-6.65-3.42-8.97-10.27c-2.33-6.84-3.49-15.63-3.49-26.36s1.16-18.63,3.49-25.11c2.33-6.47,5.32-9.71,8.97-9.71ZM1024.59,643.25c3.3,0,5.98-2.98,8.06-8.95,2.08-5.97,3.12-13.71,3.12-23.24s-1.03-18.1-3.09-24.35c-2.06-6.24-4.74-9.36-8.03-9.36s-5.96,2.98-7.98,8.95c-2.02,5.96-3.04,13.76-3.04,23.38s1,18.2,3.01,24.35c2.01,6.15,4.66,9.23,7.95,9.23Z"/>
      <path d="M1055.39,619.39c-3.3,0-5.95-2.59-7.95-7.77h-.32c-.86,0-1.56.66-2.1,1.96s-.81,3.03-.81,5.17c0,6.53,2.4,9.88,7.2,10.07h3.82c4.33.19,7.52,1.34,9.57,3.47,3.15,3.33,4.73,8.93,4.73,16.79,0,6.84-1.2,12.07-3.6,15.68-2.4,3.61-5.88,5.41-10.43,5.41s-7.95-1.78-10.43-5.34c-2.47-3.56-3.71-8.62-3.71-15.19,0-8.6,2.22-14.89,6.66-18.87-3.55-1.39-5.32-5.46-5.32-12.21,0-5.27,1.29-8.74,3.87-10.4-.61-3.33-.91-6.66-.91-9.99,0-6.84.92-12.49,2.77-16.92,1.85-4.44,4.18-6.66,7.01-6.66,2.01,0,4.1,1.57,6.29,4.72-.14-1.57-.21-2.82-.21-3.75,0-3.14.47-5.78,1.42-7.91.95-2.13,2.14-3.19,3.57-3.19,1.22,0,2.22.88,3.01,2.64.79,1.76,1.18,3.98,1.18,6.66,0,1.85-.22,3.45-.67,4.79-.45,1.34-.99,2.01-1.64,2.01-1.11,0-1.67-1.39-1.67-4.16,0-2.59.45-3.88,1.34-3.88.04,0,.2.09.48.28-.07,0,.02.05.27.14.25,0,.38-.37.38-1.11,0-1.11-.26-2.08-.78-2.91-.52-.83-1.14-1.25-1.85-1.25-1.15,0-2.06.83-2.74,2.5s-1.02,3.88-1.02,6.66c0,1.48.14,2.96.43,4.44l1.08,5.55c.61,3.15.91,6.61.91,10.4,0,6.66-.91,12.02-2.71,16.09-1.81,4.07-4.18,6.1-7.12,6.1ZM1055.65,667.39c3.9,0,6.94-1.57,9.11-4.72,2.17-3.15,3.25-7.58,3.25-13.32,0-11.84-4.37-17.76-13.11-17.76-3.83,0-6.8,1.57-8.89,4.72-2.1,3.15-3.14,7.63-3.14,13.46s1.1,9.99,3.3,13.04,5.37,4.58,9.49,4.58ZM1055.44,616.61c2.51,0,4.51-1.75,6.02-5.27,1.5-3.51,2.26-8.23,2.26-14.15s-.74-10.82-2.23-14.43c-1.49-3.61-3.47-5.41-5.94-5.41s-4.53,1.87-6.07,5.62c-1.54,3.75-2.31,8.67-2.31,14.78,0,5.74.75,10.31,2.26,13.73,1.5,3.42,3.51,5.13,6.02,5.13Z"/>
      <path d="M1096.6,636.79v-5.33c-.64,3.24-1.38,5.83-2.2,7.77-1.93,4.53-4.37,6.8-7.31,6.8-3.51,0-6.09-2.54-7.74-7.63-.9-2.78-1.49-6.15-1.77-10.13-.14-2.31-.21-6.1-.21-11.38v-20.25c0-8.32-.11-13.36-.33-15.12-.22-1.76-.85-2.64-1.9-2.64-.51,0-1.08.09-1.73.28-.94.28-1.46.42-1.57.42-.69,0-1.03-.65-1.03-1.94,0-1.11.27-1.67.81-1.67h.16l1.5.42h3.12l.54-.14.86-.28c.64,0,.97,1.71.97,5.13v36.21c0,4.9.09,8.46.27,10.68.25,3.7.84,6.8,1.77,9.29,1.47,3.98,3.58,5.97,6.34,5.97,3.65,0,6.25-3.28,7.79-9.85,1.11-4.72,1.67-11.75,1.67-21.09v-15.68c0-9.34-.14-14.64-.41-15.88-.27-1.25-.87-1.87-1.78-1.87-.55,0-1.15.09-1.8.28l-1.58.42c-.69,0-1.04-.6-1.04-1.8s.29-1.8.86-1.8h.16l1.45.42h2.69c.54,0,.91-.07,1.13-.21.21-.14.45-.21.7-.21.68,0,1.02,1.85,1.02,5.55v42.31c0,9.34.12,14.64.38,15.88.25,1.25.84,1.87,1.77,1.87.11,0,.68-.05,1.72-.14.72-.37,1.27-.55,1.67-.55.68,0,1.02.6,1.02,1.8s-.32,1.8-.97,1.8h-.11l-1.56-.28-1.24-.14h-.65c-.11,0-.29.14-.54.42h-1.56c-.54,0-.9-.4-1.08-1.19-.18-.79-.27-2.36-.27-4.7v-1.82Z"/>
      <path d="M1114.55,587.9c1.97-8.88,4.78-13.32,8.44-13.32,2.15,0,3.91,1.55,5.29,4.65,1.38,3.1,2.07,7.1,2.07,12,0,3.24-.31,5.94-.94,8.12-.63,2.17-1.42,3.26-2.39,3.26-1.29,0-1.93-1.53-1.93-4.58,0-2.77.54-4.16,1.61-4.16.29,0,.57.28.86.83.29.56.48.83.59.83.46,0,.7-1.67.7-4.99,0-3.88-.56-7.05-1.67-9.5-1.11-2.45-2.56-3.68-4.35-3.68-3.08,0-5.32,2.96-6.72,8.88-1.04,4.44-1.56,11.28-1.56,20.53v11.79c0,10.82.14,17.34.43,19.56.29,2.22,1.11,3.33,2.47,3.33h2.53c.79,0,1.18.51,1.18,1.53,0,1.11-.34,1.66-1.02,1.66h-.16l-1.88-.42-2.2-.42h-4.14l-2.2.42-1.88.42h-.16c-.68,0-1.02-.51-1.02-1.53,0-1.11.39-1.66,1.18-1.66h2.53c1.4,0,2.24-1.11,2.53-3.33.29-2.22.43-8.74.43-19.56v-21.78c0-6.66,0-9.57,0-8.74-.07-4.81-.34-7.58-.81-8.32-.29-.46-.75-.69-1.4-.69-.21,0-.81.09-1.77.28l-1.61.28c-.72,0-1.07-.6-1.07-1.8s.3-1.8.91-1.8c.32,0,.9.09,1.72.28.39.09.81.14,1.24.14h.81c.39,0,.97-.1,1.72-.31.07,0,.16-.04.27-.1h.27c.75,0,1.13,1.01,1.13,3.02v8.91Z"/>
      <path d="M1138.63,580.96c-.04.56-.05,2.08-.05,4.58v29.13c0,9.16.21,15.72.64,19.7.65,5.92,2.11,8.88,4.41,8.88,1.83,0,3.12-1.6,3.87-4.79.75-3.19,1.13-8.62,1.13-16.3v-5.55c0-1.94.24-2.91.73-2.91s.73.97.73,2.91v3.47c0,6.47-.18,11.56-.54,15.26-.68,7.12-2.65,10.68-5.91,10.68-4.3,0-6.45-7.95-6.45-23.86v-36.62c0-2.96-.08-4.79-.24-5.48-.16-.69-.6-1.04-1.32-1.04-.21,0-.75.09-1.61.28l-1.24.28c-.68,0-1.02-.65-1.02-1.94,0-1.11.32-1.67.97-1.67.29,0,.72.07,1.29.21.57.14,1,.21,1.29.21,1.11,0,1.79-.88,2.04-2.64.14-1.02.21-2.82.21-5.41v-.69c0-3.88.04-6.31.13-7.28.09-.97.3-1.46.62-1.46.39,0,.59.74.59,2.22v.28l-.16,6.66c-.11,1.48-.16,3.24-.16,5.27s.53,3.05,1.58,3.05h1.8c.4,0,1.01-.07,1.83-.21.82-.14,1.42-.21,1.82-.21.73,0,1.09.6,1.09,1.8s-.39,1.8-1.18,1.8h-.11l-1.67-.14c-.29,0-.88-.09-1.77-.28-.75-.09-1.34-.14-1.77-.14-.97,0-1.49.65-1.56,1.94Z"/>
      <path d="M1193.23,564.87l.32,1.8v-10.54c0-2.68.25-4.02.75-4.02.36,0,.54.74.54,2.22,0,.74-.03,2.5-.08,5.27-.13,7.03-.19,12.26-.19,15.68,0,4.53.04,7.72.11,9.57.11,2.77.16,4.21.16,4.3,0,1.67-.23,2.5-.7,2.5-.54,0-.81-1.06-.81-3.19,0-1.57.02-3,.05-4.3.11-2.5.16-3.98.16-4.44,0-8.42-1.01-15.14-3.02-20.19-2.01-5.04-4.69-7.56-8.02-7.56-4.52,0-7.94,4.35-10.23,13.04-2.44,9.16-3.66,20.53-3.66,34.13s1.24,24.74,3.71,32.6c2.47,7.86,5.89,11.79,10.26,11.79,3.51,0,6.31-2.52,8.38-7.56,2.08-5.04,3.19-11.95,3.33-20.74.07-3.7.38-5.55.91-5.55s.81.92.81,2.77c0,10.08-1.27,18.29-3.82,24.62-2.54,6.34-5.82,9.5-9.83,9.5-4.77,0-8.52-4.37-11.26-13.11-2.74-8.74-4.11-20.69-4.11-35.86s1.41-26.52,4.23-35.44c2.82-8.92,6.57-13.39,11.24-13.39,3.5,0,6.28,2.5,8.35,7.49.68,1.67,1.48,4.53,2.41,8.6Z"/>
      <path d="M1224.5,636.79v-5.33c-.64,3.24-1.38,5.83-2.2,7.77-1.93,4.53-4.37,6.8-7.31,6.8-3.51,0-6.09-2.54-7.74-7.63-.9-2.78-1.49-6.15-1.77-10.13-.14-2.31-.21-6.1-.21-11.38v-20.25c0-8.32-.11-13.36-.33-15.12-.22-1.76-.85-2.64-1.9-2.64-.51,0-1.08.09-1.73.28-.94.28-1.46.42-1.57.42-.69,0-1.03-.65-1.03-1.94,0-1.11.27-1.67.81-1.67h.16l1.5.42h3.12l.54-.14.86-.28c.64,0,.97,1.71.97,5.13v36.21c0,4.9.09,8.46.27,10.68.25,3.7.84,6.8,1.77,9.29,1.47,3.98,3.58,5.97,6.34,5.97,3.65,0,6.25-3.28,7.79-9.85,1.11-4.72,1.67-11.75,1.67-21.09v-15.68c0-9.34-.14-14.64-.41-15.88-.27-1.25-.87-1.87-1.78-1.87-.55,0-1.15.09-1.8.28l-1.58.42c-.69,0-1.04-.6-1.04-1.8s.29-1.8.86-1.8h.16l1.45.42h2.69c.54,0,.91-.07,1.13-.21.21-.14.45-.21.7-.21.68,0,1.02,1.85,1.02,5.55v42.31c0,9.34.12,14.64.38,15.88.25,1.25.84,1.87,1.77,1.87.11,0,.68-.05,1.72-.14.72-.37,1.27-.55,1.67-.55.68,0,1.02.6,1.02,1.8s-.32,1.8-.97,1.8h-.11l-1.56-.28-1.24-.14h-.65c-.11,0-.29.14-.54.42h-1.56c-.54,0-.9-.4-1.08-1.19-.18-.79-.27-2.36-.27-4.7v-1.82Z"/>
      <path d="M1241.11,590.25c1.93-10.45,5.14-15.68,9.62-15.68,3.47,0,6.23,3.1,8.28,9.29,2.04,6.2,3.06,14.61,3.06,25.25s-1.1,19.91-3.3,26.71c-2.2,6.8-5.1,10.2-8.68,10.2-4.16,0-7.15-4.39-8.97-13.18v11.65c0,10.91.14,17.5.43,19.77.29,2.26,1.11,3.4,2.47,3.4.25,0,.63-.05,1.13-.14.5-.09.88-.14,1.13-.14.07-.09.18-.14.32-.14.75,0,1.13.6,1.13,1.8,0,1.11-.34,1.66-1.02,1.66h-.16l-1.89-.69h-8.58l-1.89.69h-.16c-.68,0-1.02-.55-1.02-1.66,0-1.2.4-1.8,1.19-1.8.07,0,.16.04.27.14.25,0,.64.04,1.17.14.52.09.91.14,1.16.14,1.37,0,2.2-1.11,2.49-3.33.29-2.23.43-8.75.43-19.59v-48.07c0-6.76,0-9.68,0-8.75-.07-4.82-.34-7.6-.81-8.34-.29-.46-.76-.69-1.41-.69-.22,0-.81.14-1.79.42l-1.63.28c-.72,0-1.08-.6-1.08-1.8s.3-1.8.91-1.8h.16l1.56.28h1.88c.29,0,.71-.05,1.26-.14.55-.09.98-.14,1.26-.14.72,0,1.08.97,1.08,2.91v11.38ZM1250.3,643.25c3.14,0,5.63-3,7.48-9.02,1.85-6.01,2.78-14.06,2.78-24.14s-.85-18.52-2.54-24.21c-1.69-5.69-4.11-8.53-7.24-8.53-2.96,0-5.31,2.64-7.05,7.91-1.03,3.05-1.73,6.27-2.08,9.64-.36,3.38-.53,8.25-.53,14.64,0,6.84.05,11.33.16,13.46.25,4.99.89,9.02,1.92,12.07,1.82,5.46,4.19,8.19,7.11,8.19Z"/>
      <path d="M1277.79,646.02c-4.22,0-7.32-3.88-9.33-11.65.06,1.71.1,2.89.13,3.55.06,3.79.09,5.45.09,4.97,0,2.08-.23,3.13-.7,3.13-.54,0-.81-.93-.81-2.77,0-1.11.05-2.84.16-5.2s.16-5.53.16-9.5c0-4.35-.05-7.72-.16-10.13-.11-2.4-.16-3.65-.16-3.75,0-1.57.24-2.36.72-2.36.52,0,.78,1.15.78,3.44,0,.09-.02.53-.07,1.31-.05.78-.07,1.63-.07,2.54-.05,1.28-.07,2.57-.07,3.85,0,5.87.86,10.63,2.58,14.3,1.72,3.67,3.96,5.5,6.72,5.5,2.58,0,4.66-1.57,6.23-4.72,1.58-3.14,2.36-7.26,2.36-12.35,0-4.62-.59-8-1.77-10.13-1.18-2.13-3.26-3.65-6.23-4.58-3.48-1.02-5.8-2.17-6.99-3.47-1-1.11-1.81-2.94-2.42-5.48-.61-2.54-.91-5.29-.91-8.25,0-5.55.87-10.22,2.61-14.01,1.74-3.79,3.91-5.69,6.53-5.69,3.55,0,6.27,3.79,8.17,11.38v-6.66c0-2.68.21-4.02.64-4.02s.64.74.64,2.22c0,.46-.05,1.62-.16,3.47,0,.19-.02.79-.05,1.8-.04,1.02-.05,1.94-.05,2.77l-.05,5.13c0,3.79.02,6.08.05,6.87.04.79.07,1.55.11,2.29v1.25c0,1.57-.23,2.36-.7,2.36-.43,0-.64-.74-.64-2.22v-.28l.14-3.19c.05-1.11.07-1.43.07-.97,0-5.73-.75-10.4-2.24-14.01-1.49-3.61-3.44-5.41-5.85-5.41-2.23,0-4.07,1.5-5.53,4.51-1.46,3.01-2.18,6.87-2.18,11.58s.56,7.79,1.69,9.78c1.13,1.99,3.2,3.4,6.21,4.23,3.19.83,5.55,2.13,7.09,3.88,2.22,2.5,3.33,7.03,3.33,13.6,0,6.2-.94,11.26-2.81,15.19-1.88,3.93-4.3,5.9-7.26,5.9Z"/>
    </g>
  </g>
</svg>