<?xml version="1.0" encoding="UTF-8"?>
<svg id="Layer_2" data-name="Layer 2" xmlns="http://www.w3.org/2000/svg" xmlns:xlink="http://www.w3.org/1999/xlink" viewBox="0 0 1406.21 561.93">
  <defs>
    <style>
      .cls-1 {
        fill: none;
      }

      .cls-2 {
        fill: #ff7bac;
      }

      .cls-3, .cls-4 {
        stroke: #231f20;
        stroke-linecap: round;
      }

      .cls-3, .cls-4, .cls-5, .cls-6, .cls-7, .cls-8, .cls-9 {
        stroke-miterlimit: 10;
      }

      .cls-3, .cls-10 {
        fill: #fff;
      }

      .cls-11 {
        fill: #e6e6e6;
      }

      .cls-12 {
        fill: url(#linear-gradient-3);
      }

      .cls-13 {
        fill: url(#linear-gradient-2);
      }

      .cls-4 {
        fill: #e6e7e8;
      }

      .cls-14 {
        fill: url(#linear-gradient);
      }

      .cls-5 {
        fill: url(#linear-gradient-5);
      }

      .cls-5, .cls-6, .cls-7, .cls-8, .cls-9 {
        stroke: #000;
      }

      .cls-6 {
        fill: url(#linear-gradient-8);
      }

      .cls-7 {
        fill: url(#linear-gradient-7);
      }

      .cls-8 {
        fill: url(#linear-gradient-4);
      }

      .cls-9 {
        fill: url(#linear-gradient-6);
      }

      .cls-15 {
        opacity: .47;
      }
    </style>
    <linearGradient id="linear-gradient" x1="259.36" y1="102.95" x2="472.55" y2="102.95" gradientTransform="translate(77.8 -145.01) rotate(25)" gradientUnits="userSpaceOnUse">
      <stop offset="0" stop-color="#000"/>
      <stop offset="1" stop-color="#231f20"/>
    </linearGradient>
    <linearGradient id="linear-gradient-2" x1="327.11" y1="25.64" x2="397.88" y2="25.64" gradientUnits="userSpaceOnUse">
      <stop offset="0" stop-color="#fff"/>
      <stop offset="1" stop-color="#231f20"/>
    </linearGradient>
    <linearGradient id="linear-gradient-3" x1="268.2" y1="67.4" x2="318" y2="67.4" xlink:href="#linear-gradient-2"/>
    <linearGradient id="linear-gradient-4" x1="347.68" y1="90.48" x2="437.7" y2="90.48" xlink:href="#linear-gradient-2"/>
    <linearGradient id="linear-gradient-5" x1="354.68" y1="90.48" x2="430.7" y2="90.48" xlink:href="#linear-gradient-2"/>
    <linearGradient id="linear-gradient-6" x1="365" y1="83.68" x2="366.66" y2="83.68" xlink:href="#linear-gradient-2"/>
    <linearGradient id="linear-gradient-7" x1="375.94" y1="77" x2="377.09" y2="77" xlink:href="#linear-gradient-2"/>
    <linearGradient id="linear-gradient-8" x1="369.32" y1="92.41" x2="371.07" y2="92.41" xlink:href="#linear-gradient-2"/>
  </defs>
  <g>
    <g>
      <rect class="cls-10" x=".5" y="75.43" width="395" height="486"/>
      <path d="M395,75.93v485H1V75.93h394M396,74.93H0v487h396V74.93h0Z"/>
    </g>
    <g class="cls-15">
      <rect class="cls-2" x="24.5" y="109.43" width="340" height="362"/>
      <path d="M364,109.93v361H25V109.93h339M365,108.93H24v363h341V108.93h0Z"/>
    </g>
    <g>
      <rect class="cls-4" x="131.27" y="250.66" width="37" height="175" transform="translate(61 -20.87) rotate(10)"/>
      <rect class="cls-4" x="167.73" y="256.82" width="34" height="175" transform="translate(62.6 -26.85) rotate(10)"/>
      <rect class="cls-4" x="201.21" y="262.73" width="34" height="175" transform="translate(64.13 -32.57) rotate(10)"/>
      <rect class="cls-4" x="234.7" y="268.54" width="33" height="175" transform="translate(65.64 -38.21) rotate(10)"/>
    </g>
    <g>
      <g>
        <rect class="cls-14" x="274.45" y="46.95" width="183" height="112" transform="translate(-9.22 164.3) rotate(-25)"/>
        <path d="M424.97,14.19l46.91,100.6-164.95,76.92-46.91-100.6L424.97,14.19M425.46,12.86l-166.76,77.76,47.76,102.41,166.76-77.76-47.76-102.41h0Z"/>
      </g>
      <g>
        <path class="cls-13" d="M339.9,50.78c-4.71,0-7.31-3.84-10.73-11.42-2.9-6.8-3.47-12.02,3.21-15.41,5.03-2.29,10.25-4.86,15.77-7.59,12.18-6.01,24.77-12.23,36.5-15.85.15-.01.29-.02.43-.02,1.89,0,3.78.96,5.61,2.84,4.57,4.7,7.31,13.68,7.19,17.8-.76,4.17-3.7,5.59-8.57,7.95-.94.45-1.94.94-3,1.48l-3.34,1.56c-10.7,4.99-23.78,11.1-33.09,15.42-4.46,2.24-7.54,3.24-9.99,3.24Z"/>
        <path d="M385.08,1c1.75,0,3.52.9,5.25,2.69,4.45,4.58,7.13,13.3,7.05,17.36-.74,3.94-3.43,5.24-8.29,7.59-.95.46-1.94.94-2.97,1.47l-2.63,1.23c-10.82,5.05-24.29,11.34-33.84,15.77-4.37,2.2-7.38,3.18-9.75,3.18-3.97,0-6.47-2.7-10.26-11.1-2.88-6.73-3.38-11.56,2.93-14.76,5.06-2.3,10.28-4.88,15.81-7.61,12.14-6,24.69-12.19,36.37-15.8.11,0,.23-.01.34-.01M385.08,0c-.18,0-.35,0-.53.02-17.07,5.25-36.1,16.07-52.4,23.49-7.24,3.67-6.28,9.4-3.44,16.06,3.57,7.91,6.33,11.71,11.18,11.71,2.63,0,5.87-1.11,10.2-3.29,10.3-4.79,25.24-11.76,36.44-16.99,6.6-3.37,10.88-4.5,11.84-9.85C398.56,14.89,392.86,0,385.08,0h0Z"/>
      </g>
      <g>
        <path class="cls-12" d="M273.94,82.66c-2.71,0-5.11-3.24-5.64-6.27-.21-1.22-.4-4.15,2.46-5.19,4.3-2.01,16.57-7.73,26.59-12.4l12.37-5.77c.86-.61,1.66-.89,2.47-.89,1.55,0,3.11,1.04,4.3,2.87,1.49,2.3,1.93,5.13,1.08,7.03-.71,1.04-2.55,1.84-4.33,2.61-.85.37-1.73.75-2.51,1.17-9.44,4.41-26.61,12.41-34.73,16.19-.7.45-1.37.66-2.05.66Z"/>
        <path d="M312.2,52.64c1.38,0,2.79.96,3.88,2.64,1.36,2.1,1.8,4.74,1.07,6.47-.7.96-2.43,1.71-4.11,2.43-.85.37-1.74.75-2.52,1.17-9.48,4.42-26.62,12.42-34.73,16.19l-.06.03-.06.04c-.56.36-1.14.54-1.72.54-2.43,0-4.66-3.08-5.14-5.85-.24-1.36-.28-3.76,2.14-4.63l.04-.02.04-.02c4.22-1.98,16.33-7.62,26.31-12.27,5.31-2.48,10.02-4.67,12.61-5.88l.09-.04.08-.06c.69-.5,1.39-.75,2.1-.75M312.2,51.64c-.87,0-1.78.29-2.68.94-7.44,3.47-32.45,15.12-38.92,18.15-5.91,2.14-1.78,12.42,3.35,12.42.74,0,1.51-.22,2.26-.7,8.12-3.78,25.29-11.79,34.76-16.2,2.41-1.31,5.86-2.2,7.06-4.01,1.75-3.91-1.62-10.6-5.83-10.6h0Z"/>
      </g>
      <circle class="cls-8" cx="392.69" cy="90.48" r="45"/>
      <circle class="cls-5" cx="392.69" cy="90.48" r="38"/>
      <path class="cls-9" d="M366.66,77.47c-.55,4.15-1.1,8.29-1.66,12.44,0-7.74.48-4.79,1.66-12.44Z"/>
      <path class="cls-7" d="M376.9,66.35c.43,7.11.11,14.26-.96,21.3.25-5.14.72-16.16.96-21.3Z"/>
      <path class="cls-6" d="M369.34,100.73c-.15-5.6.44-11.21,1.72-16.66"/>
    </g>
    <g>
      <g>
        <rect class="cls-11" x="87.76" y="182.49" width="186" height="31" transform="translate(-31.63 34.4) rotate(-10)"/>
        <path d="M269.25,167.15l5.21,29.54-182.19,32.12-5.21-29.54,182.19-32.12M270.06,165.99l-184.16,32.47,5.56,31.51,184.16-32.47-5.56-31.51h0Z"/>
      </g>
      <rect class="cls-4" x="130.75" y="143.82" width="86" height="39" transform="translate(-25.72 32.65) rotate(-10)"/>
      <rect class="cls-3" x="153.88" y="156.72" width="42" height="26" transform="translate(-26.82 32.95) rotate(-10)"/>
    </g>
  </g>
  <g>
    <path d="M445.48,249.26v-45.15c0-1.56-.17-2.58-.51-3.06-.34-.48-1.09-.72-2.24-.72h-1.99c-.34-.06-.9-.09-1.67-.09-1.71,0-2.74.29-3.08.86-.34.57-.51,2.18-.51,4.82,0,1.74.06,4.27.19,7.57.09,2.22.13,3.61.13,4.15.04.3.06.69.06,1.17,0,1.62-.38,2.43-1.15,2.43-.73,0-1.09-.69-1.09-2.07,0-.42.02-1.05.06-1.89.09-1.68.13-4.84.13-9.46,0-1.8-.04-3.79-.13-5.95,0-.12-.02-.39-.06-.81v-.81c0-1.62.64-2.43,1.92-2.43.81,0,1.9.06,3.27.18,1.67.18,2.76.3,3.27.36,2.01.12,3.61.18,4.81.18,2.78,0,5.96-.18,9.55-.54.6-.06,1.05-.09,1.35-.09.81,0,1.35.21,1.6.63.26.42.38,1.17.38,2.25,0,.72-.02,1.26-.06,1.62-.09,1.8-.13,3.97-.13,6.49,0,1.44.04,4.03.13,7.75v2.25c0,1.5-.36,2.25-1.09,2.25s-1.09-.78-1.09-2.34c0-.72.02-1.47.06-2.25l.32-6.04c.08-1.62.13-3.33.13-5.14,0-2.1-.09-3.42-.26-3.97-.3-.78-1.07-1.17-2.31-1.17h-1.67c-.6.06-1.05.09-1.35.09-2.39,0-3.78.23-4.17.68s-.62,1.52-.71,3.2l-.06,1.53v43.53c0,2.34.09,3.85.26,4.51.34,1.38,1.15,2.07,2.44,2.07h.83c.38-.06.81-.09,1.28-.09.94,0,1.41.45,1.41,1.35s-.41,1.35-1.22,1.35c-.38,0-.9-.09-1.54-.27-1.28-.36-2.8-.54-4.55-.54-1.37,0-2.97.24-4.81.72-.21.06-.58.09-1.09.09-.81,0-1.22-.45-1.22-1.35s.51-1.35,1.54-1.35c.26,0,.65.03,1.19.09.53.06.93.09,1.19.09,1.11,0,1.82-.78,2.12-2.34.09-.54.13-1.98.13-4.33Z"/>
    <path d="M471.52,222.76c1.84-5.05,4.12-7.57,6.86-7.57,1.84,0,3.38.98,4.62,2.93,1.24,1.95,1.86,4.4,1.86,7.35,0,1.92-.3,3.55-.9,4.87-.6,1.32-1.35,1.98-2.24,1.98-1.37,0-2.05-1.02-2.05-3.06,0-1.68.51-2.52,1.54-2.52.3,0,.58.09.83.27.13.18.23.27.32.27.43,0,.64-.84.64-2.52,0-2.04-.45-3.8-1.35-5.27-.9-1.47-1.97-2.21-3.21-2.21-1.41,0-2.72.83-3.91,2.48-1.2,1.65-1.99,3.68-2.37,6.08-.43,2.76-.64,6.58-.64,11.45v10.63c0,3.67.14,5.96.42,6.89.28.93.95,1.4,2.02,1.4.08,0,.19-.03.32-.09h.32l.71-.09h.38c1.03,0,1.54.39,1.54,1.17,0,.84-.34,1.26-1.03,1.26-.34,0-.73-.06-1.15-.18-1.07-.3-2.44-.45-4.1-.45-.68,0-1.67.12-2.95.36-1.28.24-2.2.36-2.76.36-.77,0-1.15-.39-1.15-1.17,0-.9.47-1.35,1.41-1.35-.09,0,.02.03.32.09l1.15.18h.45c1.11,0,1.82-.72,2.12-2.16.17-.72.26-2.13.26-4.24l-.06-28.12c-.09-2.34-.62-3.52-1.6-3.52-.04,0-.41.03-1.09.09l-1.03.09c-.17.06-.41.09-.71.09-.77,0-1.15-.42-1.15-1.26,0-.78.45-1.17,1.35-1.17h.51l1.22.18c.17.06.41.09.71.09s.71-.06,1.22-.18l.77-.18c.26-.06.53-.09.83-.09.6,0,.9.57.9,1.71v.81c-.09,1.56-.13,3.01-.13,4.33Z"/>
    <path d="M504.99,251.96v-1.98c-1.07,3.37-2.27,5.77-3.59,7.21-1.33,1.44-3.04,2.16-5.13,2.16-2.35,0-4.23-1.05-5.64-3.15s-2.12-4.9-2.12-8.38c0-7.45,2.78-11.57,8.34-12.35,3.25-.48,5.35-1.25,6.32-2.3.96-1.05,1.44-3.14,1.44-6.26s-.58-5.35-1.73-7.03c-1.15-1.68-2.76-2.52-4.81-2.52-1.71,0-3.2.72-4.46,2.16-1.26,1.44-1.89,3.12-1.89,5.05,0,.48.09.72.26.72.51-.36.9-.54,1.15-.54,1.2,0,1.8.96,1.8,2.88,0,.96-.22,1.77-.67,2.43-.45.66-1.02.99-1.7.99-.77,0-1.41-.5-1.92-1.49-.51-.99-.77-2.24-.77-3.74,0-3,.79-5.53,2.37-7.57,1.58-2.04,3.55-3.06,5.9-3.06,3.46,0,5.88,1.74,7.25,5.23.85,2.16,1.28,6.07,1.28,11.72v18.84c0,4.21.71,6.31,2.12,6.31,1.54,0,2.31-2.52,2.31-7.57v-1.26c-.04-.66-.06-1.23-.06-1.71l-.06-.18c0-1.26.32-1.89.96-1.89s.96.69.96,2.07c0,4.99-.28,8.34-.83,10.05-.56,1.71-1.65,2.57-3.27,2.57-2.52,0-3.78-2.46-3.78-7.39ZM504.99,238.9v-5.23c-1.2,1.92-2.95,3.06-5.26,3.42l-2.69.45c-4.49.72-6.73,4.06-6.73,10,0,2.88.58,5.23,1.73,7.03,1.15,1.8,2.67,2.7,4.55,2.7,3.46,0,5.86-2.37,7.18-7.12.81-2.88,1.22-6.64,1.22-11.27Z"/>
    <path d="M525.76,259.35c-3.33,0-5.83-2.25-7.5-6.76l.13,3.79v.72c0,1.32-.32,1.98-.96,1.98-.6,0-.9-.6-.9-1.8,0-1.02.05-2.54.16-4.55.11-2.01.16-3.53.16-4.55,0-1.32-.04-2.61-.13-3.88l-.19-2.79v-.81c-.04-.3-.06-.51-.06-.63,0-1.2.3-1.8.9-1.8.68,0,1.03.81,1.03,2.43,0,.48-.02.84-.06,1.08v1.62c-.04.24-.06.6-.06,1.08,0,3.85.68,6.94,2.05,9.28,1.37,2.34,3.18,3.51,5.45,3.51,2.01,0,3.69-.99,5.03-2.97s2.02-4.45,2.02-7.39-.54-5.06-1.64-6.35c-1.09-1.29-3.05-2.21-5.87-2.75-3.04-.54-5.16-1.58-6.38-3.11s-1.83-3.95-1.83-7.26c0-3.54.75-6.47,2.24-8.79,1.5-2.31,3.4-3.47,5.71-3.47,3.21,0,5.47,2.37,6.8,7.12,0-1.26-.04-2.58-.13-3.97-.04-.24-.06-.6-.06-1.08,0-1.02.3-1.53.9-1.53.51,0,.77.51.77,1.53v1.08c-.13,2.7-.19,4.81-.19,6.31v3.24c.04,1.44.08,2.4.13,2.88v.99c0,1.08-.28,1.62-.83,1.62-.6,0-.9-.6-.9-1.8v-1.35l.06-.54c0-3.84-.58-6.86-1.73-9.06-1.15-2.19-2.76-3.29-4.81-3.29-1.75,0-3.22.92-4.39,2.75-1.18,1.83-1.76,4.13-1.76,6.89s.45,4.52,1.35,5.63c.9,1.11,2.61,1.97,5.13,2.57,3.04.72,5.04,1.44,6.03,2.16,2.18,1.68,3.27,4.69,3.27,9.01,0,3.79-.84,6.89-2.53,9.33-1.69,2.43-3.82,3.65-6.38,3.65Z"/>
    <path d="M546.03,224.65c1.58-6.31,4.4-9.46,8.46-9.46,3.29,0,5.62,1.95,6.99,5.86.73,2.04,1.09,6.37,1.09,12.98l.06,17.12c.04,2.16.15,3.49.32,3.97.3.9,1.05,1.35,2.24,1.35h.51c.38-.06.79-.09,1.22-.09.77,0,1.15.39,1.15,1.17,0,.66-.32.99-.96.99-.21,0-.66-.06-1.35-.18-1.71-.3-3.23-.45-4.55-.45-.9,0-1.52.03-1.86.09l-2.05.36c-.13,0-.34.03-.64.09h-.45c-.81,0-1.22-.33-1.22-.99,0-.96.49-1.44,1.47-1.44h.26l1.47.18h.38c.98,0,1.6-.42,1.86-1.26.13-.48.23-1.59.32-3.33l.13-3.33v-13.52c0-5.53-.26-9.43-.77-11.72-.86-3.79-2.76-5.68-5.71-5.68s-5.17,2.04-6.8,6.13c-1.07,2.7-1.6,6.64-1.6,11.81v14.24c0,2.65.06,4.24.19,4.78.3,1.38,1.11,2.07,2.44,2.07.26,0,.47-.01.64-.04.17-.03.41-.07.71-.14h.58c.81,0,1.22.42,1.22,1.26,0,.66-.34.99-1.03.99-.13,0-.51-.06-1.15-.18l-1.99-.36c-.34-.06-1.07-.09-2.18-.09-1.41,0-2.93.18-4.55.54-.56.12-.96.18-1.22.18-.73,0-1.09-.36-1.09-1.08,0-.9.43-1.35,1.28-1.35h.45c.21.06.41.09.58.09.51.12.88.18,1.09.18.98,0,1.62-.39,1.92-1.17.17-.54.28-1.62.32-3.24l.06-2.52v-42.72c0-3-.14-4.87-.42-5.59-.28-.72-1.04-1.08-2.28-1.08-.38,0-.81.06-1.28.18-.26.06-.54.09-.83.09-.86,0-1.28-.42-1.28-1.26,0-.78.36-1.17,1.09-1.17h.64c.3,0,.73.03,1.28.09.56.06.98.09,1.28.09.26,0,.66-.06,1.22-.18.56-.12.96-.18,1.22-.18.73,0,1.09.78,1.09,2.34v24.6Z"/>
    <path d="M615.66,228.08c0,9.43-1.28,17-3.85,22.71-2.56,5.71-5.99,8.56-10.26,8.56s-7.46-2.82-9.94-8.47c-2.48-5.65-3.72-13.19-3.72-22.62s1.31-16.72,3.94-22.58c2.63-5.86,6-8.79,10.1-8.79s7.47,2.85,9.97,8.56c2.5,5.71,3.75,13.25,3.75,22.62ZM590.08,228.53c0,8.77,1.04,15.71,3.11,20.82,2.07,5.11,4.91,7.66,8.5,7.66s6.34-2.57,8.5-7.71c2.16-5.14,3.24-11.91,3.24-20.32,0-8.95-1.05-16.13-3.14-21.54-2.09-5.41-4.87-8.11-8.34-8.11s-6.36,2.72-8.56,8.16c-2.2,5.44-3.3,12.45-3.3,21.04Z"/>
    <path d="M626.18,250.25v-30.73c0-1.02-.19-1.5-.58-1.44l-1.73.18-1.41.09h-.77c-.77,0-1.15-.42-1.15-1.26,0-.78.38-1.17,1.15-1.17h.83l1.6.18c1.07.12,1.58.18,1.54.18.34,0,.53-.27.58-.81l.13-5.41c.08-3.9.72-7.01,1.89-9.33,1.18-2.31,2.75-3.47,4.71-3.47,1.24,0,2.29.57,3.14,1.71.85,1.14,1.28,2.55,1.28,4.24,0,2.22-.66,3.33-1.99,3.33-1.24,0-1.86-.99-1.86-2.97,0-1.14.26-1.83.77-2.07l.38-.18c.13-.18.19-.3.19-.36,0-.24-.18-.55-.54-.95-.36-.39-.84-.59-1.44-.59-3.29,0-4.94,5.29-4.94,15.86,0,.66.17.99.51.99h.06l1.15-.09c.26,0,.75-.06,1.47-.18.13,0,.32-.03.58-.09h.51c.9,0,1.35.42,1.35,1.26,0,.78-.45,1.17-1.35,1.17h-1.03c-.38-.06-.9-.12-1.54-.18h-1.28c-.34,0-.51.45-.51,1.35v30.73c0,3.42.36,5.32,1.09,5.68.3.18.73.27,1.28.27h.96c.38-.06.75-.09,1.09-.09.85,0,1.28.39,1.28,1.17s-.43,1.17-1.28,1.17h-.64l-2.12-.45c-.56-.12-1.35-.18-2.37-.18-1.33,0-2.97.21-4.94.63-.17.06-.41.09-.71.09-.77,0-1.15-.42-1.15-1.26s.41-1.26,1.22-1.26c-.26,0-.11.03.45.09l.83.09c.21.06.53.09.96.09,1.07,0,1.72-.33,1.96-.99.23-.66.35-2.34.35-5.05Z"/>
    <path d="M667.35,249.26v-45.15c0-1.56-.17-2.58-.51-3.06-.34-.48-1.09-.72-2.24-.72h-1.99c-.34-.06-.9-.09-1.67-.09-1.71,0-2.74.29-3.08.86-.34.57-.51,2.18-.51,4.82,0,1.74.06,4.27.19,7.57.08,2.22.13,3.61.13,4.15.04.3.06.69.06,1.17,0,1.62-.38,2.43-1.15,2.43-.73,0-1.09-.69-1.09-2.07,0-.42.02-1.05.06-1.89.08-1.68.13-4.84.13-9.46,0-1.8-.04-3.79-.13-5.95,0-.12-.02-.39-.06-.81v-.81c0-1.62.64-2.43,1.92-2.43.81,0,1.9.06,3.27.18,1.67.18,2.76.3,3.27.36,2.01.12,3.61.18,4.81.18,2.78,0,5.96-.18,9.55-.54.6-.06,1.05-.09,1.35-.09.81,0,1.35.21,1.6.63.26.42.38,1.17.38,2.25,0,.72-.02,1.26-.06,1.62-.09,1.8-.13,3.97-.13,6.49,0,1.44.04,4.03.13,7.75v2.25c0,1.5-.36,2.25-1.09,2.25s-1.09-.78-1.09-2.34c0-.72.02-1.47.06-2.25l.32-6.04c.09-1.62.13-3.33.13-5.14,0-2.1-.09-3.42-.26-3.97-.3-.78-1.07-1.17-2.31-1.17h-1.67c-.6.06-1.05.09-1.35.09-2.39,0-3.78.23-4.17.68s-.62,1.52-.71,3.2l-.06,1.53v43.53c0,2.34.08,3.85.26,4.51.34,1.38,1.15,2.07,2.44,2.07h.83c.38-.06.81-.09,1.28-.09.94,0,1.41.45,1.41,1.35s-.41,1.35-1.22,1.35c-.38,0-.9-.09-1.54-.27-1.28-.36-2.8-.54-4.55-.54-1.37,0-2.97.24-4.81.72-.21.06-.58.09-1.09.09-.81,0-1.22-.45-1.22-1.35s.51-1.35,1.54-1.35c.26,0,.65.03,1.19.09.53.06.93.09,1.19.09,1.11,0,1.82-.78,2.12-2.34.08-.54.13-1.98.13-4.33Z"/>
    <path d="M692.55,224.65c1.58-6.31,4.4-9.46,8.46-9.46,3.29,0,5.62,1.95,6.99,5.86.73,2.04,1.09,6.37,1.09,12.98l.06,17.12c.04,2.16.15,3.49.32,3.97.3.9,1.05,1.35,2.24,1.35h.51c.38-.06.79-.09,1.22-.09.77,0,1.15.39,1.15,1.17,0,.66-.32.99-.96.99-.21,0-.66-.06-1.35-.18-1.71-.3-3.23-.45-4.55-.45-.9,0-1.52.03-1.86.09l-2.05.36c-.13,0-.34.03-.64.09h-.45c-.81,0-1.22-.33-1.22-.99,0-.96.49-1.44,1.48-1.44h.26l1.48.18h.38c.98,0,1.6-.42,1.86-1.26.13-.48.23-1.59.32-3.33l.13-3.33v-13.52c0-5.53-.26-9.43-.77-11.72-.86-3.79-2.76-5.68-5.71-5.68s-5.17,2.04-6.8,6.13c-1.07,2.7-1.6,6.64-1.6,11.81v14.24c0,2.65.06,4.24.19,4.78.3,1.38,1.11,2.07,2.44,2.07.26,0,.47-.01.64-.04.17-.03.41-.07.71-.14h.58c.81,0,1.22.42,1.22,1.26,0,.66-.34.99-1.03.99-.13,0-.51-.06-1.15-.18l-1.99-.36c-.34-.06-1.07-.09-2.18-.09-1.41,0-2.93.18-4.55.54-.56.12-.96.18-1.22.18-.73,0-1.09-.36-1.09-1.08,0-.9.43-1.35,1.28-1.35h.45c.21.06.41.09.58.09.51.12.88.18,1.09.18.98,0,1.62-.39,1.92-1.17.17-.54.28-1.62.32-3.24l.06-2.52v-42.72c0-3-.14-4.87-.42-5.59-.28-.72-1.04-1.08-2.28-1.08-.38,0-.81.06-1.28.18-.26.06-.54.09-.83.09-.86,0-1.28-.42-1.28-1.26,0-.78.36-1.17,1.09-1.17h.64c.3,0,.73.03,1.28.09.55.06.98.09,1.28.09.26,0,.66-.06,1.22-.18.55-.12.96-.18,1.22-.18.73,0,1.09.78,1.09,2.34v24.6Z"/>
    <path d="M719.86,236.46v1.35c0,6.07.78,10.83,2.34,14.29,1.56,3.46,3.73,5.18,6.51,5.18,1.75,0,3.29-.78,4.62-2.34,1.33-1.56,2.25-3.72,2.76-6.49.21-1.02.38-2.43.51-4.24.08-1.08.38-1.62.9-1.62.6,0,.9.54.9,1.62,0,4.03-.98,7.56-2.95,10.59-1.97,3.03-4.23,4.55-6.8,4.55-3.21,0-5.79-1.94-7.76-5.81-1.97-3.88-2.95-9-2.95-15.37,0-6.85.99-12.39,2.98-16.63,1.99-4.24,4.58-6.35,7.79-6.35,2.86,0,5.21,1.7,7.05,5.09,1.84,3.4,2.76,7.77,2.76,13.11,0,1.44-.08,2.31-.22,2.61-.15.3-.59.45-1.31.45h-17.12ZM728.71,217.35c-2.48,0-4.5,1.53-6.06,4.6-1.56,3.06-2.45,7.15-2.66,12.26h16.03c.47-.06.71-.39.71-.99,0-4.75-.74-8.58-2.21-11.49-1.47-2.91-3.41-4.37-5.8-4.37Z"/>
    <path d="M764.11,205.28l5.77,49.21,6.92-53.63c.3-2.4.79-3.6,1.48-3.6s1.17,1.26,1.47,3.79l6.35,53.9,5.71-48.13c.21-1.8.32-3.09.32-3.88,0-1.92-.64-2.88-1.92-2.88-.47,0-.98.08-1.54.23-.56.15-.92.23-1.09.23-.86,0-1.28-.48-1.28-1.44,0-.78.47-1.17,1.41-1.17.43,0,1.22.09,2.37.27.51.12.91.2,1.19.23.28.03.89.05,1.83.05,1.45,0,2.67-.15,3.66-.45.68-.12,1.09-.18,1.22-.18.77,0,1.15.45,1.15,1.35,0,.84-.47,1.26-1.41,1.26-.17,0-.44-.03-.8-.09-.36-.06-.63-.09-.8-.09-.68,0-1.17.38-1.44,1.13-.28.75-.57,2.42-.87,5l-5.07,41.19c-.17,1.44-.43,3.64-.77,6.58-.04.36-.09.75-.13,1.17-.26,2.28-.79,3.42-1.6,3.42-.86,0-1.43-1.26-1.73-3.79l-6.35-51.91-6.6,51.91c-.34,2.52-.92,3.79-1.73,3.79-.73,0-1.18-.69-1.35-2.07l-.38-2.97-.38-3.6c-.04-.42-.34-2.82-.9-7.21l-4.75-37.58c-.21-1.8-.36-2.85-.45-3.15-.3-1.14-.83-1.71-1.6-1.71h-.83c-.17.06-.41.09-.71.09-.9,0-1.35-.45-1.35-1.35,0-.78.41-1.17,1.22-1.17.26,0,.55.03.9.09.6.06,1.26.18,1.99.36h1.54c.64,0,1.6-.09,2.89-.27s2.24-.27,2.89-.27c.73,0,1.09.45,1.09,1.35s-.38,1.32-1.15,1.26l-.96-.09h-1.54c-1.33,0-1.99.78-1.99,2.34,0-.12.02.27.06,1.17l.06,1.35Z"/>
    <path d="M801.3,236.46v1.35c0,6.07.78,10.83,2.34,14.29,1.56,3.46,3.73,5.18,6.51,5.18,1.75,0,3.29-.78,4.62-2.34,1.33-1.56,2.25-3.72,2.76-6.49.21-1.02.38-2.43.51-4.24.08-1.08.38-1.62.9-1.62.6,0,.9.54.9,1.62,0,4.03-.98,7.56-2.95,10.59-1.97,3.03-4.23,4.55-6.8,4.55-3.21,0-5.79-1.94-7.76-5.81-1.97-3.88-2.95-9-2.95-15.37,0-6.85.99-12.39,2.98-16.63,1.99-4.24,4.58-6.35,7.79-6.35,2.86,0,5.21,1.7,7.05,5.09,1.84,3.4,2.76,7.77,2.76,13.11,0,1.44-.08,2.31-.22,2.61-.15.3-.59.45-1.31.45h-17.12ZM810.15,217.35c-2.48,0-4.5,1.53-6.06,4.6-1.56,3.06-2.45,7.15-2.66,12.26h16.03c.47-.06.71-.39.71-.99,0-4.75-.74-8.58-2.21-11.49-1.47-2.91-3.41-4.37-5.8-4.37Z"/>
    <path d="M827.01,236.46v1.35c0,6.07.78,10.83,2.34,14.29,1.56,3.46,3.73,5.18,6.51,5.18,1.75,0,3.29-.78,4.62-2.34,1.33-1.56,2.25-3.72,2.76-6.49.21-1.02.38-2.43.51-4.24.08-1.08.38-1.62.9-1.62.6,0,.9.54.9,1.62,0,4.03-.98,7.56-2.95,10.59-1.97,3.03-4.23,4.55-6.8,4.55-3.21,0-5.79-1.94-7.76-5.81-1.97-3.88-2.95-9-2.95-15.37,0-6.85.99-12.39,2.98-16.63,1.99-4.24,4.58-6.35,7.79-6.35,2.86,0,5.21,1.7,7.05,5.09,1.84,3.4,2.76,7.77,2.76,13.11,0,1.44-.08,2.31-.22,2.61-.15.3-.59.45-1.31.45h-17.12ZM835.86,217.35c-2.48,0-4.5,1.53-6.06,4.6-1.56,3.06-2.45,7.15-2.66,12.26h16.03c.47-.06.71-.39.71-.99,0-4.75-.74-8.58-2.21-11.49-1.47-2.91-3.41-4.37-5.8-4.37Z"/>
    <path d="M860.42,234.75l-3.78,5.95v8.65c0,2.4.04,3.88.13,4.42.26,1.62.92,2.43,1.99,2.43.55,0,1.05-.03,1.47-.09.04,0,.15-.03.32-.09h.32c.98,0,1.48.39,1.48,1.17,0,.84-.38,1.26-1.15,1.26-.43,0-.81-.06-1.15-.18-1.37-.3-2.84-.45-4.42-.45-.9,0-1.77.09-2.63.27l-1.67.36c-.26.06-.56.09-.9.09-.86,0-1.28-.42-1.28-1.26s.38-1.26,1.15-1.26c.26,0,.64.03,1.15.09.51.06.9.09,1.15.09,1.24,0,1.99-.81,2.24-2.43.04-.3.06-1.86.06-4.69v-45.15c0-1.44-.18-2.43-.54-2.97-.36-.54-1.02-.81-1.96-.81h-.19c-.64,0-1.03.03-1.15.09h-.77c-.73,0-1.09-.42-1.09-1.26s.43-1.26,1.28-1.26h.32c.17.06.3.09.38.09l1.03.18c.34.06.68.09,1.03.09.64,0,1.2-.06,1.67-.18.47-.12.75-.18.83-.18.6,0,.9.72.9,2.16v38.12l10.13-16.31c.73-1.14,1.09-1.98,1.09-2.52,0-.72-.34-1.08-1.03-1.08h-.13l-1.8.18h-.71c-.68,0-1.03-.39-1.03-1.17s.43-1.17,1.28-1.17h.77l2.12.45c.56.12,1.35.18,2.37.18,1.11,0,2.46-.15,4.04-.45.3-.06.66-.09,1.09-.09.77,0,1.15.39,1.15,1.17s-.45,1.17-1.35,1.17c-.34,0-.62-.03-.83-.09l-.64-.18h-.38c-1.15,0-2.18.75-3.08,2.25l-.64,1.08-5.13,7.93c-.47.78-.71,1.23-.71,1.35,0,.3.13.72.38,1.26l.77,1.98,6.6,17.39c.73,1.92,1.2,3.06,1.41,3.42.64,1.2,1.41,1.8,2.31,1.8.09,0,.17-.03.26-.09h.26l1.03-.36c.09-.06.23-.09.45-.09.81,0,1.22.42,1.22,1.26s-.36,1.26-1.09,1.26c-.09,0-.43-.06-1.03-.18-1.5-.3-3.01-.45-4.55-.45-.56,0-1.39.09-2.5.27-1.11.18-1.95.27-2.5.27-.73,0-1.09-.42-1.09-1.26,0-.72.36-1.08,1.09-1.08.21,0,.51.03.9.09.38.06.68.09.9.09h.64c1.03,0,1.54-.42,1.54-1.26,0-.42-.34-1.5-1.03-3.24l-6.86-17.57c-.26-.6-.49-.9-.71-.9s-.47.24-.77.72l-.45.72Z"/>
    <path d="M887.67,219.43c0,1.26-.25,2.34-.74,3.24-.49.9-1.08,1.35-1.76,1.35s-1.26-.42-1.73-1.26c-.47-.84-.71-1.83-.71-2.97,0-1.32.23-2.42.71-3.29.47-.87,1.05-1.31,1.73-1.31.73,0,1.32.41,1.79,1.22.47.81.71,1.82.71,3.02ZM887.67,254.76c0,1.32-.24,2.42-.71,3.29s-1.07,1.31-1.79,1.31c-.68,0-1.26-.42-1.73-1.26-.47-.84-.71-1.83-.71-2.97,0-3,.81-4.51,2.44-4.51.73,0,1.32.41,1.79,1.22s.71,1.79.71,2.93Z"/>
    <path d="M447.79,305.05c4.15,0,7.25,3.3,9.3,9.91-.04-1.38-.09-2.52-.13-3.42l-.13-2.52c-.04-.24-.06-.57-.06-.99,0-1.68.34-2.52,1.03-2.52.73,0,1.09.69,1.09,2.07v.99c-.13,1.8-.19,4.39-.19,7.75,0,3,.06,5.98.19,8.92.17,3.97.26,5.62.26,4.96,0,1.2-.32,1.8-.96,1.8-.73,0-1.09-.84-1.09-2.52v-2.7c0-4.15-.31-7.56-.93-10.23-.62-2.67-1.7-4.85-3.24-6.53-1.54-1.68-3.23-2.52-5.07-2.52-3.51,0-6.32,2.58-8.43,7.75-2.12,5.17-3.17,12.05-3.17,20.64s1.08,16.07,3.24,21.36c2.16,5.29,5.08,7.93,8.75,7.93,3.03,0,5.48-1.62,7.34-4.87,1.86-3.25,2.79-7.63,2.79-13.16v-1.98c0-1.38.34-2.07,1.03-2.07s1.03.84,1.03,2.52c0,6.55-1.12,11.84-3.37,15.86-2.24,4.03-5.18,6.04-8.82,6.04-4.32,0-7.76-2.9-10.32-8.7-2.56-5.8-3.85-13.62-3.85-23.48,0-8.89,1.27-16.16,3.82-21.81,2.54-5.65,5.85-8.47,9.91-8.47Z"/>
    <path d="M471.83,308.56v48.94c0,2.46.02,3.88.06,4.24.21,1.74.81,2.61,1.8,2.61.47,0,.92-.03,1.35-.09.04,0,.15-.03.32-.09h.32c1.03,0,1.54.39,1.54,1.17,0,.84-.41,1.26-1.22,1.26-.43,0-.81-.06-1.15-.18-1.54-.24-2.91-.36-4.1-.36s-2.01.06-2.56.18l-1.67.36c-.26.06-.56.09-.9.09-.86,0-1.28-.42-1.28-1.26s.38-1.26,1.15-1.26c.26,0,.64.03,1.15.09.51.06.9.09,1.15.09,1.24,0,1.99-.81,2.24-2.43.04-.3.06-1.86.06-4.69v-45.15c0-1.5-.17-2.52-.51-3.06-.34-.54-.98-.81-1.92-.81h-.77c-.34.06-.56.09-.64.09-.21.06-.49.09-.83.09-.68,0-1.03-.42-1.03-1.26s.41-1.26,1.22-1.26h.38c.17.06.3.09.38.09l1.03.18,1.03.18,1.35-.27c.73-.12,1.03-.18.9-.18.81,0,1.22.69,1.22,2.07v.27c-.04.18-.06.3-.06.36Z"/>
    <path d="M501.91,358.31c-1.37,6.13-4.36,9.19-8.98,9.19-3.46,0-5.88-1.8-7.25-5.41-.81-2.28-1.22-6.64-1.22-13.07v-20.01c-.21-1.8-.9-2.7-2.05-2.7h-.51c-.26.06-.47.09-.64.09-.51.12-.86.18-1.03.18-.81,0-1.22-.45-1.22-1.35,0-.66.34-.99,1.03-.99.3,0,.74.03,1.31.09.58.06,1.02.09,1.31.09s.74-.03,1.31-.09c.58-.06,1.01-.09,1.31-.09.64,0,.96.39.96,1.17v5.23l-.06,2.7v15.68c0,5.77.32,9.64.96,11.63,1.03,3.19,3.06,4.78,6.09,4.78,1.67,0,3.2-.66,4.58-1.98,1.39-1.32,2.36-3,2.92-5.05.77-2.88,1.15-7.3,1.15-13.25v-10c0-3.84-.13-6.26-.38-7.26-.26-.99-.86-1.49-1.8-1.49-.26,0-.65.03-1.19.09-.54.06-.93.09-1.19.09-.81,0-1.22-.42-1.22-1.26,0-.72.41-1.08,1.22-1.08.3,0,.53.03.71.09.77.06,1.52.09,2.24.09h1.15c.3,0,.71-.06,1.22-.18.77,0,1.15.6,1.15,1.8v1.62l-.13,2.7-.06,3.33v24.96c0,3.85.71,5.77,2.12,5.77.26,0,.47-.03.64-.09l1.92-.18c.73,0,1.09.36,1.09,1.08,0,.84-.36,1.26-1.09,1.26-.26,0-.58-.06-.96-.18-.21,0-.54-.03-.96-.09-.43-.06-.75-.09-.96-.09-.38,0-.71.03-.96.09l-.71.18h-.64c-.81,0-1.22-.75-1.22-2.25v-5.86Z"/>
    <path d="M521.08,324.34l1.28-.18h.45c.81,0,1.22.42,1.22,1.26,0,.78-.36,1.17-1.09,1.17h-1.09c-.56-.06-1.07-.09-1.54-.09h-1.15c-1.03,0-1.65.18-1.86.54-.21.36-.32.96-.32,1.8v22.35c0,5.35.29,9.06.87,11.13.58,2.07,1.61,3.11,3.11,3.11,2.48,0,3.72-3.06,3.72-9.19v-7.03c0-1.2.28-1.8.83-1.8.38,0,.62.17.71.5.09.33.13,1.28.13,2.84v5.14c0,7.75-1.84,11.63-5.51,11.63-2.56,0-4.25-1.98-5.07-5.95-.34-1.68-.51-5.14-.51-10.37v-22.35c0-1.56-.3-2.34-.9-2.34-.13,0-.38.03-.77.09l-1.15.18h-.83c-.64,0-.96-.39-.96-1.17,0-.84.43-1.26,1.28-1.26.38,0,.74.03,1.06.09.32.06.61.09.87.09,1.07,0,1.6-1.26,1.6-3.79v-3.79c0-1.68.11-2.7.32-3.06.13-.18.34-.27.64-.27.51,0,.77.54.77,1.62v5.5c0,1.8.06,2.88.19,3.25.13.36.51.54,1.15.54h.96l1.6-.18Z"/>
    <path d="M539.87,324.34l1.28-.18h.45c.81,0,1.22.42,1.22,1.26,0,.78-.36,1.17-1.09,1.17h-1.09c-.56-.06-1.07-.09-1.54-.09h-1.15c-1.03,0-1.65.18-1.86.54-.21.36-.32.96-.32,1.8v22.35c0,5.35.29,9.06.87,11.13.58,2.07,1.61,3.11,3.11,3.11,2.48,0,3.72-3.06,3.72-9.19v-7.03c0-1.2.28-1.8.83-1.8.38,0,.62.17.71.5.09.33.13,1.28.13,2.84v5.14c0,7.75-1.84,11.63-5.51,11.63-2.56,0-4.25-1.98-5.07-5.95-.34-1.68-.51-5.14-.51-10.37v-22.35c0-1.56-.3-2.34-.9-2.34-.13,0-.38.03-.77.09l-1.15.18h-.83c-.64,0-.96-.39-.96-1.17,0-.84.43-1.26,1.28-1.26.38,0,.74.03,1.06.09.32.06.61.09.87.09,1.07,0,1.6-1.26,1.6-3.79v-3.79c0-1.68.11-2.7.32-3.06.13-.18.34-.27.64-.27.51,0,.77.54.77,1.62v5.5c0,1.8.06,2.88.19,3.25.13.36.51.54,1.15.54h.96l1.6-.18Z"/>
    <path d="M552.18,344.61v1.35c0,6.07.78,10.83,2.34,14.29,1.56,3.46,3.73,5.18,6.51,5.18,1.75,0,3.29-.78,4.62-2.34,1.32-1.56,2.24-3.73,2.76-6.49.21-1.02.38-2.43.51-4.24.09-1.08.38-1.62.9-1.62.6,0,.9.54.9,1.62,0,4.03-.98,7.56-2.95,10.59-1.97,3.04-4.23,4.55-6.8,4.55-3.21,0-5.79-1.94-7.76-5.81-1.97-3.88-2.95-9-2.95-15.37,0-6.85.99-12.39,2.98-16.63,1.99-4.24,4.58-6.35,7.79-6.35,2.86,0,5.22,1.7,7.05,5.09,1.84,3.4,2.76,7.77,2.76,13.11,0,1.44-.08,2.31-.22,2.61-.15.3-.59.45-1.31.45h-17.12ZM561.03,325.51c-2.48,0-4.5,1.53-6.06,4.6-1.56,3.06-2.45,7.15-2.66,12.26h16.03c.47-.06.71-.39.71-.99,0-4.75-.74-8.58-2.21-11.49-1.47-2.91-3.41-4.37-5.8-4.37Z"/>
    <path d="M582.64,330.91c1.84-5.05,4.12-7.57,6.86-7.57,1.84,0,3.38.98,4.62,2.93,1.24,1.95,1.86,4.4,1.86,7.35,0,1.92-.3,3.55-.9,4.87-.6,1.32-1.35,1.98-2.24,1.98-1.37,0-2.05-1.02-2.05-3.06,0-1.68.51-2.52,1.54-2.52.3,0,.58.09.83.27.13.18.23.27.32.27.43,0,.64-.84.64-2.52,0-2.04-.45-3.8-1.35-5.27-.9-1.47-1.97-2.21-3.21-2.21-1.41,0-2.72.83-3.91,2.48-1.2,1.65-1.99,3.68-2.37,6.08-.43,2.76-.64,6.58-.64,11.45v10.63c0,3.67.14,5.96.42,6.89.28.93.95,1.4,2.02,1.4.08,0,.19-.03.32-.09h.32l.71-.09h.38c1.03,0,1.54.39,1.54,1.17,0,.84-.34,1.26-1.03,1.26-.34,0-.73-.06-1.15-.18-1.07-.3-2.44-.45-4.1-.45-.68,0-1.67.12-2.95.36-1.28.24-2.2.36-2.76.36-.77,0-1.15-.39-1.15-1.17,0-.9.47-1.35,1.41-1.35-.09,0,.02.03.32.09l1.15.18h.45c1.11,0,1.82-.72,2.12-2.16.17-.72.26-2.13.26-4.24l-.06-28.12c-.09-2.34-.62-3.51-1.6-3.51-.04,0-.41.03-1.09.09l-1.03.09c-.17.06-.41.09-.71.09-.77,0-1.15-.42-1.15-1.26,0-.78.45-1.17,1.35-1.17h.51l1.22.18c.17.06.41.09.71.09s.71-.06,1.22-.18l.77-.18c.26-.06.53-.09.83-.09.6,0,.9.57.9,1.71v.81c-.09,1.56-.13,3-.13,4.33Z"/>
    <path d="M609.95,367.51c-3.33,0-5.83-2.25-7.5-6.76l.13,3.79v.72c0,1.32-.32,1.98-.96,1.98-.6,0-.9-.6-.9-1.8,0-1.02.05-2.54.16-4.55.11-2.01.16-3.53.16-4.55,0-1.32-.04-2.61-.13-3.88l-.19-2.79v-.81c-.04-.3-.06-.51-.06-.63,0-1.2.3-1.8.9-1.8.68,0,1.03.81,1.03,2.43,0,.48-.02.84-.06,1.08v1.62c-.04.24-.06.6-.06,1.08,0,3.85.68,6.94,2.05,9.28,1.37,2.34,3.18,3.51,5.45,3.51,2.01,0,3.69-.99,5.03-2.97,1.35-1.98,2.02-4.45,2.02-7.39s-.54-5.06-1.64-6.35c-1.09-1.29-3.05-2.21-5.87-2.75-3.04-.54-5.16-1.58-6.38-3.11-1.22-1.53-1.83-3.95-1.83-7.25,0-3.54.75-6.47,2.24-8.79,1.5-2.31,3.4-3.47,5.71-3.47,3.21,0,5.47,2.37,6.8,7.12,0-1.26-.04-2.58-.13-3.97-.04-.24-.06-.6-.06-1.08,0-1.02.3-1.53.9-1.53.51,0,.77.51.77,1.53v1.08c-.13,2.7-.19,4.81-.19,6.31v3.25c.04,1.44.08,2.4.13,2.88v.99c0,1.08-.28,1.62-.83,1.62-.6,0-.9-.6-.9-1.8v-1.35l.06-.54c0-3.84-.58-6.86-1.73-9.06-1.15-2.19-2.76-3.29-4.81-3.29-1.75,0-3.22.92-4.39,2.75-1.18,1.83-1.76,4.13-1.76,6.89s.45,4.52,1.35,5.63c.9,1.11,2.61,1.97,5.13,2.57,3.04.72,5.04,1.44,6.03,2.16,2.18,1.68,3.27,4.69,3.27,9.01,0,3.79-.84,6.89-2.53,9.33-1.69,2.43-3.82,3.65-6.38,3.65Z"/>
    <path d="M662.41,345.6c0,6.37-1.04,11.61-3.11,15.73-2.07,4.12-4.71,6.17-7.92,6.17s-5.89-2-7.92-5.99c-2.03-4-3.05-9.21-3.05-15.64s1.05-11.94,3.14-16.18c2.09-4.24,4.77-6.35,8.02-6.35s5.71,2.12,7.76,6.35c2.05,4.24,3.08,9.54,3.08,15.91ZM642.27,345.88c0,5.89.82,10.62,2.47,14.2,1.64,3.58,3.84,5.36,6.57,5.36s4.97-1.88,6.7-5.63c1.73-3.75,2.6-8.64,2.6-14.65s-.84-10.41-2.53-14.1c-1.69-3.7-3.84-5.54-6.44-5.54-2.78,0-5.03,1.88-6.76,5.63-1.73,3.76-2.6,8.67-2.6,14.74Z"/>
    <path d="M672.47,358.4v-30.73c0-1.02-.19-1.5-.58-1.44l-1.73.18-1.41.09h-.77c-.77,0-1.15-.42-1.15-1.26,0-.78.38-1.17,1.15-1.17h.83l1.6.18c1.07.12,1.58.18,1.54.18.34,0,.53-.27.58-.81l.13-5.41c.09-3.91.72-7.01,1.89-9.33,1.18-2.31,2.75-3.47,4.71-3.47,1.24,0,2.29.57,3.14,1.71.85,1.14,1.28,2.55,1.28,4.24,0,2.22-.66,3.33-1.99,3.33-1.24,0-1.86-.99-1.86-2.97,0-1.14.26-1.83.77-2.07l.38-.18c.13-.18.19-.3.19-.36,0-.24-.18-.55-.55-.95-.36-.39-.84-.59-1.44-.59-3.29,0-4.94,5.29-4.94,15.86,0,.66.17.99.51.99h.06l1.15-.09c.26,0,.75-.06,1.47-.18.13,0,.32-.03.58-.09h.51c.9,0,1.35.42,1.35,1.26,0,.78-.45,1.17-1.35,1.17h-1.03c-.38-.06-.9-.12-1.54-.18h-1.28c-.34,0-.51.45-.51,1.35v30.73c0,3.43.36,5.32,1.09,5.68.3.18.73.27,1.28.27h.96c.38-.06.75-.09,1.09-.09.85,0,1.28.39,1.28,1.17s-.43,1.17-1.28,1.17h-.64l-2.12-.45c-.56-.12-1.35-.18-2.37-.18-1.33,0-2.97.21-4.94.63-.17.06-.41.09-.71.09-.77,0-1.15-.42-1.15-1.26s.41-1.26,1.22-1.26c-.26,0-.11.03.45.09l.83.09c.21.06.53.09.96.09,1.07,0,1.72-.33,1.96-.99.23-.66.35-2.34.35-5.05Z"/>
    <path d="M730.18,336.23c0,6.97-.75,13.07-2.24,18.3-1.5,5.23-3.57,8.89-6.22,11v6.49c0,3.3.26,5.62.77,6.94.51,1.32,1.41,1.98,2.69,1.98,2.31,0,3.5-2.43,3.59-7.3.04-2.16.06-3.09.06-2.79.13-.9.41-1.35.83-1.35.6,0,.9.75.9,2.25,0,7.75-1.84,11.63-5.51,11.63-1.97,0-3.36-.89-4.17-2.66-.81-1.77-1.22-4.79-1.22-9.06v-4.96c-1.2.54-2.42.81-3.66.81-4.19,0-7.53-2.81-10.04-8.43-2.5-5.62-3.75-13.17-3.75-22.67s1.31-16.72,3.94-22.58,6.02-8.79,10.16-8.79,7.54,2.84,10.07,8.52c2.52,5.68,3.78,13.23,3.78,22.67ZM704.41,336.68c0,13.64,2.35,22.65,7.05,27.04-.94-1.5-1.41-3.82-1.41-6.94,0-2.46.54-4.57,1.63-6.31,1.09-1.74,2.43-2.61,4.01-2.61,4.02,0,6.03,4.48,6.03,13.43v1.26c1.8-1.68,3.28-4.91,4.46-9.69,1.17-4.78,1.76-10.05,1.76-15.82,0-8.95-1.06-16.12-3.17-21.5-2.12-5.38-4.93-8.07-8.43-8.07s-6.42,2.7-8.62,8.11c-2.2,5.41-3.3,12.44-3.3,21.09ZM716.33,365.52c.85,0,1.97-.42,3.33-1.26v-2.7c0-7.51-1.33-11.27-3.98-11.27-1.2,0-2.2.72-3.01,2.16-.81,1.44-1.22,3.19-1.22,5.23,0,2.34.45,4.24,1.35,5.68.9,1.44,2.07,2.16,3.53,2.16Z"/>
    <path d="M756.92,358.31c-1.37,6.13-4.36,9.19-8.98,9.19-3.46,0-5.88-1.8-7.25-5.41-.81-2.28-1.22-6.64-1.22-13.07v-20.01c-.21-1.8-.9-2.7-2.05-2.7h-.51c-.26.06-.47.09-.64.09-.51.12-.86.18-1.03.18-.81,0-1.22-.45-1.22-1.35,0-.66.34-.99,1.03-.99.3,0,.74.03,1.31.09.58.06,1.01.09,1.31.09s.74-.03,1.31-.09c.58-.06,1.01-.09,1.31-.09.64,0,.96.39.96,1.17v5.23l-.06,2.7v15.68c0,5.77.32,9.64.96,11.63,1.03,3.19,3.06,4.78,6.09,4.78,1.67,0,3.2-.66,4.58-1.98,1.39-1.32,2.36-3,2.92-5.05.77-2.88,1.15-7.3,1.15-13.25v-10c0-3.84-.13-6.26-.38-7.26-.26-.99-.86-1.49-1.79-1.49-.26,0-.65.03-1.19.09-.54.06-.93.09-1.19.09-.81,0-1.22-.42-1.22-1.26,0-.72.41-1.08,1.22-1.08.3,0,.53.03.71.09.77.06,1.52.09,2.24.09h1.15c.3,0,.71-.06,1.22-.18.77,0,1.15.6,1.15,1.8v1.62l-.13,2.7-.06,3.33v24.96c0,3.85.71,5.77,2.12,5.77.26,0,.47-.03.64-.09l1.92-.18c.73,0,1.09.36,1.09,1.08,0,.84-.36,1.26-1.09,1.26-.26,0-.58-.06-.96-.18-.21,0-.54-.03-.96-.09-.43-.06-.75-.09-.96-.09-.38,0-.71.03-.96.09l-.71.18h-.64c-.81,0-1.22-.75-1.22-2.25v-5.86Z"/>
    <path d="M769.62,344.61v1.35c0,6.07.78,10.83,2.34,14.29,1.56,3.46,3.73,5.18,6.51,5.18,1.75,0,3.29-.78,4.62-2.34s2.25-3.73,2.76-6.49c.21-1.02.38-2.43.51-4.24.08-1.08.38-1.62.9-1.62.6,0,.9.54.9,1.62,0,4.03-.98,7.56-2.95,10.59-1.97,3.04-4.23,4.55-6.8,4.55-3.21,0-5.79-1.94-7.76-5.81-1.97-3.88-2.95-9-2.95-15.37,0-6.85.99-12.39,2.98-16.63,1.99-4.24,4.58-6.35,7.79-6.35,2.86,0,5.21,1.7,7.05,5.09,1.84,3.4,2.76,7.77,2.76,13.11,0,1.44-.08,2.31-.22,2.61-.15.3-.59.45-1.31.45h-17.12ZM778.47,325.51c-2.48,0-4.5,1.53-6.06,4.6-1.56,3.06-2.45,7.15-2.66,12.26h16.03c.47-.06.71-.39.71-.99,0-4.75-.74-8.58-2.21-11.49-1.47-2.91-3.41-4.37-5.8-4.37Z"/>
    <path d="M803.54,367.51c-3.33,0-5.83-2.25-7.5-6.76l.13,3.79v.72c0,1.32-.32,1.98-.96,1.98-.6,0-.9-.6-.9-1.8,0-1.02.05-2.54.16-4.55.11-2.01.16-3.53.16-4.55,0-1.32-.04-2.61-.13-3.88l-.19-2.79v-.81c-.04-.3-.06-.51-.06-.63,0-1.2.3-1.8.9-1.8.68,0,1.03.81,1.03,2.43,0,.48-.02.84-.06,1.08v1.62c-.04.24-.06.6-.06,1.08,0,3.85.68,6.94,2.05,9.28,1.37,2.34,3.18,3.51,5.45,3.51,2.01,0,3.69-.99,5.03-2.97,1.35-1.98,2.02-4.45,2.02-7.39s-.54-5.06-1.63-6.35c-1.09-1.29-3.05-2.21-5.87-2.75-3.04-.54-5.16-1.58-6.38-3.11-1.22-1.53-1.83-3.95-1.83-7.25,0-3.54.75-6.47,2.24-8.79,1.5-2.31,3.4-3.47,5.71-3.47,3.21,0,5.47,2.37,6.8,7.12,0-1.26-.04-2.58-.13-3.97-.04-.24-.06-.6-.06-1.08,0-1.02.3-1.53.9-1.53.51,0,.77.51.77,1.53v1.08c-.13,2.7-.19,4.81-.19,6.31v3.25c.04,1.44.08,2.4.13,2.88v.99c0,1.08-.28,1.62-.83,1.62-.6,0-.9-.6-.9-1.8v-1.35l.06-.54c0-3.84-.58-6.86-1.73-9.06-1.15-2.19-2.76-3.29-4.81-3.29-1.75,0-3.22.92-4.39,2.75-1.18,1.83-1.76,4.13-1.76,6.89s.45,4.52,1.35,5.63c.9,1.11,2.61,1.97,5.13,2.57,3.04.72,5.04,1.44,6.03,2.16,2.18,1.68,3.27,4.69,3.27,9.01,0,3.79-.84,6.89-2.53,9.33s-3.81,3.65-6.38,3.65Z"/>
    <path d="M826.37,324.34l1.28-.18h.45c.81,0,1.22.42,1.22,1.26,0,.78-.36,1.17-1.09,1.17h-1.09c-.56-.06-1.07-.09-1.54-.09h-1.15c-1.03,0-1.65.18-1.86.54-.21.36-.32.96-.32,1.8v22.35c0,5.35.29,9.06.87,11.13s1.61,3.11,3.11,3.11c2.48,0,3.72-3.06,3.72-9.19v-7.03c0-1.2.28-1.8.83-1.8.38,0,.62.17.71.5.08.33.13,1.28.13,2.84v5.14c0,7.75-1.84,11.63-5.51,11.63-2.57,0-4.25-1.98-5.07-5.95-.34-1.68-.51-5.14-.51-10.37v-22.35c0-1.56-.3-2.34-.9-2.34-.13,0-.38.03-.77.09l-1.15.18h-.83c-.64,0-.96-.39-.96-1.17,0-.84.43-1.26,1.28-1.26.38,0,.74.03,1.06.09.32.06.61.09.87.09,1.07,0,1.6-1.26,1.6-3.79v-3.79c0-1.68.11-2.7.32-3.06.13-.18.34-.27.64-.27.51,0,.77.54.77,1.62v5.5c0,1.8.06,2.88.19,3.25.13.36.51.54,1.15.54h.96l1.6-.18Z"/>
    <path d="M843.49,326.95c-.04.42-.06,1.02-.06,1.8v28.84c0,2.58.02,4.03.06,4.33.21,1.62.88,2.43,1.99,2.43.47,0,.85-.03,1.15-.09h.64c1.03,0,1.54.39,1.54,1.17s-.41,1.17-1.22,1.17c-.43,0-.81-.06-1.15-.18-1.62-.24-3.08-.36-4.36-.36-1.2,0-2.07.06-2.63.18l-1.67.36c-.26.06-.56.09-.9.09-.86,0-1.28-.42-1.28-1.26s.36-1.26,1.09-1.26c.43,0,.92.03,1.47.09.08,0,.21.03.38.09h.45c1.37,0,2.2-.72,2.5-2.16.13-.48.19-2.1.19-4.87v-26.95c0-1.44-.19-2.43-.58-2.97-.38-.54-1.11-.81-2.18-.81-.73,0-1.2.03-1.41.09h-.51c-.21.06-.36.09-.45.09-.68,0-1.03-.42-1.03-1.26s.45-1.26,1.35-1.26h.77l.96.27h.51c.26.06.43.09.51.09.3,0,.85-.09,1.67-.27.13,0,.3-.03.51-.09h.51c.77,0,1.15.69,1.15,2.07v.63ZM844,314.15c0,2.28-.71,3.42-2.12,3.42-1.28,0-1.92-1.08-1.92-3.24s.68-3.25,2.05-3.25,1.99,1.02,1.99,3.06Z"/>
    <path d="M874.46,345.6c0,6.37-1.04,11.61-3.11,15.73-2.07,4.12-4.71,6.17-7.92,6.17s-5.89-2-7.92-5.99c-2.03-4-3.05-9.21-3.05-15.64s1.05-11.94,3.14-16.18c2.09-4.24,4.77-6.35,8.02-6.35s5.71,2.12,7.76,6.35c2.05,4.24,3.08,9.54,3.08,15.91ZM854.32,345.88c0,5.89.82,10.62,2.47,14.2,1.64,3.58,3.84,5.36,6.57,5.36s4.97-1.88,6.7-5.63c1.73-3.75,2.6-8.64,2.6-14.65s-.84-10.41-2.53-14.1c-1.69-3.7-3.84-5.54-6.44-5.54-2.78,0-5.03,1.88-6.76,5.63-1.73,3.76-2.6,8.67-2.6,14.74Z"/>
    <path d="M886.32,326.95c-.09,2.04-.13,3.64-.13,4.78,1.97-5.59,4.72-8.38,8.27-8.38,2.99,0,5.19,1.71,6.6,5.14,1.03,2.46,1.54,6.4,1.54,11.81v18.84c0,1.8.13,3.03.38,3.7.34,1.02,1.05,1.53,2.12,1.53.26,0,.62-.03,1.09-.09.47-.06.83-.09,1.09-.09.77,0,1.15.39,1.15,1.17,0,.9-.38,1.35-1.15,1.35-.09,0-.51-.06-1.28-.18.26,0-.41-.09-1.99-.27-1.07-.12-1.86-.18-2.37-.18h-.58c-.98,0-2.14.09-3.46.27-.43.06-.83.09-1.22.09-.86,0-1.28-.42-1.28-1.26,0-.78.38-1.17,1.15-1.17h.32c.13.06.21.09.26.09l.96.18c.13.06.32.09.58.09.94,0,1.6-.54,1.99-1.62.38-1.08.58-3,.58-5.77v-16.76c0-5.11-.52-8.83-1.57-11.18-1.05-2.34-2.7-3.51-4.97-3.51-3.08,0-5.32,1.92-6.73,5.77-.94,2.52-1.41,5.95-1.41,10.27l.06,17.58c.04,1.92.15,3.15.32,3.7.34,1.02,1.05,1.53,2.12,1.53.38,0,.77-.06,1.15-.18.21-.06.49-.09.83-.09.68,0,1.03.39,1.03,1.17s-.34,1.17-1.03,1.17c-.34,0-.75-.06-1.22-.18-.98-.24-2.24-.36-3.78-.36h-.26c-1.03,0-2.31.15-3.85.45-.6.12-1.13.18-1.6.18-.73,0-1.09-.45-1.09-1.35,0-.78.36-1.17,1.09-1.17.26,0,.63.05,1.12.14.49.09.87.13,1.12.13,1.15,0,1.86-.93,2.12-2.79.08-.54.13-2.1.13-4.69v-22.26c0-2.76-.04-4.45-.13-5.05-.3-2.04-1.03-3.06-2.18-3.06.26,0-.21.06-1.41.18-.17.06-.45.09-.83.09-.73,0-1.09-.39-1.09-1.17,0-.84.36-1.26,1.09-1.26h.58c.64.18,1.45.27,2.44.27.38,0,.83-.06,1.35-.18.13,0,.3-.03.51-.09h.38c.73,0,1.09.75,1.09,2.25,0,.36,0,.51,0,.45Z"/>
    <path d="M921.59,367.51c-3.33,0-5.83-2.25-7.5-6.76l.13,3.79v.72c0,1.32-.32,1.98-.96,1.98-.6,0-.9-.6-.9-1.8,0-1.02.05-2.54.16-4.55.11-2.01.16-3.53.16-4.55,0-1.32-.04-2.61-.13-3.88l-.19-2.79v-.81c-.04-.3-.06-.51-.06-.63,0-1.2.3-1.8.9-1.8.68,0,1.03.81,1.03,2.43,0,.48-.02.84-.06,1.08v1.62c-.04.24-.06.6-.06,1.08,0,3.85.68,6.94,2.05,9.28,1.37,2.34,3.18,3.51,5.45,3.51,2.01,0,3.69-.99,5.03-2.97,1.35-1.98,2.02-4.45,2.02-7.39s-.54-5.06-1.63-6.35c-1.09-1.29-3.05-2.21-5.87-2.75-3.04-.54-5.16-1.58-6.38-3.11-1.22-1.53-1.83-3.95-1.83-7.25,0-3.54.75-6.47,2.24-8.79,1.5-2.31,3.4-3.47,5.71-3.47,3.21,0,5.47,2.37,6.8,7.12,0-1.26-.04-2.58-.13-3.97-.04-.24-.06-.6-.06-1.08,0-1.02.3-1.53.9-1.53.51,0,.77.51.77,1.53v1.08c-.13,2.7-.19,4.81-.19,6.31v3.25c.04,1.44.08,2.4.13,2.88v.99c0,1.08-.28,1.62-.83,1.62-.6,0-.9-.6-.9-1.8v-1.35l.06-.54c0-3.84-.58-6.86-1.73-9.06-1.15-2.19-2.76-3.29-4.81-3.29-1.75,0-3.22.92-4.39,2.75-1.18,1.83-1.76,4.13-1.76,6.89s.45,4.52,1.35,5.63c.9,1.11,2.61,1.97,5.13,2.57,3.04.72,5.04,1.44,6.03,2.16,2.18,1.68,3.27,4.69,3.27,9.01,0,3.79-.84,6.89-2.53,9.33s-3.81,3.65-6.38,3.65Z"/>
    <path d="M941.53,377.6c-.81,2.28-1.5,3.42-2.05,3.42-.47,0-.71-.3-.71-.9,0-.3.11-.69.32-1.17,1.67-3.67,2.5-7.15,2.5-10.46,0-1.08-.19-1.62-.58-1.62-.04.06-.19.12-.45.18h-.45c-1.45,0-2.18-1.23-2.18-3.7,0-1.2.25-2.21.74-3.02.49-.81,1.12-1.22,1.89-1.22,1.97,0,2.95,2.49,2.95,7.48,0,3.54-.66,7.21-1.99,11Z"/>
    <path d="M975.64,310l10.84,53.17,10.07-52.09c.13-.72.33-1.76.61-3.11.28-1.35.78-2.03,1.51-2.03.43,0,1.07.08,1.92.23.86.15,1.5.23,1.92.23.3,0,.79-.06,1.48-.18.68-.12,1.28-.18,1.79-.18.81,0,1.22.45,1.22,1.35s-.38,1.35-1.15,1.35c-.26,0-.58-.06-.96-.18-.6-.18-1.11-.27-1.54-.27-1.2,0-1.95.87-2.24,2.61-.13.72-.19,2.28-.19,4.69l.06,44.34c.09,2.83.92,4.24,2.5,4.24h.83c.77-.12,1.26-.18,1.47-.18.81,0,1.22.45,1.22,1.35,0,.84-.38,1.26-1.15,1.26-.43,0-.92-.06-1.48-.18l-.9-.18c-1.15-.24-2.27-.36-3.33-.36-1.37,0-2.82.18-4.36.54-1.03.24-1.6.36-1.73.36-.86,0-1.28-.48-1.28-1.44,0-.84.53-1.26,1.6-1.26.43,0,.77.03,1.03.09h.51c.21.06.36.09.45.09,1.15,0,1.86-.39,2.12-1.17.26-.6.38-1.8.38-3.61l.06-45.78c0-1.86.02-3.61.06-5.23l-10.84,54.71c-.09.48-.19,1.02-.32,1.62-.3,1.68-.77,2.52-1.41,2.52s-1.11-.84-1.41-2.52c-.09-.42-.21-1.08-.38-1.98l-11.03-53.63.32,46.96c.04,3.79.17,6.08.38,6.89.21.81.83,1.22,1.86,1.22.26,0,.66-.04,1.22-.13.55-.09.96-.14,1.22-.14.85,0,1.28.45,1.28,1.35s-.36,1.35-1.09,1.35c-.43,0-1-.09-1.73-.27-1.24-.3-2.52-.45-3.85-.45-1.71,0-3.21.15-4.49.45-.77.18-1.33.27-1.67.27-.73,0-1.09-.42-1.09-1.26,0-.9.47-1.35,1.41-1.35.38,0,.9.03,1.54.09.21.06.49.09.83.09.85,0,1.43-.33,1.73-.99.3-.66.45-1.89.45-3.7v-43.53c0-2.76-.04-4.38-.13-4.87-.26-1.92-.96-2.88-2.12-2.88-.34,0-.79.06-1.35.18-.56.12-.96.18-1.22.18-.81,0-1.22-.45-1.22-1.35,0-.84.38-1.26,1.15-1.26.38,0,.95.06,1.7.18.75.12,1.31.18,1.7.18s1-.06,1.86-.18c.86-.12,1.37-.18,1.54-.18.73,0,1.2.69,1.41,2.07.08.42.21,1.05.38,1.89Z"/>
    <path d="M1013.35,344.61v1.35c0,6.07.78,10.83,2.34,14.29,1.56,3.46,3.73,5.18,6.51,5.18,1.75,0,3.29-.78,4.62-2.34s2.25-3.73,2.76-6.49c.21-1.02.38-2.43.51-4.24.08-1.08.38-1.62.9-1.62.6,0,.9.54.9,1.62,0,4.03-.98,7.56-2.95,10.59-1.97,3.04-4.23,4.55-6.8,4.55-3.21,0-5.79-1.94-7.76-5.81-1.97-3.88-2.95-9-2.95-15.37,0-6.85.99-12.39,2.98-16.63,1.99-4.24,4.58-6.35,7.79-6.35,2.86,0,5.21,1.7,7.05,5.09,1.84,3.4,2.76,7.77,2.76,13.11,0,1.44-.08,2.31-.22,2.61-.15.3-.59.45-1.31.45h-17.12ZM1022.2,325.51c-2.48,0-4.5,1.53-6.06,4.6-1.56,3.06-2.45,7.15-2.66,12.26h16.03c.47-.06.71-.39.71-.99,0-4.75-.74-8.58-2.21-11.49-1.47-2.91-3.41-4.37-5.8-4.37Z"/>
    <path d="M1043.61,329.02l-.06,2.07c1.75-5.17,4.27-7.75,7.57-7.75,4.02,0,6.43,3.21,7.25,9.64,1.54-6.43,4.27-9.64,8.21-9.64,1.5,0,2.84.5,4.04,1.49,1.2.99,2.03,2.27,2.5,3.83.68,2.34,1.03,6.25,1.03,11.72l.06,18.84c.04,1.68.15,2.83.32,3.42.3,1.14.92,1.71,1.86,1.71.17,0,.3-.03.38-.09l1.09-.18h.71c.98,0,1.47.42,1.47,1.26s-.38,1.26-1.15,1.26c.08,0-.19-.03-.83-.09-2.78-.3-4.36-.45-4.75-.45-1.54,0-3.12.12-4.75.36-.21.06-.47.09-.77.09-.81,0-1.22-.45-1.22-1.35,0-.72.34-1.08,1.03-1.08.26,0,.66.03,1.22.09.55.06.98.09,1.28.09,1.2,0,1.94-1.11,2.24-3.33.08-.66.13-2.43.13-5.32v-15.05c0-5.77-.44-9.73-1.31-11.9s-2.47-3.25-4.78-3.25c-1.54,0-2.92.69-4.14,2.07-1.22,1.38-2.06,3.21-2.53,5.5-.6,3-.9,6.85-.9,11.54l.06,15.95c0,2.52.75,3.79,2.24,3.79h.45l1.03-.18c.09,0,.17-.03.26-.09h.26c.94,0,1.41.42,1.41,1.26s-.38,1.26-1.15,1.26c-.09,0-.59-.09-1.51-.27-.92-.18-2.08-.27-3.49-.27s-3.04.15-4.75.45l-1.03.18c-.77,0-1.15-.45-1.15-1.35,0-.78.3-1.17.9-1.17.26,0,.64.03,1.15.09.51.06.9.09,1.15.09,1.2,0,1.95-.96,2.24-2.88.13-.78.19-2.43.19-4.96v-17.39c0-9.01-2.01-13.52-6.03-13.52-3.08,0-5.17,2.13-6.28,6.4-.64,2.46-.96,5.62-.96,9.46v14.33c0,4.03.11,6.46.32,7.3.21.84.88,1.26,1.99,1.26.43,0,.76-.01.99-.04.23-.03.48-.07.74-.13h.45c.68,0,1.03.39,1.03,1.17,0,.84-.36,1.26-1.09,1.26-.21,0-.62-.06-1.22-.18-1.2-.24-2.24-.36-3.14-.36-1.24,0-3.01.21-5.32.63-.34.06-.68.09-1.03.09-.81,0-1.22-.42-1.22-1.26s.47-1.26,1.41-1.26h.32l.77.18h.32c.17.06.28.09.32.09,1.37,0,2.2-1.08,2.5-3.25.08-.6.13-2.49.13-5.68v-22.35c0-2.1-.06-3.51-.19-4.24-.34-1.62-1.03-2.43-2.05-2.43-.3,0-.6.03-.9.09-.56.12-1.05.18-1.47.18-.86,0-1.28-.39-1.28-1.17,0-.84.43-1.26,1.28-1.26h.51c.68.12,1.28.18,1.8.18.6,0,1.03-.03,1.28-.09.51-.12,1-.18,1.47-.18.77,0,1.15.72,1.15,2.16v.63c0-.06-.02.6-.06,1.98Z"/>
    <path d="M1104.98,345.6c0,6.37-1.04,11.61-3.11,15.73-2.07,4.12-4.71,6.17-7.92,6.17s-5.89-2-7.92-5.99c-2.03-4-3.05-9.21-3.05-15.64s1.05-11.94,3.14-16.18c2.09-4.24,4.77-6.35,8.02-6.35s5.71,2.12,7.76,6.35c2.05,4.24,3.08,9.54,3.08,15.91ZM1084.84,345.88c0,5.89.82,10.62,2.47,14.2,1.64,3.58,3.84,5.36,6.57,5.36s4.97-1.88,6.7-5.63c1.73-3.75,2.6-8.64,2.6-14.65s-.84-10.41-2.53-14.1c-1.69-3.7-3.84-5.54-6.44-5.54-2.78,0-5.03,1.88-6.76,5.63-1.73,3.76-2.6,8.67-2.6,14.74Z"/>
    <path d="M1116.78,330.91c1.84-5.05,4.12-7.57,6.86-7.57,1.84,0,3.38.98,4.62,2.93,1.24,1.95,1.86,4.4,1.86,7.35,0,1.92-.3,3.55-.9,4.87-.6,1.32-1.35,1.98-2.24,1.98-1.37,0-2.05-1.02-2.05-3.06,0-1.68.51-2.52,1.54-2.52.3,0,.58.09.83.27.13.18.23.27.32.27.43,0,.64-.84.64-2.52,0-2.04-.45-3.8-1.35-5.27-.9-1.47-1.97-2.21-3.21-2.21-1.41,0-2.72.83-3.91,2.48-1.2,1.65-1.99,3.68-2.37,6.08-.43,2.76-.64,6.58-.64,11.45v10.63c0,3.67.14,5.96.42,6.89.28.93.95,1.4,2.02,1.4.08,0,.19-.03.32-.09h.32l.71-.09h.38c1.03,0,1.54.39,1.54,1.17,0,.84-.34,1.26-1.03,1.26-.34,0-.73-.06-1.15-.18-1.07-.3-2.44-.45-4.1-.45-.68,0-1.67.12-2.95.36s-2.2.36-2.76.36c-.77,0-1.15-.39-1.15-1.17,0-.9.47-1.35,1.41-1.35-.09,0,.02.03.32.09l1.15.18h.45c1.11,0,1.82-.72,2.12-2.16.17-.72.26-2.13.26-4.24l-.06-28.12c-.09-2.34-.62-3.51-1.6-3.51-.04,0-.41.03-1.09.09l-1.03.09c-.17.06-.41.09-.71.09-.77,0-1.15-.42-1.15-1.26,0-.78.45-1.17,1.35-1.17h.51l1.22.18c.17.06.41.09.71.09s.71-.06,1.22-.18l.77-.18c.26-.06.53-.09.83-.09.6,0,.9.57.9,1.71v.81c-.09,1.56-.13,3-.13,4.33Z"/>
    <path d="M1140.69,326.95c-.04.42-.06,1.02-.06,1.8v28.84c0,2.58.02,4.03.06,4.33.21,1.62.88,2.43,1.99,2.43.47,0,.85-.03,1.15-.09h.64c1.03,0,1.54.39,1.54,1.17s-.41,1.17-1.22,1.17c-.43,0-.81-.06-1.15-.18-1.62-.24-3.08-.36-4.36-.36-1.2,0-2.07.06-2.63.18l-1.67.36c-.26.06-.56.09-.9.09-.86,0-1.28-.42-1.28-1.26s.36-1.26,1.09-1.26c.43,0,.92.03,1.47.09.08,0,.21.03.38.09h.45c1.37,0,2.2-.72,2.5-2.16.13-.48.19-2.1.19-4.87v-26.95c0-1.44-.19-2.43-.58-2.97-.38-.54-1.11-.81-2.18-.81-.73,0-1.2.03-1.41.09h-.51c-.21.06-.36.09-.45.09-.68,0-1.03-.42-1.03-1.26s.45-1.26,1.35-1.26h.77l.96.27h.51c.26.06.43.09.51.09.3,0,.85-.09,1.67-.27.13,0,.3-.03.51-.09h.51c.77,0,1.15.69,1.15,2.07v.63ZM1141.21,314.15c0,2.28-.71,3.42-2.12,3.42-1.28,0-1.92-1.08-1.92-3.24s.68-3.25,2.05-3.25,1.99,1.02,1.99,3.06Z"/>
    <path d="M1151.59,344.61v1.35c0,6.07.78,10.83,2.34,14.29,1.56,3.46,3.73,5.18,6.51,5.18,1.75,0,3.29-.78,4.62-2.34s2.25-3.73,2.76-6.49c.21-1.02.38-2.43.51-4.24.08-1.08.38-1.62.9-1.62.6,0,.9.54.9,1.62,0,4.03-.98,7.56-2.95,10.59-1.97,3.04-4.23,4.55-6.8,4.55-3.21,0-5.79-1.94-7.76-5.81-1.97-3.88-2.95-9-2.95-15.37,0-6.85.99-12.39,2.98-16.63,1.99-4.24,4.58-6.35,7.79-6.35,2.86,0,5.21,1.7,7.05,5.09,1.84,3.4,2.76,7.77,2.76,13.11,0,1.44-.08,2.31-.22,2.61-.15.3-.59.45-1.31.45h-17.12ZM1160.44,325.51c-2.48,0-4.5,1.53-6.06,4.6-1.56,3.06-2.45,7.15-2.66,12.26h16.03c.47-.06.71-.39.71-.99,0-4.75-.74-8.58-2.21-11.49-1.47-2.91-3.41-4.37-5.8-4.37Z"/>
    <path d="M1185.51,367.51c-3.33,0-5.83-2.25-7.5-6.76l.13,3.79v.72c0,1.32-.32,1.98-.96,1.98-.6,0-.9-.6-.9-1.8,0-1.02.05-2.54.16-4.55.11-2.01.16-3.53.16-4.55,0-1.32-.04-2.61-.13-3.88l-.19-2.79v-.81c-.04-.3-.06-.51-.06-.63,0-1.2.3-1.8.9-1.8.68,0,1.03.81,1.03,2.43,0,.48-.02.84-.06,1.08v1.62c-.04.24-.06.6-.06,1.08,0,3.85.68,6.94,2.05,9.28,1.37,2.34,3.18,3.51,5.45,3.51,2.01,0,3.69-.99,5.03-2.97,1.35-1.98,2.02-4.45,2.02-7.39s-.54-5.06-1.63-6.35c-1.09-1.29-3.05-2.21-5.87-2.75-3.04-.54-5.16-1.58-6.38-3.11-1.22-1.53-1.83-3.95-1.83-7.25,0-3.54.75-6.47,2.24-8.79,1.5-2.31,3.4-3.47,5.71-3.47,3.21,0,5.47,2.37,6.8,7.12,0-1.26-.04-2.58-.13-3.97-.04-.24-.06-.6-.06-1.08,0-1.02.3-1.53.9-1.53.51,0,.77.51.77,1.53v1.08c-.13,2.7-.19,4.81-.19,6.31v3.25c.04,1.44.08,2.4.13,2.88v.99c0,1.08-.28,1.62-.83,1.62-.6,0-.9-.6-.9-1.8v-1.35l.06-.54c0-3.84-.58-6.86-1.73-9.06-1.15-2.19-2.76-3.29-4.81-3.29-1.75,0-3.22.92-4.39,2.75-1.18,1.83-1.76,4.13-1.76,6.89s.45,4.52,1.35,5.63c.9,1.11,2.61,1.97,5.13,2.57,3.04.72,5.04,1.44,6.03,2.16,2.18,1.68,3.27,4.69,3.27,9.01,0,3.79-.84,6.89-2.53,9.33s-3.81,3.65-6.38,3.65Z"/>
    <path d="M1205.46,377.6c-.81,2.28-1.5,3.42-2.05,3.42-.47,0-.71-.3-.71-.9,0-.3.11-.69.32-1.17,1.67-3.67,2.5-7.15,2.5-10.46,0-1.08-.19-1.62-.58-1.62-.04.06-.19.12-.45.18h-.45c-1.45,0-2.18-1.23-2.18-3.7,0-1.2.25-2.21.74-3.02.49-.81,1.12-1.22,1.89-1.22,1.97,0,2.95,2.49,2.95,7.48,0,3.54-.66,7.21-1.99,11Z"/>
    <path d="M449.91,468.27v-1.98c-1.07,3.37-2.27,5.77-3.59,7.21-1.33,1.44-3.04,2.16-5.13,2.16-2.35,0-4.23-1.05-5.64-3.15s-2.12-4.9-2.12-8.38c0-7.45,2.78-11.57,8.34-12.35,3.25-.48,5.35-1.25,6.32-2.3.96-1.05,1.44-3.14,1.44-6.26s-.58-5.35-1.73-7.03c-1.15-1.68-2.76-2.52-4.81-2.52-1.71,0-3.2.72-4.46,2.16-1.26,1.44-1.89,3.12-1.89,5.05,0,.48.09.72.26.72.51-.36.9-.54,1.15-.54,1.2,0,1.8.96,1.8,2.88,0,.96-.22,1.77-.67,2.43-.45.66-1.02.99-1.7.99-.77,0-1.41-.5-1.92-1.49-.51-.99-.77-2.24-.77-3.74,0-3,.79-5.53,2.37-7.57,1.58-2.04,3.55-3.06,5.9-3.06,3.46,0,5.88,1.74,7.25,5.23.85,2.16,1.28,6.07,1.28,11.72v18.84c0,4.21.71,6.31,2.12,6.31,1.54,0,2.31-2.52,2.31-7.57v-1.26c-.04-.66-.06-1.23-.06-1.71l-.06-.18c0-1.26.32-1.89.96-1.89s.96.69.96,2.07c0,4.99-.28,8.34-.83,10.05-.56,1.71-1.65,2.57-3.27,2.57-2.52,0-3.78-2.46-3.78-7.39ZM449.91,455.2v-5.23c-1.2,1.92-2.95,3.06-5.26,3.42l-2.69.45c-4.49.72-6.73,4.06-6.73,10,0,2.88.58,5.23,1.73,7.03,1.15,1.8,2.67,2.7,4.55,2.7,3.46,0,5.86-2.37,7.18-7.12.81-2.88,1.22-6.64,1.22-11.27Z"/>
    <path d="M467.28,435.1c-.09,2.04-.13,3.64-.13,4.78,1.97-5.59,4.72-8.38,8.27-8.38,2.99,0,5.19,1.71,6.6,5.14,1.03,2.46,1.54,6.4,1.54,11.81v18.84c0,1.8.13,3.03.38,3.7.34,1.02,1.05,1.53,2.12,1.53.26,0,.62-.03,1.09-.09.47-.06.83-.09,1.09-.09.77,0,1.15.39,1.15,1.17,0,.9-.38,1.35-1.15,1.35-.09,0-.51-.06-1.28-.18.26,0-.41-.09-1.99-.27-1.07-.12-1.86-.18-2.37-.18h-.58c-.98,0-2.14.09-3.46.27-.43.06-.83.09-1.22.09-.86,0-1.28-.42-1.28-1.26,0-.78.38-1.17,1.15-1.17h.32c.13.06.21.09.26.09l.96.18c.13.06.32.09.58.09.94,0,1.6-.54,1.99-1.62.38-1.08.58-3,.58-5.77v-16.76c0-5.11-.52-8.83-1.57-11.18-1.05-2.34-2.7-3.51-4.97-3.51-3.08,0-5.32,1.92-6.73,5.77-.94,2.52-1.41,5.95-1.41,10.27l.06,17.58c.04,1.92.15,3.15.32,3.7.34,1.02,1.05,1.53,2.12,1.53.38,0,.77-.06,1.15-.18.21-.06.49-.09.83-.09.68,0,1.03.39,1.03,1.17s-.34,1.17-1.03,1.17c-.34,0-.75-.06-1.22-.18-.98-.24-2.24-.36-3.78-.36h-.26c-1.03,0-2.31.15-3.85.45-.6.12-1.13.18-1.6.18-.73,0-1.09-.45-1.09-1.35,0-.78.36-1.17,1.09-1.17.26,0,.63.05,1.12.14.49.09.87.13,1.12.13,1.15,0,1.86-.93,2.12-2.79.09-.54.13-2.1.13-4.69v-22.26c0-2.76-.04-4.45-.13-5.05-.3-2.04-1.03-3.06-2.18-3.06.26,0-.21.06-1.41.18-.17.06-.45.09-.83.09-.73,0-1.09-.39-1.09-1.17,0-.84.36-1.26,1.09-1.26h.58c.64.18,1.45.27,2.44.27.38,0,.83-.06,1.35-.18.13,0,.3-.03.51-.09h.38c.73,0,1.09.75,1.09,2.25,0,.36,0,.51,0,.45Z"/>
    <path d="M502.87,431.5c1.75,0,3.19.72,4.33,2.16,1.13,1.44,2.19,3.85,3.17,7.21v-19.74c0-1.68-.06-2.79-.19-3.33-.26-1.02-.86-1.53-1.8-1.53-.38,0-.68.03-.9.09-.64.18-1.11.27-1.41.27-.81,0-1.22-.45-1.22-1.35,0-.84.36-1.26,1.09-1.26.13,0,.53.09,1.22.27h.58c.26.06.47.09.64.09.34,0,.82-.06,1.44-.18.62-.12,1.08-.18,1.38-.18.73,0,1.07.6,1.03,1.8l-.06,1.53-.06,3.06v46.05c0,2.22.04,3.64.13,4.24.3,1.5.98,2.25,2.05,2.25.6,0,1.05-.06,1.35-.18.6-.12.98-.18,1.15-.18.73,0,1.09.45,1.09,1.35,0,.78-.32,1.17-.96,1.17h-.38c-.21-.06-.38-.09-.51-.09-.26-.06-.86-.09-1.8-.09s-1.56.03-1.86.09h-.71c-.9,0-1.35-.66-1.35-1.98v-.36l.06-.72v-3.61c-2.01,4.87-4.51,7.3-7.5,7.3s-5.64-2.04-7.57-6.13c-1.92-4.08-2.89-9.43-2.89-16.04s.98-11.7,2.95-15.82c1.97-4.12,4.47-6.17,7.5-6.17ZM494.28,453.49c0,6.13.77,11.01,2.31,14.65,1.54,3.64,3.61,5.45,6.22,5.45,1.97,0,3.61-1.1,4.94-3.29,1.32-2.19,2.09-5.09,2.31-8.7.13-2.1.19-4.75.19-7.93,0-5.47-.36-9.64-1.09-12.53-1.28-4.99-3.36-7.48-6.22-7.48-2.61,0-4.7,1.83-6.28,5.5-1.58,3.67-2.37,8.44-2.37,14.33Z"/>
    <path d="M557.89,451.96h-10.96c-.6,0-1.01.13-1.22.41-.21.27-.41.89-.58,1.85l-2.44,12.89c-.26,1.38-.38,2.28-.38,2.7,0,1.62.6,2.43,1.8,2.43.38,0,.69-.01.93-.04.23-.03.59-.08,1.06-.14h.9c.9,0,1.35.39,1.35,1.17,0,1.02-.47,1.53-1.41,1.53-.6,0-1.09-.06-1.48-.18-2.01-.36-3.78-.54-5.32-.54-.47,0-1.19.11-2.15.32-.96.21-1.68.32-2.15.32-.86,0-1.28-.48-1.28-1.44,0-.84.43-1.26,1.28-1.26h.26c.13.06.21.09.26.09.85.18,1.37.27,1.54.27,1.11,0,2.01-1.74,2.69-5.23l10-50.65c.38-2.04,1-3.06,1.86-3.06.77,0,1.35.93,1.73,2.79l10.26,50.83c.43,2.1.81,3.5,1.15,4.19.34.69.81,1.04,1.41,1.04h.64c.21-.06.43-.12.64-.18.21-.06.47-.09.77-.09.77,0,1.15.45,1.15,1.35,0,.96-.43,1.44-1.28,1.44l-1.09-.18c-2.14-.36-3.74-.54-4.81-.54-.64,0-1.28.06-1.92.18-.3,0-.79.09-1.47.27-.68.18-1.22.27-1.6.27-.9,0-1.35-.48-1.35-1.44,0-.9.47-1.35,1.41-1.35h.64c.34.06.62.11.83.13.21.03.47.08.77.14h.32c1.32,0,1.99-.78,1.99-2.34,0-.48-.13-1.38-.38-2.7l-2.56-13.07c-.21-1.02-.41-1.64-.58-1.85-.17-.21-.58-.32-1.22-.32ZM558.14,446.28l-5.83-29.47-5.84,30.01c-.21,1.08-.32,1.8-.32,2.16,0,.6.28.9.83.9h10.32c.85,0,1.28-.3,1.28-.9,0-.3-.02-.57-.06-.81l-.13-.72-.26-1.17Z"/>
    <path d="M579.5,435.1c-.09,2.04-.13,3.64-.13,4.78,1.97-5.59,4.72-8.38,8.27-8.38,2.99,0,5.19,1.71,6.6,5.14,1.03,2.46,1.54,6.4,1.54,11.81v18.84c0,1.8.13,3.03.38,3.7.34,1.02,1.05,1.53,2.12,1.53.26,0,.62-.03,1.09-.09.47-.06.83-.09,1.09-.09.77,0,1.15.39,1.15,1.17,0,.9-.38,1.35-1.15,1.35-.09,0-.51-.06-1.28-.18.26,0-.41-.09-1.99-.27-1.07-.12-1.86-.18-2.37-.18h-.58c-.98,0-2.14.09-3.46.27-.43.06-.83.09-1.22.09-.86,0-1.28-.42-1.28-1.26,0-.78.38-1.17,1.15-1.17h.32c.13.06.21.09.26.09l.96.18c.13.06.32.09.58.09.94,0,1.6-.54,1.99-1.62.38-1.08.58-3,.58-5.77v-16.76c0-5.11-.52-8.83-1.57-11.18-1.05-2.34-2.7-3.51-4.97-3.51-3.08,0-5.32,1.92-6.73,5.77-.94,2.52-1.41,5.95-1.41,10.27l.06,17.58c.04,1.92.15,3.15.32,3.7.34,1.02,1.05,1.53,2.12,1.53.38,0,.77-.06,1.15-.18.21-.06.49-.09.83-.09.68,0,1.03.39,1.03,1.17s-.34,1.17-1.03,1.17c-.34,0-.75-.06-1.22-.18-.98-.24-2.24-.36-3.78-.36h-.26c-1.03,0-2.31.15-3.85.45-.6.12-1.13.18-1.6.18-.73,0-1.09-.45-1.09-1.35,0-.78.36-1.17,1.09-1.17.26,0,.63.05,1.12.14.49.09.87.13,1.12.13,1.15,0,1.86-.93,2.12-2.79.09-.54.13-2.1.13-4.69v-22.26c0-2.76-.04-4.45-.13-5.05-.3-2.04-1.03-3.06-2.18-3.06.26,0-.21.06-1.41.18-.17.06-.45.09-.83.09-.73,0-1.09-.39-1.09-1.17,0-.84.36-1.26,1.09-1.26h.58c.64.18,1.45.27,2.44.27.38,0,.83-.06,1.35-.18.13,0,.3-.03.51-.09h.38c.73,0,1.09.75,1.09,2.25,0,.36,0,.51,0,.45Z"/>
    <path d="M648.88,444.38c0,9.43-1.28,17-3.85,22.71-2.56,5.71-5.99,8.56-10.26,8.56s-7.46-2.82-9.94-8.47c-2.48-5.65-3.72-13.19-3.72-22.62s1.31-16.72,3.94-22.58c2.63-5.86,6-8.79,10.1-8.79s7.47,2.85,9.97,8.56c2.5,5.71,3.75,13.25,3.75,22.62ZM623.29,444.84c0,8.77,1.04,15.71,3.11,20.82,2.07,5.11,4.91,7.66,8.5,7.66s6.34-2.57,8.5-7.71c2.16-5.14,3.24-11.91,3.24-20.32,0-8.95-1.05-16.13-3.14-21.54-2.09-5.41-4.87-8.11-8.34-8.11s-6.36,2.72-8.56,8.16c-2.2,5.44-3.3,12.45-3.3,21.04Z"/>
    <path d="M664.91,431.5c1.75,0,3.2.72,4.33,2.16,1.13,1.44,2.19,3.85,3.17,7.21v-19.74c0-1.68-.06-2.79-.19-3.33-.26-1.02-.86-1.53-1.8-1.53-.38,0-.68.03-.9.09-.64.18-1.11.27-1.41.27-.81,0-1.22-.45-1.22-1.35,0-.84.36-1.26,1.09-1.26.13,0,.53.09,1.22.27h.58c.26.06.47.09.64.09.34,0,.82-.06,1.44-.18.62-.12,1.08-.18,1.38-.18.73,0,1.07.6,1.03,1.8l-.06,1.53-.06,3.06v46.05c0,2.22.04,3.64.13,4.24.3,1.5.98,2.25,2.05,2.25.6,0,1.05-.06,1.35-.18.6-.12.98-.18,1.15-.18.73,0,1.09.45,1.09,1.35,0,.78-.32,1.17-.96,1.17h-.38c-.21-.06-.38-.09-.51-.09-.26-.06-.86-.09-1.79-.09s-1.56.03-1.86.09h-.71c-.9,0-1.35-.66-1.35-1.98v-.36l.06-.72v-3.61c-2.01,4.87-4.51,7.3-7.5,7.3s-5.64-2.04-7.57-6.13c-1.92-4.08-2.89-9.43-2.89-16.04s.98-11.7,2.95-15.82c1.97-4.12,4.47-6.17,7.5-6.17ZM656.32,453.49c0,6.13.77,11.01,2.31,14.65,1.54,3.64,3.61,5.45,6.22,5.45,1.97,0,3.61-1.1,4.94-3.29,1.32-2.19,2.09-5.09,2.31-8.7.13-2.1.19-4.75.19-7.93,0-5.47-.36-9.64-1.09-12.53-1.28-4.99-3.36-7.48-6.22-7.48-2.61,0-4.7,1.83-6.28,5.5-1.58,3.67-2.37,8.44-2.37,14.33Z"/>
    <path d="M693.57,431.5c1.75,0,3.2.72,4.33,2.16,1.13,1.44,2.19,3.85,3.17,7.21v-19.74c0-1.68-.06-2.79-.19-3.33-.26-1.02-.86-1.53-1.8-1.53-.38,0-.68.03-.9.09-.64.18-1.11.27-1.41.27-.81,0-1.22-.45-1.22-1.35,0-.84.36-1.26,1.09-1.26.13,0,.53.09,1.22.27h.58c.26.06.47.09.64.09.34,0,.82-.06,1.44-.18.62-.12,1.08-.18,1.38-.18.73,0,1.07.6,1.03,1.8l-.06,1.53-.06,3.06v46.05c0,2.22.04,3.64.13,4.24.3,1.5.98,2.25,2.05,2.25.6,0,1.05-.06,1.35-.18.6-.12.98-.18,1.15-.18.73,0,1.09.45,1.09,1.35,0,.78-.32,1.17-.96,1.17h-.38c-.21-.06-.38-.09-.51-.09-.26-.06-.86-.09-1.79-.09s-1.56.03-1.86.09h-.71c-.9,0-1.35-.66-1.35-1.98v-.36l.06-.72v-3.61c-2.01,4.87-4.51,7.3-7.5,7.3s-5.64-2.04-7.57-6.13c-1.92-4.08-2.89-9.43-2.89-16.04s.98-11.7,2.95-15.82c1.97-4.12,4.47-6.17,7.5-6.17ZM684.98,453.49c0,6.13.77,11.01,2.31,14.65,1.54,3.64,3.61,5.45,6.22,5.45,1.97,0,3.61-1.1,4.94-3.29,1.32-2.19,2.09-5.09,2.31-8.7.13-2.1.19-4.75.19-7.93,0-5.47-.36-9.64-1.09-12.53-1.28-4.99-3.36-7.48-6.22-7.48-2.61,0-4.7,1.83-6.28,5.5-1.58,3.67-2.37,8.44-2.37,14.33Z"/>
    <path d="M752.88,469.89l-17.7-53.45v50.02c0,1.98.08,3.31.26,3.97.34,1.26,1.07,1.89,2.18,1.89.3,0,.74-.04,1.31-.13.58-.09,1.01-.14,1.31-.14.77,0,1.15.48,1.15,1.44,0,.84-.36,1.26-1.09,1.26-.38,0-.79-.06-1.22-.18-1.71-.48-3.44-.72-5.19-.72-1.45,0-2.97.24-4.55.72-.38.12-.81.18-1.28.18-.68,0-1.03-.42-1.03-1.26,0-.96.43-1.44,1.28-1.44.13,0,.49.06,1.09.18h.51c.26.06.43.09.51.09,1.2,0,1.99-.54,2.37-1.62.21-.66.32-1.98.32-3.97v-45.69c0-3.06-.71-4.6-2.12-4.6-.51,0-.93.04-1.25.14-.32.09-.76.13-1.31.13-.81,0-1.22-.42-1.22-1.26,0-.9.45-1.35,1.35-1.35.21,0,.68.06,1.41.18,1.07.18,1.82.27,2.24.27.64,0,1.24-.09,1.8-.27.77-.12,1.22-.18,1.35-.18.64,0,1.15.6,1.54,1.8l.64,1.98,12.89,39.02c.68,1.92,1.67,4.87,2.95,8.83l1.54,4.87-.06-1.89c-.13-3.79-.19-9.43-.19-16.94v-30.73c0-3-.71-4.51-2.12-4.51-.26,0-.68.06-1.28.18-.3.12-.71.18-1.22.18-.81,0-1.22-.45-1.22-1.35s.41-1.35,1.22-1.35c-.04,0,.81.15,2.57.45,1.07.18,2.26.27,3.59.27,1.07,0,1.86-.06,2.37-.18l1.41-.36c.68-.12,1.09-.18,1.22-.18.81,0,1.22.48,1.22,1.44,0,.9-.38,1.35-1.15,1.35-.21,0-.66-.06-1.35-.18-.13,0-.32-.03-.58-.09h-.45c-1.45,0-2.18,1.56-2.18,4.69l.06,41.1c0,1.38.04,3.82.13,7.3v1.98c0,2.4-.43,3.61-1.28,3.61-.73,0-1.28-.69-1.67-2.07l-.58-1.98-.51-1.44Z"/>
    <path d="M786.36,466.46c-1.37,6.13-4.36,9.19-8.98,9.19-3.46,0-5.88-1.8-7.25-5.41-.81-2.28-1.22-6.64-1.22-13.07v-20.01c-.21-1.8-.9-2.7-2.05-2.7h-.51c-.26.06-.47.09-.64.09-.51.12-.86.18-1.03.18-.81,0-1.22-.45-1.22-1.35,0-.66.34-.99,1.03-.99.3,0,.74.03,1.31.09.58.06,1.01.09,1.31.09s.74-.03,1.31-.09c.58-.06,1.01-.09,1.31-.09.64,0,.96.39.96,1.17v5.23l-.06,2.7v15.68c0,5.77.32,9.64.96,11.63,1.03,3.19,3.06,4.78,6.09,4.78,1.67,0,3.2-.66,4.58-1.98,1.39-1.32,2.36-3,2.92-5.05.77-2.88,1.15-7.3,1.15-13.25v-10c0-3.84-.13-6.26-.38-7.26-.26-.99-.86-1.49-1.79-1.49-.26,0-.65.03-1.19.09-.54.06-.93.09-1.19.09-.81,0-1.22-.42-1.22-1.26,0-.72.41-1.08,1.22-1.08.3,0,.53.03.71.09.77.06,1.52.09,2.24.09h1.15c.3,0,.71-.06,1.22-.18.77,0,1.15.6,1.15,1.8v1.62l-.13,2.7-.06,3.33v24.96c0,3.85.71,5.77,2.12,5.77.26,0,.47-.03.64-.09l1.92-.18c.73,0,1.09.36,1.09,1.08,0,.84-.36,1.26-1.09,1.26-.26,0-.58-.06-.96-.18-.21,0-.54-.03-.96-.09-.43-.06-.75-.09-.96-.09-.38,0-.71.03-.96.09l-.71.18h-.64c-.81,0-1.22-.75-1.22-2.25v-5.86Z"/>
    <path d="M803.61,437.17l-.06,2.07c1.75-5.17,4.27-7.75,7.57-7.75,4.02,0,6.43,3.21,7.25,9.64,1.54-6.43,4.27-9.64,8.21-9.64,1.5,0,2.84.5,4.04,1.49,1.2.99,2.03,2.27,2.5,3.83.68,2.34,1.03,6.25,1.03,11.72l.06,18.84c.04,1.68.15,2.83.32,3.42.3,1.14.92,1.71,1.86,1.71.17,0,.3-.03.38-.09l1.09-.18h.71c.98,0,1.47.42,1.47,1.26s-.38,1.26-1.15,1.26c.08,0-.19-.03-.83-.09-2.78-.3-4.36-.45-4.75-.45-1.54,0-3.12.12-4.75.36-.21.06-.47.09-.77.09-.81,0-1.22-.45-1.22-1.35,0-.72.34-1.08,1.03-1.08.26,0,.66.03,1.22.09.55.06.98.09,1.28.09,1.2,0,1.94-1.11,2.24-3.33.08-.66.13-2.43.13-5.32v-15.05c0-5.77-.44-9.73-1.31-11.9s-2.47-3.25-4.78-3.25c-1.54,0-2.92.69-4.14,2.07-1.22,1.38-2.06,3.21-2.53,5.5-.6,3-.9,6.85-.9,11.54l.06,15.95c0,2.52.75,3.79,2.24,3.79h.45l1.03-.18c.09,0,.17-.03.26-.09h.26c.94,0,1.41.42,1.41,1.26s-.38,1.26-1.15,1.26c-.09,0-.59-.09-1.51-.27-.92-.18-2.08-.27-3.49-.27s-3.04.15-4.75.45l-1.03.18c-.77,0-1.15-.45-1.15-1.35,0-.78.3-1.17.9-1.17.26,0,.64.03,1.15.09.51.06.9.09,1.15.09,1.2,0,1.95-.96,2.24-2.88.13-.78.19-2.43.19-4.96v-17.39c0-9.01-2.01-13.52-6.03-13.52-3.08,0-5.17,2.13-6.28,6.4-.64,2.46-.96,5.62-.96,9.46v14.33c0,4.03.11,6.46.32,7.3.21.84.88,1.26,1.99,1.26.43,0,.76-.01.99-.04.23-.03.48-.07.74-.13h.45c.68,0,1.03.39,1.03,1.17,0,.84-.36,1.26-1.09,1.26-.21,0-.62-.06-1.22-.18-1.2-.24-2.24-.36-3.14-.36-1.24,0-3.01.21-5.32.63-.34.06-.68.09-1.03.09-.81,0-1.22-.42-1.22-1.26s.47-1.26,1.41-1.26h.32l.77.18h.32c.17.06.28.09.32.09,1.37,0,2.2-1.08,2.5-3.25.08-.6.13-2.49.13-5.68v-22.35c0-2.1-.06-3.51-.19-4.24-.34-1.62-1.03-2.43-2.05-2.43-.3,0-.6.03-.9.09-.56.12-1.05.18-1.47.18-.86,0-1.28-.39-1.28-1.17,0-.84.43-1.26,1.28-1.26h.51c.68.12,1.28.18,1.8.18.6,0,1.03-.03,1.28-.09.51-.12,1-.18,1.47-.18.77,0,1.15.72,1.15,2.16v.63c0-.06-.02.6-.06,1.98Z"/>
    <path d="M847.91,418.43v21.72c2.01-5.77,4.68-8.65,8.02-8.65,2.86,0,5.19,2.01,6.99,6.04,1.8,4.03,2.69,9.22,2.69,15.59,0,6.79-.93,12.24-2.79,16.36-1.86,4.12-4.33,6.17-7.41,6.17s-5.67-2.52-7.63-7.57c.13,2.22.19,3.76.19,4.6,0,1.32-.08,2.15-.22,2.48-.15.33-.4.5-.74.5-.64,0-.96-.87-.96-2.61,0-.06.04-2.01.13-5.86.04-1.92.06-3.36.06-4.33v-39.84c0-2.28-.06-3.75-.19-4.42-.34-1.62-1.07-2.43-2.18-2.43-.26,0-.47.03-.64.09h-.45c-.21.06-.36.09-.45.09-.64,0-.96-.39-.96-1.17s.32-1.17.96-1.17c.26,0,.71.06,1.35.18.64.12,1.13.15,1.47.09.68-.12,1.3-.18,1.86-.18.64,0,.96.81.96,2.43v.54c-.04.42-.06.87-.06,1.35ZM848.88,466.65c.6,2.04,1.51,3.71,2.73,5,1.22,1.29,2.49,1.94,3.82,1.94,2.52,0,4.55-1.89,6.09-5.68s2.31-8.8,2.31-15.05c0-5.71-.72-10.33-2.15-13.88-1.43-3.54-3.32-5.32-5.67-5.32-2.91,0-5.13,2.4-6.67,7.21-1.11,3.49-1.67,8.05-1.67,13.7,0,5.23.41,9.25,1.22,12.08Z"/>
    <path d="M872.67,452.77v1.35c0,6.07.78,10.83,2.34,14.29,1.56,3.46,3.73,5.18,6.51,5.18,1.75,0,3.29-.78,4.62-2.34s2.25-3.73,2.76-6.49c.21-1.02.38-2.43.51-4.24.08-1.08.38-1.62.9-1.62.6,0,.9.54.9,1.62,0,4.03-.98,7.56-2.95,10.59-1.97,3.04-4.23,4.55-6.8,4.55-3.21,0-5.79-1.94-7.76-5.81-1.97-3.88-2.95-9-2.95-15.37,0-6.85.99-12.39,2.98-16.63,1.99-4.24,4.58-6.35,7.79-6.35,2.86,0,5.21,1.7,7.05,5.09,1.84,3.4,2.76,7.77,2.76,13.11,0,1.44-.08,2.31-.22,2.61-.15.3-.59.45-1.31.45h-17.12ZM881.52,433.66c-2.48,0-4.5,1.53-6.06,4.6-1.56,3.06-2.45,7.15-2.66,12.26h16.03c.47-.06.71-.39.71-.99,0-4.75-.74-8.58-2.21-11.49-1.47-2.91-3.41-4.37-5.8-4.37Z"/>
    <path d="M903.12,439.07c1.84-5.05,4.12-7.57,6.86-7.57,1.84,0,3.38.98,4.62,2.93,1.24,1.95,1.86,4.4,1.86,7.35,0,1.92-.3,3.55-.9,4.87-.6,1.32-1.35,1.98-2.24,1.98-1.37,0-2.05-1.02-2.05-3.06,0-1.68.51-2.52,1.54-2.52.3,0,.58.09.83.27.13.18.23.27.32.27.43,0,.64-.84.64-2.52,0-2.04-.45-3.8-1.35-5.27-.9-1.47-1.97-2.21-3.21-2.21-1.41,0-2.72.83-3.91,2.48-1.2,1.65-1.99,3.68-2.37,6.08-.43,2.76-.64,6.58-.64,11.45v10.63c0,3.67.14,5.96.42,6.89.28.93.95,1.4,2.02,1.4.08,0,.19-.03.32-.09h.32l.71-.09h.38c1.03,0,1.54.39,1.54,1.17,0,.84-.34,1.26-1.03,1.26-.34,0-.73-.06-1.15-.18-1.07-.3-2.44-.45-4.1-.45-.68,0-1.67.12-2.95.36s-2.2.36-2.76.36c-.77,0-1.15-.39-1.15-1.17,0-.9.47-1.35,1.41-1.35-.09,0,.02.03.32.09l1.15.18h.45c1.11,0,1.82-.72,2.12-2.16.17-.72.26-2.13.26-4.24l-.06-28.12c-.09-2.34-.62-3.51-1.6-3.51-.04,0-.41.03-1.09.09l-1.03.09c-.17.06-.41.09-.71.09-.77,0-1.15-.42-1.15-1.26,0-.78.45-1.17,1.35-1.17h.51l1.22.18c.17.06.41.09.71.09s.71-.06,1.22-.18l.77-.18c.26-.06.53-.09.83-.09.6,0,.9.57.9,1.71v.81c-.09,1.56-.13,3-.13,4.33Z"/>
    <path d="M958.33,453.76c0,6.37-1.04,11.61-3.11,15.73-2.07,4.12-4.71,6.17-7.92,6.17s-5.89-2-7.92-5.99c-2.03-4-3.05-9.21-3.05-15.64s1.05-11.94,3.14-16.18c2.09-4.24,4.77-6.35,8.02-6.35s5.71,2.12,7.76,6.35c2.05,4.24,3.08,9.54,3.08,15.91ZM938.2,454.03c0,5.89.82,10.62,2.47,14.2,1.64,3.58,3.84,5.36,6.57,5.36s4.97-1.88,6.7-5.63c1.73-3.75,2.6-8.64,2.6-14.65s-.84-10.41-2.53-14.1c-1.69-3.7-3.84-5.54-6.44-5.54-2.78,0-5.03,1.88-6.76,5.63-1.73,3.76-2.6,8.67-2.6,14.74Z"/>
    <path d="M968.4,466.55v-30.73c0-1.02-.19-1.5-.58-1.44l-1.73.18-1.41.09h-.77c-.77,0-1.15-.42-1.15-1.26,0-.78.38-1.17,1.15-1.17h.83l1.6.18c1.07.12,1.58.18,1.54.18.34,0,.53-.27.58-.81l.13-5.41c.09-3.91.72-7.01,1.89-9.33,1.18-2.31,2.75-3.47,4.71-3.47,1.24,0,2.29.57,3.14,1.71.85,1.14,1.28,2.55,1.28,4.24,0,2.22-.66,3.33-1.99,3.33-1.24,0-1.86-.99-1.86-2.97,0-1.14.26-1.83.77-2.07l.38-.18c.13-.18.19-.3.19-.36,0-.24-.18-.55-.55-.95-.36-.39-.84-.59-1.44-.59-3.29,0-4.94,5.29-4.94,15.86,0,.66.17.99.51.99h.06l1.15-.09c.26,0,.75-.06,1.47-.18.13,0,.32-.03.58-.09h.51c.9,0,1.35.42,1.35,1.26,0,.78-.45,1.17-1.35,1.17h-1.03c-.38-.06-.9-.12-1.54-.18h-1.28c-.34,0-.51.45-.51,1.35v30.73c0,3.43.36,5.32,1.09,5.68.3.18.73.27,1.28.27h.96c.38-.06.75-.09,1.09-.09.85,0,1.28.39,1.28,1.17s-.43,1.17-1.28,1.17h-.64l-2.12-.45c-.56-.12-1.35-.18-2.37-.18-1.33,0-2.97.21-4.94.63-.17.06-.41.09-.71.09-.77,0-1.15-.42-1.15-1.26s.41-1.26,1.22-1.26c-.26,0-.11.03.45.09l.83.09c.21.06.53.09.96.09,1.07,0,1.72-.33,1.96-.99.23-.66.35-2.34.35-5.05Z"/>
    <path d="M1003.67,422.39l7.76,23.97,8.91-26.86c.26-.78.38-1.35.38-1.71,0-.84-.45-1.26-1.35-1.26-.34,0-.62.03-.83.09-1.03.12-1.75.18-2.18.18-.86,0-1.28-.45-1.28-1.35,0-.84.43-1.26,1.28-1.26-.04,0,.38.06,1.28.18,1.8.24,3.12.36,3.98.36.64,0,1.58-.1,2.82-.32,1.24-.21,2.16-.32,2.76-.32.73,0,1.09.39,1.09,1.17,0,.96-.56,1.44-1.67,1.44h-.71c-.68-.12-1.13-.18-1.35-.18-.47,0-.82.18-1.06.54-.24.36-.61,1.29-1.12,2.79l-.83,2.43-8.34,24.06c-.64,1.92-.96,4-.96,6.22l.06,15.95c.04,1.32.17,2.22.38,2.7.26.72.83,1.08,1.73,1.08.26,0,.73-.06,1.41-.18.13,0,.3-.03.51-.09h.45c.98,0,1.47.48,1.47,1.44,0,.9-.47,1.35-1.41,1.35h-.38c-.17-.06-.3-.09-.38-.09l-2.25-.54c-1.11-.12-1.86-.18-2.24-.18-.47,0-1.52.09-3.14.27-2.69.3-3.78.45-3.27.45-.81,0-1.22-.45-1.22-1.35,0-.84.45-1.26,1.35-1.26.17,0,.56.06,1.15.18h1.03c1.37,0,2.18-.6,2.44-1.8.17-.78.26-2.1.26-3.97v-15.77c0-1.44-.34-3.18-1.03-5.23l-8.91-26.5c-.56-1.5-1.2-2.25-1.92-2.25-.09,0-.47.06-1.15.18h-.32c-.13.06-.24.09-.32.09-.94,0-1.41-.45-1.41-1.35s.41-1.35,1.22-1.35c.21,0,.58.06,1.09.18,1.32.3,2.65.45,3.98.45.85,0,1.45-.06,1.79-.18l2.05-.36c.34-.06.73-.09,1.15-.09.98,0,1.47.45,1.47,1.35,0,.84-.41,1.26-1.22,1.26-.34,0-.86-.04-1.54-.13-.68-.09-1.2-.14-1.54-.14-.86,0-1.28.39-1.28,1.17,0,.36.08.75.26,1.17l.45,1.44.64,1.89Z"/>
    <path d="M1047.85,453.76c0,6.37-1.04,11.61-3.11,15.73-2.07,4.12-4.71,6.17-7.92,6.17s-5.89-2-7.92-5.99c-2.03-4-3.05-9.21-3.05-15.64s1.05-11.94,3.14-16.18c2.09-4.24,4.77-6.35,8.02-6.35s5.71,2.12,7.76,6.35c2.05,4.24,3.08,9.54,3.08,15.91ZM1027.71,454.03c0,5.89.82,10.62,2.47,14.2,1.64,3.58,3.84,5.36,6.57,5.36s4.97-1.88,6.7-5.63c1.73-3.75,2.6-8.64,2.6-14.65s-.84-10.41-2.53-14.1c-1.69-3.7-3.84-5.54-6.44-5.54-2.78,0-5.03,1.88-6.76,5.63-1.73,3.76-2.6,8.67-2.6,14.74Z"/>
    <path d="M1053.17,459.34c0-3.12,1.22-5.56,3.66-7.3-.38-1.8-.58-3.72-.58-5.77,0-4.15.82-7.64,2.47-10.5,1.65-2.85,3.69-4.28,6.12-4.28,1.71,0,3.48,1.08,5.32,3.24-.09-1.2-.13-1.86-.13-1.98,0-2.1.41-3.82,1.22-5.14.81-1.32,1.88-1.98,3.21-1.98,1.2,0,2.16.54,2.89,1.62.73,1.08,1.09,2.46,1.09,4.15,0,2.83-.77,4.24-2.31,4.24-1.2,0-1.8-.84-1.8-2.52s.53-2.52,1.6-2.52c.13,0,.21.03.26.09h.19c.17,0,.26-.09.26-.27,0-.3-.09-.63-.26-.99-.43-1.14-1.05-1.71-1.86-1.71s-1.51.53-2.08,1.58c-.58,1.05-.87,2.27-.87,3.65,0,1.2.17,2.58.51,4.15l.83,3.88c.26,1.2.38,2.64.38,4.33,0,4.27-.81,7.75-2.44,10.46-1.62,2.7-3.7,4.06-6.22,4.06-2.95,0-5.3-1.92-7.05-5.77-1.71,1.08-2.56,2.92-2.56,5.5,0,3.55,2.12,5.5,6.35,5.86l4.55.36c7.14.54,10.71,4.72,10.71,12.53,0,4.15-1.07,7.42-3.21,9.82-2.14,2.4-5.04,3.6-8.72,3.6-3.98,0-7.06-1.13-9.27-3.38-2.2-2.25-3.3-5.42-3.3-9.51,0-5.53,1.97-9.46,5.9-11.81-3.25-1.44-4.87-4-4.87-7.66ZM1053.94,478.72c0,3.36.96,6.02,2.89,7.98,1.92,1.95,4.53,2.93,7.82,2.93s5.65-1.02,7.47-3.06c1.82-2.04,2.72-4.81,2.72-8.29,0-6.91-3.57-10.36-10.71-10.36-3.21,0-5.71.96-7.5,2.88-1.79,1.92-2.69,4.57-2.69,7.93ZM1058.04,446.64c0,3.25.6,5.89,1.79,7.93,1.2,2.04,2.74,3.06,4.62,3.06,2.09,0,3.79-1.16,5.1-3.47,1.3-2.31,1.96-5.33,1.96-9.06,0-3.3-.63-6.04-1.89-8.2-1.26-2.16-2.83-3.24-4.71-3.24-2.01,0-3.66,1.2-4.94,3.6-1.28,2.4-1.92,5.53-1.92,9.37Z"/>
    <path d="M1101.71,466.46c-1.37,6.13-4.36,9.19-8.98,9.19-3.46,0-5.88-1.8-7.25-5.41-.81-2.28-1.22-6.64-1.22-13.07v-20.01c-.21-1.8-.9-2.7-2.05-2.7h-.51c-.26.06-.47.09-.64.09-.51.12-.86.18-1.03.18-.81,0-1.22-.45-1.22-1.35,0-.66.34-.99,1.03-.99.3,0,.74.03,1.31.09.58.06,1.01.09,1.31.09s.74-.03,1.31-.09c.58-.06,1.01-.09,1.31-.09.64,0,.96.39.96,1.17v5.23l-.06,2.7v15.68c0,5.77.32,9.64.96,11.63,1.03,3.19,3.06,4.78,6.09,4.78,1.67,0,3.2-.66,4.58-1.98,1.39-1.32,2.36-3,2.92-5.05.77-2.88,1.15-7.3,1.15-13.25v-10c0-3.84-.13-6.26-.38-7.26-.26-.99-.86-1.49-1.79-1.49-.26,0-.65.03-1.19.09-.54.06-.93.09-1.19.09-.81,0-1.22-.42-1.22-1.26,0-.72.41-1.08,1.22-1.08.3,0,.53.03.71.09.77.06,1.52.09,2.24.09h1.15c.3,0,.71-.06,1.22-.18.77,0,1.15.6,1.15,1.8v1.62l-.13,2.7-.06,3.33v24.96c0,3.85.71,5.77,2.12,5.77.26,0,.47-.03.64-.09l1.92-.18c.73,0,1.09.36,1.09,1.08,0,.84-.36,1.26-1.09,1.26-.26,0-.58-.06-.96-.18-.21,0-.54-.03-.96-.09-.43-.06-.75-.09-.96-.09-.38,0-.71.03-.96.09l-.71.18h-.64c-.81,0-1.22-.75-1.22-2.25v-5.86Z"/>
    <path d="M1119.15,439.07c1.84-5.05,4.12-7.57,6.86-7.57,1.84,0,3.38.98,4.62,2.93,1.24,1.95,1.86,4.4,1.86,7.35,0,1.92-.3,3.55-.9,4.87-.6,1.32-1.35,1.98-2.24,1.98-1.37,0-2.05-1.02-2.05-3.06,0-1.68.51-2.52,1.54-2.52.3,0,.58.09.83.27.13.18.23.27.32.27.43,0,.64-.84.64-2.52,0-2.04-.45-3.8-1.35-5.27-.9-1.47-1.97-2.21-3.21-2.21-1.41,0-2.72.83-3.91,2.48-1.2,1.65-1.99,3.68-2.37,6.08-.43,2.76-.64,6.58-.64,11.45v10.63c0,3.67.14,5.96.42,6.89.28.93.95,1.4,2.02,1.4.08,0,.19-.03.32-.09h.32l.71-.09h.38c1.03,0,1.54.39,1.54,1.17,0,.84-.34,1.26-1.03,1.26-.34,0-.73-.06-1.15-.18-1.07-.3-2.44-.45-4.1-.45-.68,0-1.67.12-2.95.36s-2.2.36-2.76.36c-.77,0-1.15-.39-1.15-1.17,0-.9.47-1.35,1.41-1.35-.09,0,.02.03.32.09l1.15.18h.45c1.11,0,1.82-.72,2.12-2.16.17-.72.26-2.13.26-4.24l-.06-28.12c-.09-2.34-.62-3.51-1.6-3.51-.04,0-.41.03-1.09.09l-1.03.09c-.17.06-.41.09-.71.09-.77,0-1.15-.42-1.15-1.26,0-.78.45-1.17,1.35-1.17h.51l1.22.18c.17.06.41.09.71.09s.71-.06,1.22-.18l.77-.18c.26-.06.53-.09.83-.09.6,0,.9.57.9,1.71v.81c-.09,1.56-.13,3-.13,4.33Z"/>
    <path d="M1145.7,432.49l1.28-.18h.45c.81,0,1.22.42,1.22,1.26,0,.78-.36,1.17-1.09,1.17h-1.09c-.56-.06-1.07-.09-1.54-.09h-1.15c-1.03,0-1.65.18-1.86.54-.21.36-.32.96-.32,1.8v22.35c0,5.35.29,9.06.87,11.13s1.61,3.11,3.11,3.11c2.48,0,3.72-3.06,3.72-9.19v-7.03c0-1.2.28-1.8.83-1.8.38,0,.62.17.71.5.08.33.13,1.28.13,2.84v5.14c0,7.75-1.84,11.63-5.51,11.63-2.57,0-4.25-1.98-5.07-5.95-.34-1.68-.51-5.14-.51-10.37v-22.35c0-1.56-.3-2.34-.9-2.34-.13,0-.38.03-.77.09l-1.15.18h-.83c-.64,0-.96-.39-.96-1.17,0-.84.43-1.26,1.28-1.26.38,0,.74.03,1.06.09.32.06.61.09.87.09,1.07,0,1.6-1.26,1.6-3.79v-3.79c0-1.68.11-2.7.32-3.06.13-.18.34-.27.64-.27.51,0,.77.54.77,1.62v5.5c0,1.8.06,2.88.19,3.25.13.36.51.54,1.15.54h.96l1.6-.18Z"/>
    <path d="M1186.29,413.2c4.15,0,7.25,3.3,9.3,9.91-.04-1.38-.09-2.52-.13-3.42l-.13-2.52c-.04-.24-.06-.57-.06-.99,0-1.68.34-2.52,1.03-2.52.73,0,1.09.69,1.09,2.07v.99c-.13,1.8-.19,4.39-.19,7.75,0,3,.06,5.98.19,8.92.17,3.97.26,5.62.26,4.96,0,1.2-.32,1.8-.96,1.8-.73,0-1.09-.84-1.09-2.52v-2.7c0-4.15-.31-7.56-.93-10.23-.62-2.67-1.7-4.85-3.24-6.53-1.54-1.68-3.23-2.52-5.07-2.52-3.5,0-6.32,2.58-8.43,7.75-2.12,5.17-3.17,12.05-3.17,20.64s1.08,16.07,3.24,21.36c2.16,5.29,5.08,7.93,8.75,7.93,3.04,0,5.48-1.62,7.34-4.87,1.86-3.25,2.79-7.63,2.79-13.16v-1.98c0-1.38.34-2.07,1.03-2.07s1.03.84,1.03,2.52c0,6.55-1.12,11.84-3.37,15.86-2.24,4.03-5.18,6.04-8.82,6.04-4.32,0-7.76-2.9-10.32-8.7-2.57-5.8-3.85-13.62-3.85-23.48,0-8.89,1.27-16.16,3.82-21.81,2.54-5.65,5.85-8.47,9.91-8.47Z"/>
    <path d="M1225.6,466.46c-1.37,6.13-4.36,9.19-8.98,9.19-3.46,0-5.88-1.8-7.25-5.41-.81-2.28-1.22-6.64-1.22-13.07v-20.01c-.21-1.8-.9-2.7-2.05-2.7h-.51c-.26.06-.47.09-.64.09-.51.12-.86.18-1.03.18-.81,0-1.22-.45-1.22-1.35,0-.66.34-.99,1.03-.99.3,0,.74.03,1.31.09.58.06,1.01.09,1.31.09s.74-.03,1.31-.09c.58-.06,1.01-.09,1.31-.09.64,0,.96.39.96,1.17v5.23l-.06,2.7v15.68c0,5.77.32,9.64.96,11.63,1.03,3.19,3.06,4.78,6.09,4.78,1.67,0,3.2-.66,4.58-1.98,1.39-1.32,2.36-3,2.92-5.05.77-2.88,1.15-7.3,1.15-13.25v-10c0-3.84-.13-6.26-.38-7.26-.26-.99-.86-1.49-1.79-1.49-.26,0-.65.03-1.19.09-.54.06-.93.09-1.19.09-.81,0-1.22-.42-1.22-1.26,0-.72.41-1.08,1.22-1.08.3,0,.53.03.71.09.77.06,1.52.09,2.24.09h1.15c.3,0,.71-.06,1.22-.18.77,0,1.15.6,1.15,1.8v1.62l-.13,2.7-.06,3.33v24.96c0,3.85.71,5.77,2.12,5.77.26,0,.47-.03.64-.09l1.92-.18c.73,0,1.09.36,1.09,1.08,0,.84-.36,1.26-1.09,1.26-.26,0-.58-.06-.96-.18-.21,0-.54-.03-.96-.09-.43-.06-.75-.09-.96-.09-.38,0-.71.03-.96.09l-.71.18h-.64c-.81,0-1.22-.75-1.22-2.25v-5.86Z"/>
    <path d="M1241.37,438.25l-.06,2.61c1.58-6.25,4.23-9.37,7.95-9.37,2.91,0,5.24,1.94,6.99,5.81,1.75,3.88,2.63,9.03,2.63,15.46,0,6.97-.91,12.53-2.73,16.67-1.82,4.15-4.24,6.22-7.28,6.22-3.29,0-5.81-2.46-7.57-7.39v16.85c0,2.58.66,3.88,1.99,3.88h.45c.3,0,.62-.03.96-.09l.96-.09c.68,0,1.03.42,1.03,1.26,0,.78-.34,1.17-1.03,1.17-.3,0-.53-.03-.71-.09-1.41-.3-2.97-.45-4.68-.45-1.33,0-2.69.15-4.1.45-.56.12-.92.18-1.09.18-.77,0-1.15-.42-1.15-1.26s.32-1.26.96-1.26c.34,0,.66.03.96.09.08,0,.3.03.64.09h.77c1.45,0,2.22-1.2,2.31-3.61l.06-1.98v-43.8c0-2.7-.26-4.29-.77-4.78-.26-.24-.68-.36-1.28-.36-.21,0-.66.06-1.35.18-.34.06-.79.09-1.35.09-.64,0-.96-.42-.96-1.26s.34-1.26,1.03-1.26c.13,0,.45.06.96.18.51.12,1.15.18,1.92.18.3,0,.73-.04,1.28-.13.55-.09.98-.14,1.28-.14.73,0,1.09.75,1.09,2.25v.81c-.04.72-.09,1.68-.13,2.88ZM1242.78,440.06c-1.03,3.19-1.54,7.63-1.54,13.34s.36,10.27,1.09,13.34c.47,2.04,1.29,3.7,2.47,4.96s2.45,1.89,3.82,1.89c2.56,0,4.61-1.82,6.12-5.45,1.52-3.63,2.28-8.55,2.28-14.74s-.67-11.1-2.02-14.56c-1.35-3.45-3.26-5.18-5.74-5.18-2.95,0-5.11,2.13-6.48,6.4Z"/>
    <path d="M1274.14,475.66c-3.33,0-5.83-2.25-7.5-6.76l.13,3.79v.72c0,1.32-.32,1.98-.96,1.98-.6,0-.9-.6-.9-1.8,0-1.02.05-2.54.16-4.55.11-2.01.16-3.53.16-4.55,0-1.32-.04-2.61-.13-3.88l-.19-2.79v-.81c-.04-.3-.06-.51-.06-.63,0-1.2.3-1.8.9-1.8.68,0,1.03.81,1.03,2.43,0,.48-.02.84-.06,1.08v1.62c-.04.24-.06.6-.06,1.08,0,3.85.68,6.94,2.05,9.28,1.37,2.34,3.18,3.51,5.45,3.51,2.01,0,3.69-.99,5.03-2.97,1.35-1.98,2.02-4.45,2.02-7.39s-.54-5.06-1.63-6.35c-1.09-1.29-3.05-2.21-5.87-2.75-3.04-.54-5.16-1.58-6.38-3.11-1.22-1.53-1.83-3.95-1.83-7.25,0-3.54.75-6.47,2.24-8.79,1.5-2.31,3.4-3.47,5.71-3.47,3.21,0,5.47,2.37,6.8,7.12,0-1.26-.04-2.58-.13-3.97-.04-.24-.06-.6-.06-1.08,0-1.02.3-1.53.9-1.53.51,0,.77.51.77,1.53v1.08c-.13,2.7-.19,4.81-.19,6.31v3.25c.04,1.44.08,2.4.13,2.88v.99c0,1.08-.28,1.62-.83,1.62-.6,0-.9-.6-.9-1.8v-1.35l.06-.54c0-3.84-.58-6.86-1.73-9.06-1.15-2.19-2.76-3.29-4.81-3.29-1.75,0-3.22.92-4.39,2.75-1.18,1.83-1.76,4.13-1.76,6.89s.45,4.52,1.35,5.63c.9,1.11,2.61,1.97,5.13,2.57,3.04.72,5.04,1.44,6.03,2.16,2.18,1.68,3.27,4.69,3.27,9.01,0,3.79-.84,6.89-2.53,9.33s-3.81,3.65-6.38,3.65Z"/>
  </g>
  <rect class="cls-1" x="1406.21" y="484.72" width="0" height="19.72"/>
</svg>